<?xml version="1.0" standalone="no"?>
<!DOCTYPE svg PUBLIC "-//W3C//DTD SVG 1.1//EN" "http://www.w3.org/Graphics/SVG/1.1/DTD/svg11.dtd" >
<svg xmlns="http://www.w3.org/2000/svg" xmlns:xlink="http://www.w3.org/1999/xlink" version="1.1">
<metadata>
This is a custom SVG webfont generated by Typotheque.
</metadata>
<defs>
<font id="typotheque_webfonts_service" horiz-adv-x="658" >
<font-face units-per-em="1000" ascent="750" descent="-250" />
<missing-glyph horiz-adv-x="225" />
<glyph unicode=" "  horiz-adv-x="225" />
<glyph unicode="&#x09;" horiz-adv-x="225" />
<glyph unicode="&#xa0;" horiz-adv-x="225" />
<glyph unicode="A" d="M398 234h-257l-62 -176l122 -39v-19h-227v19l76 39l232 643h36q17 0 34 1.5t29 4.5l237 -685l64 -3v-19h-307v19l93 5zM150 259h240l-115 350z" />
<glyph unicode="B" horiz-adv-x="639" d="M25 0v19l84 4v653l-84 5v19h317q39 0 78 -8t69.5 -26.5t50 -49t19.5 -75.5q0 -36 -14 -65t-38.5 -50t-57.5 -34.5t-71 -18.5v-3q42 0 84 -9t76 -29t55.5 -52.5t21.5 -79.5q0 -194 -278 -200h-312zM328 24q42 0 70 12t44 34.5t22.5 53.5t6.5 70q0 34 -9 63.5t-28.5 50.5 t-50 33t-73.5 12h-59v-329h77zM251 376h45q53 0 87.5 37t34.5 121q0 66 -26.5 104t-96.5 38h-44v-300z" />
<glyph unicode="C" horiz-adv-x="717" d="M604 13q-32 -8 -82 -15t-104 -7q-191 0 -288 89.5t-97 259.5q0 85 26.5 153.5t77 116.5t123.5 74t165 26q57 0 106.5 -10.5t74.5 -17.5q17 0 32.5 3t26.5 5q1 -12 1.5 -30.5t1 -39t1 -42.5t0.5 -42v-33t-1 -26q-18 -5 -50 -5q-18 0 -39.5 1.5t-29.5 3.5q2 14 2 35.5v46.5 v22.5v28t-0.5 27.5t-0.5 21q-22 11 -51.5 19.5t-67.5 8.5q-124 0 -186 -85.5t-62 -247.5q0 -98 21 -163t55.5 -104t80 -55.5t93.5 -16.5q37 0 65 5t53 16v14t0.5 20.5t0.5 20v14.5v30.5t-0.5 32t-1 29t-0.5 21.5q8 2 29 3.5t38 1.5q34 0 52 -5q0 -14 -0.5 -36t-0.5 -45 v-71.5t-1 -57.5q-12 2 -29.5 4.5t-33.5 1.5z" />
<glyph unicode="D" horiz-adv-x="794" d="M353 700q406 0 406 -345q0 -83 -23.5 -149t-74 -111.5t-129.5 -70t-189 -24.5h-318v19l84 4v653l-84 5v19h328zM330 24q83 0 137 20t85.5 60.5t44 101.5t12.5 143q0 93 -18.5 155.5t-53.5 101t-86.5 54.5t-117.5 16h-82v-652h79z" />
<glyph unicode="E" horiz-adv-x="626" d="M251 24h227q0 9 0.5 24t1 30.5t0.5 30.5v26q0 22 -0.5 41t-1.5 32q8 2 28 3.5t37 1.5q33 0 51 -5q0 -10 0.5 -23t0.5 -28q0 -20 -0.5 -43t-1.5 -45t-1.5 -41.5t-1.5 -32.5q-11 3 -23.5 4t-29.5 1h-512v19l84 4v653l-84 5v19h500q23 0 43 5q2 -22 2.5 -56.5t0.5 -68.5 v-39.5t-1 -32.5q-18 -5 -50 -5q-18 0 -37.5 1.5t-27.5 3.5q2 17 2 41v50v77h-206v-306h110l49 99h19v-233h-19l-50 108h-109v-320z" />
<glyph unicode="F" horiz-adv-x="583" d="M251 24l119 -5v-19h-345v19l84 4v653l-84 5v19h490q16 0 29 1t24 4q2 -22 2.5 -56.5t0.5 -68.5v-39.5t-1 -32.5q-18 -5 -50 -5q-18 0 -39 1.5t-29 3.5q1 17 1.5 41t0.5 50v15.5v23.5t-0.5 23t-0.5 15h-202v-329h119l50 101h18v-241h-18l-51 113h-118v-296z" />
<glyph unicode="G" horiz-adv-x="756" d="M682 297v-300q-19 0 -35 5.5t-29 14.5q-31 -10 -84.5 -18t-114.5 -8q-88 0 -159.5 22t-122 66.5t-78 111t-27.5 155.5q0 85 29 153t81.5 114.5t126 71.5t163.5 25q28 0 57 -3t55 -7.5t47 -10t34 -11.5q16 0 31.5 3t26.5 5q1 -12 1.5 -29t1 -36.5t0.5 -40.5v-40v-37.5 t-1 -29.5q-18 -5 -50 -5q-18 0 -39 1.5t-29 3.5q1 14 1 37.5v49.5v98q-24 12 -57.5 20t-71.5 8q-125 0 -191 -81.5t-66 -247.5q0 -97 20 -163t54.5 -106t79.5 -57t96 -17q35 0 59 2.5t50 9.5v269l-120 8v19h314v-19z" />
<glyph unicode="H" horiz-adv-x="815" d="M251 676v-303h313v303l-84 5v19h308v-19l-82 -5v-653l82 -4v-19h-308v19l84 4v323h-313v-323l82 -4v-19h-308v19l84 4v653l-84 5v19h308v-19z" />
<glyph unicode="I" horiz-adv-x="360" d="M251 676v-653l82 -4v-19h-308v19l84 4v653l-84 5v19h308v-19z" />
<glyph unicode="J" horiz-adv-x="351" d="M248 86q0 -51 -17 -94t-47 -75t-71 -53t-90 -28l-8 14q33 19 51.5 38.5t27.5 47t10.5 67t1.5 97.5v576l-95 5v19h319v-19l-82 -5v-590v0z" />
<glyph unicode="K" horiz-adv-x="692" d="M565 642l-179 -225l284 -396l44 -2v-19h-282v19l66 4l-213 310h-34v-310l76 -4v-19h-302v19l84 4v653l-84 5v19h308v-19l-82 -5v-317h60l223 283l-97 39v19h239v-19z" />
<glyph unicode="L" horiz-adv-x="602" d="M251 676v-652h217q0 10 0.5 24.5t0.5 30v30.5v26v46t-1 37q4 1 12.5 2t18.5 1.5t21 1t20 0.5q32 0 50 -5v-54q0 -21 -0.5 -44.5l-1 -47t-1 -44t-0.5 -33.5q-12 3 -24.5 4t-28.5 1h-509v19l84 4v653l-84 5v19h308v-19z" />
<glyph unicode="M" horiz-adv-x="952" d="M109 58l3 610l-74 12v20h213l239 -558l208 558h222v-20l-77 -9v-647l83 -5v-19h-307v19l83 4v607l-236 -635q-2 0 -13.5 -1t-13.5 -1l-28 -5l-272 626l1 -555l128 -40v-19h-230v19z" />
<glyph unicode="N" horiz-adv-x="772" d="M667 640l-3 -646l-38 -4q-12 -2 -20.5 -3.5t-19.5 -5.5l-446 558l1 -478l124 -42v-19h-241v19l87 41l4 596l-84 24v20h163l446 -553l-3 492l-129 42v19h243v-19z" />
<glyph unicode="O" horiz-adv-x="789" d="M397 710q75 0 140 -22t114 -65.5t77 -107.5t28 -148q0 -90 -25.5 -160.5t-73 -118.5t-113.5 -73t-147 -25q-68 0 -133 18t-116 59.5t-82.5 108.5t-31.5 165q0 85 28 153t77 116t115 74t143 26zM401 14q49 0 87 19t64 60.5t39.5 107t13.5 159.5q0 90 -14 152t-41 100.5 t-66.5 55.5t-89.5 17q-48 0 -86.5 -15.5t-66.5 -53.5t-43 -102.5t-15 -161.5q0 -167 53 -252.5t165 -85.5z" />
<glyph unicode="P" horiz-adv-x="625" d="M251 272v-248l117 -5v-19h-342v19l83 4v653l-84 5v19h310q56 0 105.5 -10.5t87 -34.5t59 -63.5t21.5 -97.5q0 -61 -23.5 -103t-63.5 -68.5t-93.5 -38.5t-113.5 -12h-63zM251 676v-380h67q81 0 111 45.5t30 141.5q0 106 -37.5 149.5t-111.5 43.5h-59z" />
<glyph unicode="Q" horiz-adv-x="789" d="M397 710q75 0 140 -22t114 -65.5t77 -107.5t28 -148q0 -78 -19.5 -141t-55 -109.5t-86 -76.5t-113.5 -42q9 -36 26 -66t39.5 -52.5t50 -35t57.5 -12.5q26 0 50 6t51 19l7 -11q-34 -23 -72.5 -34t-85.5 -11q-43 0 -85.5 12.5t-78.5 37t-62.5 60.5t-36.5 82 q-60 6 -116 28.5t-98.5 64t-68 104.5t-25.5 151q0 85 28 153t77 116t115 74t143 26zM401 14q49 0 87 19t64 60.5t39.5 107t13.5 159.5q0 90 -14 152t-41 100.5t-66.5 55.5t-89.5 17q-48 0 -86.5 -15.5t-66.5 -53.5t-43 -102.5t-15 -161.5q0 -167 53 -252.5t165 -85.5z" />
<glyph unicode="R" horiz-adv-x="662" d="M250 314v-290l83 -5v-19h-308v19l84 4v653l-84 5v19h327q51 0 94.5 -12t74.5 -35t48.5 -58.5t17.5 -81.5q0 -85 -55.5 -134t-158.5 -60q51 -6 84.5 -31.5t56 -60t38 -73t31.5 -71t35 -53.5t50 -21q17 0 32 6v-18q-14 -8 -42 -13t-56 -5q-71 0 -115.5 30.5t-72 79 t-45 108.5t-34.5 118q-9 -1 -15.5 -1h-16.5h-53zM250 676v-338h62q32 0 55.5 13t39 35t23 52t7.5 63q0 38 -7.5 70t-24 55.5t-42.5 36.5t-63 13h-50z" />
<glyph unicode="S" horiz-adv-x="548" d="M255 14q27 0 51 6t41.5 19.5t27.5 35.5t10 53q0 25 -8 47.5t-25.5 44t-46 43t-69.5 45.5q-47 27 -82.5 50.5t-59.5 48.5t-36.5 54.5t-12.5 68.5t17.5 72t49 57t75.5 37.5t98 13.5q35 0 65 -4.5t59 -14.5q20 2 42 5t34 6q1 -12 1.5 -30t1 -38.5t0.5 -42.5v-42v-38t-1 -30 q-18 -5 -50 -5q-18 0 -36.5 1.5t-26.5 3.5q2 15 2 41.5v55.5v90q-22 10 -43 14t-49 4q-62 0 -95 -27t-33 -72q0 -24 11.5 -44.5t33 -40t51.5 -39.5t67 -42q53 -32 90 -58.5t59.5 -52.5t32.5 -55.5t10 -68.5q0 -46 -19 -82t-53.5 -61.5t-83.5 -39t-109 -13.5q-40 0 -69 6 t-62 9q-17 -1 -35.5 -4.5t-28.5 -5.5q-1 12 -1.5 31.5t-1 42t-1 46.5t-0.5 45v34t1 26q18 5 50 5q18 0 36.5 -1.5t26.5 -3.5q-1 -14 -1.5 -38t-0.5 -50v-24v-29t0.5 -28.5t0.5 -21.5q19 -8 41.5 -11.5t53.5 -3.5z" />
<glyph unicode="T" horiz-adv-x="634" d="M571 700q24 0 44 5q1 -12 1.5 -29t1 -37.5t0.5 -42v-41.5v-41t-1 -31q-8 -2 -26 -3.5t-33 -1.5q-18 0 -34.5 1.5t-24.5 3.5q1 15 1.5 41.5t0.5 55.5v23v26.5t-0.5 26t-0.5 20.5h-111v-652l108 -5v-19h-359v19l109 5v653h-115v-17t-0.5 -23t-0.5 -24v-21q0 -32 1 -62 t3 -47q-8 -2 -25 -3.5t-34 -1.5q-15 0 -33 1.5t-26 3.5q-1 14 -1 35v45q0 39 0.5 79.5t2.5 62.5q12 -3 31.5 -4t37.5 -1h483z" />
<glyph unicode="U" horiz-adv-x="751" d="M654 642l3 -396q0 -74 -23.5 -123t-61 -78.5t-84.5 -42t-95 -12.5q-25 0 -57 2t-65.5 10t-65.5 23.5t-57.5 42t-41 66t-15.5 95.5v447l-75 5v19h302v-19l-85 -5v-406q0 -67 9 -114.5t30 -77.5t56 -44t86 -14q104 0 160 61t54 179l-5 381l-134 40v19h255v-19z" />
<glyph unicode="V" horiz-adv-x="653" d="M388 97l181 542l-116 42v19h224v-19l-78 -42l-217 -639h-39q-17 0 -34 -1.5t-29 -4.5l-249 684l-61 3v19h308v-19l-98 -5z" />
<glyph unicode="W" horiz-adv-x="1028" d="M772 99l171 541l-115 41v19h224v-19l-78 -41l-208 -640h-38q-17 0 -34.5 -1.5t-28.5 -4.5l-152 436l-140 -430h-39q-17 0 -34.5 -1.5t-28.5 -4.5l-239 684l-61 3v19h302v-19l-92 -5l197 -577l120 372l-72 207l-55 3v19h279v-19l-75 -5z" />
<glyph unicode="X" horiz-adv-x="654" d="M356 437l145 201l-103 43v19h238v-19l-101 -43l-163 -225l250 -391l55 -3v-19h-301v19l85 5l-173 271l-165 -234l120 -42v-19h-253v19l98 42l184 258l-228 359l-51 3v19h293v-19l-82 -5z" />
<glyph unicode="Y" horiz-adv-x="592" d="M541 640l-172 -334v-282l107 -5v-19h-353v19l105 5v266l-202 387l-57 4v19h300v-19l-87 -5l176 -334l152 298l-119 41v19h230v-19z" />
<glyph unicode="Z" horiz-adv-x="608" d="M557 700q2 -13 5 -25t8 -24l-413 -627h297v19.5t0.5 26t0.5 26v20.5q0 28 -0.5 52.5t-1.5 39.5q8 2 29 3.5t39 1.5q32 0 50 -5q1 -12 1 -30.5v-39.5v-40.5t-0.5 -40t-1 -36t-1.5 -28.5q-12 3 -27.5 4.5t-32.5 2.5h-476q-2 14 -4.5 26.5t-7.5 24.5l409 625h-266 q0 -8 -0.5 -19.5t-0.5 -24.5v-25.5v-20.5q0 -26 0.5 -49t2.5 -38q-8 -2 -29.5 -3.5t-38.5 -1.5q-33 0 -51 5q-1 14 -1 33.5v42.5q0 35 0.5 72.5t2.5 59.5q13 -3 30 -5t36 -2h442z" />
<glyph unicode="a" horiz-adv-x="535" d="M540 54q-42 -64 -123 -64q-19 0 -37 4.5t-31.5 15t-22.5 27.5t-10 43q-7 -17 -19.5 -33t-30.5 -29t-42 -20.5t-53 -7.5q-36 0 -62 10t-43 27t-25 39.5t-8 47.5q0 40 20 67.5t51.5 44t71 24t78.5 7.5q16 0 30 -1t28 -3l1 115q0 40 -3 67.5t-11.5 43.5t-23 23t-37.5 7 q-46 0 -76 -16q0 -6 -0.5 -17t-0.5 -22.5v-22.5v-17q0 -23 0.5 -47t2.5 -42q-8 -2 -24.5 -3.5t-32.5 -1.5q-14 0 -27 1.5t-21 3.5q-1 19 -1.5 46.5t-0.5 54.5q0 22 0.5 42t1.5 37q18 -2 42.5 0.5t47.5 8.5q26 7 58 11t64 4q48 0 81.5 -11t55.5 -30t32 -45t10 -57 q0 -7 -0.5 -25.5t-1 -43t-1 -52.5t-1 -52.5t-0.5 -43v-25.5v-54q1 -25 9 -40t25 -15q11 0 23.5 7t24.5 22zM241 46q24 0 42.5 16t29.5 39l-1 133q-18 3 -35 3q-54 0 -79 -27.5t-25 -72.5q0 -48 18 -69.5t50 -21.5z" />
<glyph unicode="b" horiz-adv-x="598" d="M298 8q31 0 54 18t37.5 51t21.5 78.5t7 101.5q0 112 -21 175.5t-71 63.5q-31 0 -59 -17.5t-54 -48.5v-398q17 -13 39.5 -18.5t45.5 -5.5zM211 449q26 34 67 57t89 23q50 0 87 -19.5t61 -55t35.5 -84.5t11.5 -108q0 -72 -21 -123.5t-55.5 -84.5t-80 -48.5t-94.5 -15.5 q-35 0 -63.5 6.5t-55.5 23.5q-18 -14 -50.5 -17.5t-66.5 -2.5v721l-81 2v18l222 29l-3 -218z" />
<glyph unicode="c" horiz-adv-x="511" d="M291 529q29 0 46 -2.5t40 -7.5q14 -2 27.5 -4t27.5 -2h16t18 1q1 -20 1.5 -49.5t0.5 -58.5v-41.5t-1 -33.5q-18 -5 -46 -5q-16 0 -34.5 1.5t-26.5 3.5q3 33 3 79v19.5v25t-0.5 24.5t-0.5 20q-17 5 -32 8t-34 3q-65 0 -91.5 -59t-26.5 -188q0 -62 10 -107t29 -73.5t45 -42 t58 -13.5q43 0 77 14.5t71 42.5l10 -12q-35 -32 -84.5 -57t-113.5 -25q-47 0 -91 14.5t-78.5 46t-55.5 80.5t-21 117q0 72 20 125t55 87.5t82 51.5t100 17z" />
<glyph unicode="d" horiz-adv-x="613" d="M282 723v19l243 28l-2 -218v-520l78 -7v-18l-211 -16l-3 79q-28 -34 -68 -57t-89 -23q-98 0 -146 69.5t-48 193.5q0 72 20 124.5t54 86t79.5 49.5t97.5 16q55 0 99 -19l-2 97v112zM300 510q-63 0 -91.5 -66.5t-28.5 -181.5q0 -123 24.5 -179t77.5 -56q28 0 53.5 17 t48.5 46v399q-23 12 -42 16.5t-42 4.5z" />
<glyph unicode="e" horiz-adv-x="533" d="M177 279v-9q0 -125 34.5 -183.5t115.5 -58.5q42 0 80.5 16t73.5 45l10 -12q-33 -35 -82 -61t-120 -26q-47 0 -93 14.5t-82 45.5t-58.5 80.5t-22.5 120.5q0 68 21 120t56 87t80 53t92 18q62 0 104.5 -20.5t68 -53.5t36.5 -75t11 -85v-16h-325zM278 510q-24 0 -42 -10.5 t-31 -35t-20 -64.5t-8 -98h191v32q0 40 -3.5 72.5t-13.5 55.5t-27.5 35.5t-45.5 12.5z" />
<glyph unicode="f" horiz-adv-x="362" d="M305 756q-26 0 -40.5 -10.5t-22 -33t-9.5 -58.5t-2 -87v-55h120v-25h-120v-465l108 -5v-17h-316v17l70 4v466h-72v21l72 6v69q0 45 15.5 81t42.5 60.5t65 37.5t83 13q29 0 56 -4t58 -14q18 -6 41 -4q3 -44 3 -97v-33t-1 -30q-18 -5 -46 -5q-16 0 -33 1.5t-25 3.5 q3 34 3 74v18v23t-0.5 23t-0.5 19q-15 3 -25.5 4.5t-23.5 1.5z" />
<glyph unicode="g" horiz-adv-x="548" d="M41 321q0 54 18.5 93.5t49.5 65t70 37.5t81 12q22 0 51 -6.5t58 -20.5q41 6 86 9t91 6l-1 -63q-15 2 -34.5 5.5t-40.5 7.5t-41 8.5t-35 9.5q35 -20 55 -60.5t20 -82.5q0 -51 -18 -89.5t-48.5 -64t-72 -38t-88.5 -12.5q-8 0 -26 1t-26 2q-19 -10 -28 -21t-9 -21 q0 -8 8 -13t20.5 -8.5t29.5 -5.5t35 -4q8 -1 30 -3.5t46 -4.5t44 -4.5t25 -3.5q43 -6 69.5 -19.5t41.5 -30.5t20 -37t5 -39q0 -40 -20.5 -74.5t-56.5 -59.5t-85.5 -39t-107.5 -14q-123 0 -181 27.5t-58 90.5q0 77 121 114l2 2q-34 8 -49.5 29.5t-15.5 46.5q0 34 22 56t70 39 v4q-59 20 -93 63.5t-34 109.5zM374 -54q-35 5 -79 9.5t-92 8.5l-44 4q-29 -25 -39.5 -49t-10.5 -46t6.5 -40t23.5 -31t46 -20.5t75 -7.5q42 0 80 8t67.5 23t46.5 37t17 51q0 23 -27.5 35.5t-69.5 17.5zM251 158q21 0 36 7.5t24.5 27t14 53t4.5 84.5q0 54 -4 89t-13 55 t-23.5 28t-35.5 8q-22 0 -36.5 -7.5t-23 -28t-12 -55.5t-3.5 -89q0 -52 4 -85t13 -52.5t22.5 -27t32.5 -7.5z" />
<glyph unicode="h" horiz-adv-x="650" d="M221 412q37 49 87.5 83t113.5 34q73 0 107 -43.5t34 -124.5v-82t-0.5 -87t-1.5 -87.5t-2 -82.5l84 -5v-17h-288v17l66 4q1 35 2 75.5t1.5 81.5t0.5 80.5v72.5q0 37 -1.5 65.5t-8.5 48t-20 29.5t-35 10q-34 0 -70 -27.5t-64 -64.5v-371l80 -4v-17h-288v17l70 4v697l-81 5 v18l221 29l-2 -204z" />
<glyph unicode="i" horiz-adv-x="325" d="M15 478v19l219 28v-504l80 -4v-17h-289v17l70 4v452zM85 711q0 35 24.5 55t59.5 20q34 0 57.5 -19.5t23.5 -55.5t-24.5 -56.5t-58.5 -20.5q-35 0 -58.5 20.5t-23.5 56.5z" />
<glyph unicode="j" horiz-adv-x="307" d="M83 711q0 35 24.5 55t59.5 20q34 0 57.5 -19.5t23.5 -55.5t-24.5 -56.5t-58.5 -20.5q-35 0 -58.5 20.5t-23.5 56.5zM93 474l-90 5v18l229 29v-535q0 -60 -23.5 -103.5t-57.5 -74.5t-73 -49t-69 -27l-9 14q33 20 51.5 42t28 52t11.5 69.5t2 95.5v464z" />
<glyph unicode="k" horiz-adv-x="579" d="M7 723v18l220 29l-1 -248v-262h37l148 205l-84 36v17h223v-17l-111 -38l-98 -130l216 -314l31 -2v-17h-237v17l40 3l-140 213h-25v-212l59 -4v-17h-267v17l70 4v697z" />
<glyph unicode="l" horiz-adv-x="317" d="M7 723v18l220 29l-1 -234v-515l80 -4v-17h-288v17l70 4v697z" />
<glyph unicode="m" horiz-adv-x="975" d="M15 476v19l216 29v-112q35 50 80.5 83.5t108.5 33.5q60 0 93.5 -29.5t42.5 -86.5q37 49 82.5 82.5t107.5 33.5q73 0 107 -43.5t34 -124.5v-82t-0.5 -87t-1.5 -87.5t-2 -82.5l83 -5v-17h-288v17l67 4q1 35 2 75.5t1.5 81.5t0.5 80.5v72.5q0 75 -12 114t-51 39 q-35 0 -66.5 -27.5t-58.5 -63.5v-72v-75.5t-0.5 -78.5t-1 -76t-1.5 -69l77 -5v-17h-276v17l61 4q1 18 1.5 46t0.5 59.5t0.5 64.5t0.5 61.5v49.5v29q0 75 -12 114t-51 39q-35 0 -66.5 -27.5t-59.5 -64.5v-371l80 -4v-17h-289v17l70 4v450z" />
<glyph unicode="n" d="M15 476v19l216 29v-111q36 49 85.5 82.5t112.5 33.5q73 0 107.5 -43.5t34.5 -124.5v-82t-0.5 -87t-1.5 -87.5t-2 -82.5l84 -5v-17h-289v17l66 4q1 35 2 75.5t2 81.5t1 80.5v72.5q0 83 -13 118t-52 35q-35 0 -70.5 -27.5t-63.5 -64.5v-371l80 -4v-17h-289v17l70 4v450z " />
<glyph unicode="o" horiz-adv-x="583" d="M284 -10q-54 0 -100 16t-79 48t-52 81t-19 114q0 66 19.5 118t54.5 88t82.5 55t104.5 19q51 0 97.5 -15t81 -46.5t55 -81t20.5 -117.5q0 -63 -17 -114.5t-50.5 -88t-83 -56.5t-114.5 -20zM288 8q32 0 54 14.5t36 45.5t20 79.5t6 116.5q0 72 -6.5 119t-20 75.5t-34.5 40 t-51 11.5q-29 0 -50.5 -12t-36 -41t-22 -77t-7.5 -120t6.5 -120.5t20.5 -77.5t35 -41.5t50 -12.5z" />
<glyph unicode="p" horiz-adv-x="611" d="M8 476v19l216 29v-75q26 35 69 57.5t88 22.5q50 0 86.5 -19.5t60.5 -55t35.5 -84.5t11.5 -108q0 -72 -20.5 -123.5t-55.5 -84.5t-80.5 -48.5t-94.5 -15.5q-25 0 -50 5t-47 13v-235l105 -6v-17h-312v17l69 5v699zM308 8q30 0 53 13t38.5 42t23.5 77t8 117q0 127 -23 181 t-75 54q-55 0 -106 -62v-399q20 -14 40.5 -18.5t40.5 -4.5z" />
<glyph unicode="q" horiz-adv-x="597" d="M522 -228l70 -5v-17h-308v17l100 5v291q-26 -33 -68 -53t-86 -20q-101 0 -147.5 69.5t-46.5 196.5q0 72 22 124t58.5 85t84 48.5t98.5 15.5q48 0 83.5 -10t64.5 -30q14 15 33.5 25.5t41.5 14.5v-757zM384 494q-20 8 -38.5 12t-43.5 4q-64 0 -93 -60t-29 -188 q0 -123 25 -179t77 -56q28 0 54.5 16.5t47.5 42.5v408z" />
<glyph unicode="r" horiz-adv-x="470" d="M322 484q-13 -1 -25 -8t-23 -18t-21 -24.5t-19 -28.5v-383l96 -5v-17h-305v17l70 4v450l-80 5v19l216 29v-99q25 48 63 76t95 28q14 0 28 -1.5t29 -6.5q2 -20 2.5 -50.5t0.5 -60.5q0 -21 -0.5 -42.5t-1.5 -36.5q-18 -5 -45 -5q-8 0 -18.5 0.5l-21 1t-19.5 1.5t-13 2 q2 17 2.5 36t0.5 36v16.5v22.5t-0.5 23t-1.5 19h-9z" />
<glyph unicode="s" horiz-adv-x="473" d="M151 18q16 -5 36 -7.5t33 -2.5q58 0 84 22t26 57q0 24 -13 43.5t-35 36t-49.5 32t-57.5 31.5q-25 13 -49.5 28t-43.5 33t-31 40.5t-12 52.5q0 37 15.5 64.5t42.5 45.5t63 26.5t77 8.5q31 0 67.5 -4.5t65.5 -10.5q11 0 20.5 1t19.5 2q2 -25 2 -44.5v-45.5q0 -13 0.5 -33 t0.5 -31q-18 -5 -45 -5q-15 0 -31.5 1.5t-25.5 3.5q1 14 1.5 32.5t0.5 33.5v13.5t-0.5 20t-0.5 21v16.5q-17 5 -36.5 7.5t-33.5 2.5q-53 0 -74.5 -21.5t-21.5 -51.5q0 -21 14.5 -39t36 -34t45 -28.5t41.5 -22.5q33 -17 61 -33t49 -35.5t33 -44.5t12 -61q0 -40 -16.5 -68 t-45 -46t-67 -26.5t-83.5 -8.5q-40 0 -77 5t-60 10q-16 1 -37 -2q-1 22 -2 48t-1 52q-1 14 -1 34v30q18 5 46 5q15 0 31.5 -1.5t24.5 -3.5q-1 -13 -1 -33.5v-36.5q0 -17 0.5 -39t1.5 -40z" />
<glyph unicode="t" horiz-adv-x="397" d="M399 55q-10 -9 -27 -20t-38.5 -21t-47.5 -17t-54 -7q-34 0 -60.5 5.5t-45.5 21.5t-28.5 43.5t-9.5 72.5l3 359h-75v23l76 4l18 127h116v-129h157v-25h-157v-367q0 -28 5 -45.5t13.5 -27.5t19.5 -13.5t24 -3.5q29 0 56 10.5t47 24.5z" />
<glyph unicode="u" horiz-adv-x="651" d="M641 26v-18l-214 -15l-1 114q-38 -49 -87 -83t-112 -34q-73 0 -107.5 43.5t-34.5 124.5v154v38.5v44t0.5 43.5t0.5 38l-76 5v19l216 29q-2 -37 -2.5 -82.5t-0.5 -90.5v-168q0 -75 12 -113.5t51 -38.5q18 0 36 7.5t35.5 20t34 29.5t30.5 35v348l-94 5v19l232 29v-498z" />
<glyph unicode="v" horiz-adv-x="532" d="M331 77l119 387l-104 37v17h199v-17l-68 -37l-149 -464h-24t-31 -0.5t-31 -1t-24 -0.5l-194 499l-36 4v17h252v-17l-72 -5z" />
<glyph unicode="w" horiz-adv-x="859" d="M658 77l119 387l-104 37v17h199v-17l-67 -37l-150 -464h-24t-31 -0.5t-31 -1t-24 -0.5l-120 320l-102 -318h-25t-31 -0.5t-30.5 -1t-23.5 -0.5l-188 499l-37 4v17h246v-17l-66 -5l157 -419l88 273l-55 147l-50 4v17h254v-17l-61 -5z" />
<glyph unicode="x" horiz-adv-x="555" d="M307 337l94 128l-83 36v17h202v-17l-90 -37l-110 -147l202 -297l43 -3v-17h-265v17l68 3l-128 189l-117 -159l91 -33v-17h-210v17l89 33l134 179l-179 268l-43 4v17h245v-17l-51 -4z" />
<glyph unicode="y" horiz-adv-x="530" d="M23 497l-37 4v17h252v-17l-72 -5l167 -373l114 341l-105 37v17h201v-17l-70 -37l-160 -472l-61 -189l100 -36v-17h-245v17l119 37l45 138z" />
<glyph unicode="z" horiz-adv-x="509" d="M454 518q1 -10 3.5 -18.5t6.5 -16.5l-299 -461h210q0 4 0.5 14.5t0.5 21.5v21.5v14.5q0 23 -0.5 45t-2.5 39q8 2 22.5 3.5t30.5 1.5q28 0 46 -5q1 -14 1 -31v-36q0 -30 -0.5 -61t-2.5 -53q-17 3 -35 3h-394q-1 10 -2.5 18.5t-5.5 17.5l294 460h-186v-61q0 -24 0.5 -51 t2.5 -44q-8 -2 -22.5 -3.5t-30.5 -1.5q-28 0 -46 5q-1 14 -1 31v36q0 30 0.5 60.5t2.5 53.5q16 -3 35 -3h372z" />
<glyph unicode="0" horiz-adv-x="644" d="M315 -10q-62 0 -113 19.5t-87.5 55t-56.5 85.5t-20 110q0 61 22 113.5t61 90t92.5 59t115.5 21.5t113.5 -21t88 -57.5t56.5 -87t20 -109.5q0 -62 -22 -113.5t-61 -88.5t-92.5 -57t-116.5 -20zM322 14q73 0 113 60t40 195q0 69 -9.5 116.5t-28.5 77t-47.5 42.5t-66.5 13 q-37 0 -65.5 -13.5t-48 -43t-30 -77t-10.5 -114.5q0 -137 40 -196.5t113 -59.5z" />
<glyph unicode="1" horiz-adv-x="376" d="M269 25l100 -6v-19h-338v19l106 6v483l-102 -9v24l234 26v-524z" />
<glyph unicode="2" horiz-adv-x="506" d="M305 399q0 53 -20 82.5t-73 29.5q-44 0 -81.5 -16.5t-67.5 -41.5l-14 18q48 39 97.5 56t100.5 17q88 0 141 -35t53 -106q0 -53 -33 -98t-83.5 -82.5t-110.5 -67t-114 -50.5h374v-105h-446v67q62 45 113 86t87.5 81t56.5 80.5t20 84.5z" />
<glyph unicode="3" horiz-adv-x="499" d="M199 510q-40 0 -76 -18t-65 -43l-14 17q42 38 91.5 58t103.5 20q53 0 91 -12.5t62 -33t35 -47t11 -54.5q0 -60 -41 -98t-119 -56q50 -11 85.5 -30.5t58.5 -46.5t33.5 -59t10.5 -68q0 -38 -13.5 -72.5t-43 -61.5t-75.5 -43t-111 -16q-37 0 -69 8t-58.5 21.5t-47 29.5 t-34.5 33l18 16q29 -34 76 -56t101 -22q60 0 92.5 37t32.5 107q0 33 -11 62t-34.5 51t-60 35.5t-86.5 14.5v22q45 0 76.5 15t50.5 40.5t27.5 58t8.5 67.5q0 26 -5.5 49t-17.5 39.5t-32.5 26t-50.5 9.5z" />
<glyph unicode="4" horiz-adv-x="570" d="M307 -142v167h-297v70l311 447h114v-413h118l-9 -104h-109v-167h-128zM310 129v350l-244 -350h244z" />
<glyph unicode="5" horiz-adv-x="521" d="M212 -124q38 0 65 10.5t44 29t24.5 43.5t7.5 53q0 42 -20 71t-50.5 48t-68 28.5t-73.5 14.5q-13 2 -25 2.5t-23 1.5l-22 28l15 328h380l-4 -108h-357l-6 -136q103 -8 176.5 -28.5t120.5 -52.5t68.5 -74t21.5 -91q0 -36 -14.5 -71.5t-45.5 -63.5t-81 -45.5t-120 -17.5 q-37 0 -69.5 8t-59.5 21.5t-48.5 29.5t-35.5 33l18 16q29 -34 78.5 -56t103.5 -22z" />
<glyph unicode="6" horiz-adv-x="560" d="M523 215q0 -41 -13.5 -81t-43 -72t-75.5 -52t-112 -20t-111 27t-73 72t-40 102.5t-12 119.5q0 66 16.5 133t54 121t98 88t147.5 34q31 0 67.5 -6t74.5 -23l-9 -21q-32 14 -67 19.5t-60 5.5q-50 0 -84.5 -23t-56.5 -63.5t-31.5 -96.5t-10.5 -122q9 9 24 21.5t34.5 23 t43.5 18t52 7.5q51 0 87 -16t58 -44.5t32 -67.5t10 -84zM388 211q0 37 -4.5 68t-16.5 53.5t-31.5 35t-49.5 12.5q-20 0 -36 -4.5t-29 -10.5t-22.5 -12.5t-15.5 -10.5q0 -57 3 -115t14.5 -105.5t34 -77.5t60.5 -30q51 0 72 46.5t21 150.5z" />
<glyph unicode="7" horiz-adv-x="479" d="M180 -142h-76l317 568h-406l5 108h444l8 -64z" />
<glyph unicode="8" horiz-adv-x="554" d="M273 -10q-43 0 -84.5 10.5t-74.5 31t-53 50.5t-20 70q0 33 14.5 59.5t37.5 47.5t51.5 37t56.5 27q-24 16 -48.5 35.5t-44.5 43t-32.5 51t-12.5 60.5q0 35 15 66.5t42.5 55.5t68 38t91.5 14q105 0 154.5 -39t49.5 -100q0 -27 -12.5 -50t-34 -42.5t-51.5 -35.5t-65 -29 q35 -22 69.5 -46.5t62.5 -51.5t45 -57.5t17 -64.5q0 -41 -20.5 -74t-54 -57t-77.5 -37t-90 -13zM153 174q0 -30 6.5 -59t22 -51.5t40.5 -36t61 -13.5q30 0 52.5 8.5t37.5 23t23 33.5t8 40q0 27 -23.5 57t-55 57t-64 49.5t-50.5 34.5q-15 -12 -26 -29t-18 -36.5t-10.5 -39.5 t-3.5 -38zM272 663q-27 0 -47 -8t-33 -20.5t-19 -27.5t-6 -29q0 -27 10.5 -48.5t29 -42.5t45.5 -42.5t60 -46.5q31 30 47 70t16 80q0 60 -23.5 87.5t-79.5 27.5z" />
<glyph unicode="9" horiz-adv-x="536" d="M22 318q0 41 13.5 81.5t42.5 72.5t75.5 52t112.5 20t111 -27t73 -72t40 -103t12 -119q0 -66 -17 -133.5t-54.5 -121.5t-97.5 -88t-147 -34q-31 0 -67.5 6.5t-74.5 22.5l9 22q32 -14 67 -19.5t60 -5.5q50 0 84.5 23t56 63.5t31 96.5t10.5 122q-9 -9 -23.5 -21.5t-34 -23 t-44 -18t-51.5 -7.5q-51 0 -87 16t-58 44.5t-32 67t-10 83.5zM157 322q0 -37 5 -67.5t17 -53t31.5 -35t48.5 -12.5q19 0 35.5 4.5t29.5 10.5t22.5 12.5t15.5 10.5q0 57 -2.5 115t-13.5 105t-33.5 77t-62.5 30q-51 0 -72 -45.5t-21 -151.5z" />
<glyph unicode="&#xc1;" d="M398 234h-257l-62 -176l122 -39v-19h-227v19l76 39l232 643h36q17 0 34 1.5t29 4.5l237 -685l64 -3v-19h-307v19l93 5zM150 259h240l-115 350zM295 760l121 185l72 -71l-182 -124z" />
<glyph unicode="&#xc4;" d="M398 234h-257l-62 -176l122 -39v-19h-227v19l76 39l232 643h36q17 0 34 1.5t29 4.5l237 -685l64 -3v-19h-307v19l93 5zM150 259h240l-115 350zM168 842q0 25 18.5 43.5t47.5 18.5q26 0 45.5 -17.5t19.5 -44.5q0 -28 -19 -45.5t-46 -17.5q-29 0 -47.5 17.5t-18.5 45.5z M365 842q0 25 18 43.5t47 18.5q26 0 45.5 -17.5t19.5 -44.5q0 -28 -19 -45.5t-46 -17.5q-29 0 -47 17.5t-18 45.5z" />
<glyph unicode="&#x104;" d="M675 -198q-24 -16 -53 -25.5t-60 -9.5q-51 0 -77.5 24t-26.5 64q0 21 9 41.5t24 39t35 35t41 29.5h-192v19l93 5l-70 210h-257l-62 -176l122 -39v-19h-227v19l76 39l232 643h36q17 0 34 1.5t29 4.5l237 -685l64 -3v-19h-83q-30 -26 -40.5 -61.5t-10.5 -62.5 q0 -15 3.5 -29t10 -25t17.5 -17.5t26 -6.5q33 0 67 17zM150 259h240l-115 350z" />
<glyph unicode="&#x106;" horiz-adv-x="717" d="M604 13q-32 -8 -82 -15t-104 -7q-191 0 -288 89.5t-97 259.5q0 85 26.5 153.5t77 116.5t123.5 74t165 26q57 0 106.5 -10.5t74.5 -17.5q17 0 32.5 3t26.5 5q1 -12 1.5 -30.5t1 -39t1 -42.5t0.5 -42v-33t-1 -26q-18 -5 -50 -5q-18 0 -39.5 1.5t-29.5 3.5q2 14 2 35.5v46.5 v22.5v28t-0.5 27.5t-0.5 21q-22 11 -51.5 19.5t-67.5 8.5q-124 0 -186 -85.5t-62 -247.5q0 -98 21 -163t55.5 -104t80 -55.5t93.5 -16.5q37 0 65 5t53 16v14t0.5 20.5t0.5 20v14.5v30.5t-0.5 32t-1 29t-0.5 21.5q8 2 29 3.5t38 1.5q34 0 52 -5q0 -14 -0.5 -36t-0.5 -45 v-71.5t-1 -57.5q-12 2 -29.5 4.5t-33.5 1.5zM370 762l121 185l72 -71l-182 -124z" />
<glyph unicode="&#x10c;" horiz-adv-x="717" d="M604 13q-32 -8 -82 -15t-104 -7q-191 0 -288 89.5t-97 259.5q0 85 26.5 153.5t77 116.5t123.5 74t165 26q57 0 106.5 -10.5t74.5 -17.5q17 0 32.5 3t26.5 5q1 -12 1.5 -30.5t1 -39t1 -42.5t0.5 -42v-33t-1 -26q-18 -5 -50 -5q-18 0 -39.5 1.5t-29.5 3.5q2 14 2 35.5v46.5 v22.5v28t-0.5 27.5t-0.5 21q-22 11 -51.5 19.5t-67.5 8.5q-124 0 -186 -85.5t-62 -247.5q0 -98 21 -163t55.5 -104t80 -55.5t93.5 -16.5q37 0 65 5t53 16v14t0.5 20.5t0.5 20v14.5v30.5t-0.5 32t-1 29t-0.5 21.5q8 2 29 3.5t38 1.5q34 0 52 -5q0 -14 -0.5 -36t-0.5 -45 v-71.5t-1 -57.5q-12 2 -29.5 4.5t-33.5 1.5zM257 869l52 61l134 -97l121 95l12 -13l-162 -166z" />
<glyph unicode="&#x10e;" horiz-adv-x="794" d="M204 869l52 61l134 -97l121 95l12 -13l-162 -166zM353 700q406 0 406 -345q0 -83 -23.5 -149t-74 -111.5t-129.5 -70t-189 -24.5h-318v19l84 4v653l-84 5v19h328zM330 24q83 0 137 20t85.5 60.5t44 101.5t12.5 143q0 93 -18.5 155.5t-53.5 101t-86.5 54.5t-117.5 16h-82 v-652h79z" />
<glyph unicode="&#xc9;" horiz-adv-x="626" d="M251 24h227q0 9 0.5 24t1 30.5t0.5 30.5v26q0 22 -0.5 41t-1.5 32q8 2 28 3.5t37 1.5q33 0 51 -5q0 -10 0.5 -23t0.5 -28q0 -20 -0.5 -43t-1.5 -45t-1.5 -41.5t-1.5 -32.5q-11 3 -23.5 4t-29.5 1h-512v19l84 4v653l-84 5v19h500q23 0 43 5q2 -22 2.5 -56.5t0.5 -68.5 v-39.5t-1 -32.5q-18 -5 -50 -5q-18 0 -37.5 1.5t-27.5 3.5q2 17 2 41v50v77h-206v-306h110l49 99h19v-233h-19l-50 108h-109v-320zM285 760l121 185l72 -71l-182 -124z" />
<glyph unicode="&#x11a;" horiz-adv-x="626" d="M251 24h227q0 9 0.5 24t1 30.5t0.5 30.5v26q0 22 -0.5 41t-1.5 32q8 2 28 3.5t37 1.5q33 0 51 -5q0 -10 0.5 -23t0.5 -28q0 -20 -0.5 -43t-1.5 -45t-1.5 -41.5t-1.5 -32.5q-11 3 -23.5 4t-29.5 1h-512v19l84 4v653l-84 5v19h500q23 0 43 5q2 -22 2.5 -56.5t0.5 -68.5 v-39.5t-1 -32.5q-18 -5 -50 -5q-18 0 -37.5 1.5t-27.5 3.5q2 17 2 41v50v77h-206v-306h110l49 99h19v-233h-19l-50 108h-109v-320zM190 869l52 61l134 -97l121 95l12 -13l-162 -166z" />
<glyph unicode="&#x118;" horiz-adv-x="626" d="M251 24h227q0 9 0.5 24t1 30.5t0.5 30.5v26q0 22 -0.5 41t-1.5 32q8 2 28 3.5t37 1.5q33 0 51 -5q0 -10 0.5 -23t0.5 -28q0 -20 -0.5 -43t-1.5 -45t-1.5 -41.5t-1.5 -32.5q-11 3 -22.5 4t-26.5 1q-15 -13 -25.5 -29.5t-16.5 -33.5t-8.5 -33.5t-2.5 -29.5q0 -15 3.5 -29 t10 -25t17.5 -17.5t26 -6.5q33 0 67 17l3 -13q-24 -16 -53 -25.5t-60 -9.5q-51 0 -77.5 24t-26.5 64q0 22 9 42.5t24.5 39.5t36 35.5t42.5 29.5h-485v19l84 4v653l-84 5v19h500q23 0 43 5q2 -22 2.5 -56.5t0.5 -68.5v-39.5t-1 -32.5q-18 -5 -50 -5q-18 0 -37.5 1.5 t-27.5 3.5q2 17 2 41v50v77h-206v-306h110l49 99h19v-233h-19l-50 108h-109v-320z" />
<glyph unicode="&#xcd;" horiz-adv-x="360" d="M251 676v-653l82 -4v-19h-308v19l84 4v653l-84 5v19h308v-19zM131 762l121 185l72 -71l-182 -124z" />
<glyph unicode="&#x139;" horiz-adv-x="602" d="M251 676v-652h217q0 10 0.5 24.5t0.5 30v30.5v26v46t-1 37q4 1 12.5 2t18.5 1.5t21 1t20 0.5q32 0 50 -5v-54q0 -21 -0.5 -44.5l-1 -47t-1 -44t-0.5 -33.5q-12 3 -24.5 4t-28.5 1h-509v19l84 4v653l-84 5v19h308v-19zM144 755l121 185l72 -71l-182 -124z" />
<glyph unicode="&#x13d;" horiz-adv-x="602" d="M251 676v-652h217q0 10 0.5 24.5t0.5 30v30.5v26v46t-1 37q4 1 12.5 2t18.5 1.5t21 1t20 0.5q32 0 50 -5v-54q0 -21 -0.5 -44.5l-1 -47t-1 -44t-0.5 -33.5q-12 3 -24.5 4t-28.5 1h-509v19l84 4v653l-84 5v19h308v-19zM412 713h95l-72 -217h-23v217z" />
<glyph unicode="&#x141;" horiz-adv-x="602" d="M251 676v-300l114 67l13 -20l-127 -74v-325h217q0 10 0.5 24.5t0.5 30v30.5v26v46t-1 37q4 1 12.5 2t18.5 1.5t21 1t20 0.5q32 0 50 -5v-54q0 -21 -0.5 -44.5l-1 -47t-1 -44t-0.5 -33.5q-12 3 -24.5 4t-28.5 1h-509v19l84 4v244l-81 -47l-13 19l94 55v382l-84 5v19h308 v-19z" />
<glyph unicode="&#x143;" horiz-adv-x="772" d="M348 762l121 185l72 -71l-182 -124zM667 640l-3 -646l-38 -4q-12 -2 -20.5 -3.5t-19.5 -5.5l-446 558l1 -478l124 -42v-19h-241v19l87 41l4 596l-84 24v20h163l446 -553l-3 492l-129 42v19h243v-19z" />
<glyph unicode="&#x147;" horiz-adv-x="772" d="M246 867l52 61l134 -97l121 95l12 -13l-162 -166zM667 640l-3 -646l-38 -4q-12 -2 -20.5 -3.5t-19.5 -5.5l-446 558l1 -478l124 -42v-19h-241v19l87 41l4 596l-84 24v20h163l446 -553l-3 492l-129 42v19h243v-19z" />
<glyph unicode="&#xd6;" horiz-adv-x="789" d="M228 841q0 26 18.5 44.5t47.5 18.5q26 0 45.5 -17.5t19.5 -45.5t-19 -45.5t-46 -17.5q-29 0 -47.5 17.5t-18.5 45.5zM425 841q0 26 18 44.5t47 18.5q26 0 45.5 -17.5t19.5 -45.5t-19 -45.5t-46 -17.5q-29 0 -47 17.5t-18 45.5zM397 710q75 0 140 -22t114 -65.5t77 -107.5 t28 -148q0 -90 -25.5 -160.5t-73 -118.5t-113.5 -73t-147 -25q-68 0 -133 18t-116 59.5t-82.5 108.5t-31.5 165q0 85 28 153t77 116t115 74t143 26zM401 14q49 0 87 19t64 60.5t39.5 107t13.5 159.5q0 90 -14 152t-41 100.5t-66.5 55.5t-89.5 17q-48 0 -86.5 -15.5 t-66.5 -53.5t-43 -102.5t-15 -161.5q0 -167 53 -252.5t165 -85.5z" />
<glyph unicode="&#xd3;" horiz-adv-x="789" d="M345 761l121 185l72 -71l-182 -124zM397 710q75 0 140 -22t114 -65.5t77 -107.5t28 -148q0 -90 -25.5 -160.5t-73 -118.5t-113.5 -73t-147 -25q-68 0 -133 18t-116 59.5t-82.5 108.5t-31.5 165q0 85 28 153t77 116t115 74t143 26zM401 14q49 0 87 19t64 60.5t39.5 107 t13.5 159.5q0 90 -14 152t-41 100.5t-66.5 55.5t-89.5 17q-48 0 -86.5 -15.5t-66.5 -53.5t-43 -102.5t-15 -161.5q0 -167 53 -252.5t165 -85.5z" />
<glyph unicode="&#xd4;" horiz-adv-x="789" d="M397 710q75 0 140 -22t114 -65.5t77 -107.5t28 -148q0 -90 -25.5 -160.5t-73 -118.5t-113.5 -73t-147 -25q-68 0 -133 18t-116 59.5t-82.5 108.5t-31.5 165q0 85 28 153t77 116t115 74t143 26zM401 14q49 0 87 19t64 60.5t39.5 107t13.5 159.5q0 90 -14 152t-41 100.5 t-66.5 55.5t-89.5 17q-48 0 -86.5 -15.5t-66.5 -53.5t-43 -102.5t-15 -161.5q0 -167 53 -252.5t165 -85.5zM559 808l-52 -61l-135 97l-121 -95l-11 13l162 166z" />
<glyph unicode="&#x150;" horiz-adv-x="789" d="M397 710q75 0 140 -22t114 -65.5t77 -107.5t28 -148q0 -90 -25.5 -160.5t-73 -118.5t-113.5 -73t-147 -25q-68 0 -133 18t-116 59.5t-82.5 108.5t-31.5 165q0 85 28 153t77 116t115 74t143 26zM401 14q49 0 87 19t64 60.5t39.5 107t13.5 159.5q0 90 -14 152t-41 100.5 t-66.5 55.5t-89.5 17q-48 0 -86.5 -15.5t-66.5 -53.5t-43 -102.5t-15 -161.5q0 -167 53 -252.5t165 -85.5zM256 764l150 192l69 -73l-208 -132zM454 763l146 163l63 -82l-200 -93z" />
<glyph unicode="&#x154;" horiz-adv-x="662" d="M250 314v-290l83 -5v-19h-308v19l84 4v653l-84 5v19h327q51 0 94.5 -12t74.5 -35t48.5 -58.5t17.5 -81.5q0 -85 -55.5 -134t-158.5 -60q51 -6 84.5 -31.5t56 -60t38 -73t31.5 -71t35 -53.5t50 -21q17 0 32 6v-18q-14 -8 -42 -13t-56 -5q-71 0 -115.5 30.5t-72 79 t-45 108.5t-34.5 118q-9 -1 -15.5 -1h-16.5h-53zM250 676v-338h62q32 0 55.5 13t39 35t23 52t7.5 63q0 38 -7.5 70t-24 55.5t-42.5 36.5t-63 13h-50zM260 762l121 185l72 -71l-182 -124z" />
<glyph unicode="&#x158;" horiz-adv-x="662" d="M162 868l52 61l134 -97l121 95l12 -13l-162 -166zM250 314v-290l83 -5v-19h-308v19l84 4v653l-84 5v19h327q51 0 94.5 -12t74.5 -35t48.5 -58.5t17.5 -81.5q0 -85 -55.5 -134t-158.5 -60q51 -6 84.5 -31.5t56 -60t38 -73t31.5 -71t35 -53.5t50 -21q17 0 32 6v-18 q-14 -8 -42 -13t-56 -5q-71 0 -115.5 30.5t-72 79t-45 108.5t-34.5 118q-9 -1 -15.5 -1h-16.5h-53zM250 676v-338h62q32 0 55.5 13t39 35t23 52t7.5 63q0 38 -7.5 70t-24 55.5t-42.5 36.5t-63 13h-50z" />
<glyph unicode="&#x15a;" horiz-adv-x="548" d="M255 14q27 0 51 6t41.5 19.5t27.5 35.5t10 53q0 25 -8 47.5t-25.5 44t-46 43t-69.5 45.5q-47 27 -82.5 50.5t-59.5 48.5t-36.5 54.5t-12.5 68.5t17.5 72t49 57t75.5 37.5t98 13.5q35 0 65 -4.5t59 -14.5q20 2 42 5t34 6q1 -12 1.5 -30t1 -38.5t0.5 -42.5v-42v-38t-1 -30 q-18 -5 -50 -5q-18 0 -36.5 1.5t-26.5 3.5q2 15 2 41.5v55.5v90q-22 10 -43 14t-49 4q-62 0 -95 -27t-33 -72q0 -24 11.5 -44.5t33 -40t51.5 -39.5t67 -42q53 -32 90 -58.5t59.5 -52.5t32.5 -55.5t10 -68.5q0 -46 -19 -82t-53.5 -61.5t-83.5 -39t-109 -13.5q-40 0 -69 6 t-62 9q-17 -1 -35.5 -4.5t-28.5 -5.5q-1 12 -1.5 31.5t-1 42t-1 46.5t-0.5 45v34t1 26q18 5 50 5q18 0 36.5 -1.5t26.5 -3.5q-1 -14 -1.5 -38t-0.5 -50v-24v-29t0.5 -28.5t0.5 -21.5q19 -8 41.5 -11.5t53.5 -3.5zM230 762l121 185l72 -71l-182 -124z" />
<glyph unicode="&#x160;" horiz-adv-x="548" d="M255 14q27 0 51 6t41.5 19.5t27.5 35.5t10 53q0 25 -8 47.5t-25.5 44t-46 43t-69.5 45.5q-47 27 -82.5 50.5t-59.5 48.5t-36.5 54.5t-12.5 68.5t17.5 72t49 57t75.5 37.5t98 13.5q35 0 65 -4.5t59 -14.5q20 2 42 5t34 6q1 -12 1.5 -30t1 -38.5t0.5 -42.5v-42v-38t-1 -30 q-18 -5 -50 -5q-18 0 -36.5 1.5t-26.5 3.5q2 15 2 41.5v55.5v90q-22 10 -43 14t-49 4q-62 0 -95 -27t-33 -72q0 -24 11.5 -44.5t33 -40t51.5 -39.5t67 -42q53 -32 90 -58.5t59.5 -52.5t32.5 -55.5t10 -68.5q0 -46 -19 -82t-53.5 -61.5t-83.5 -39t-109 -13.5q-40 0 -69 6 t-62 9q-17 -1 -35.5 -4.5t-28.5 -5.5q-1 12 -1.5 31.5t-1 42t-1 46.5t-0.5 45v34t1 26q18 5 50 5q18 0 36.5 -1.5t26.5 -3.5q-1 -14 -1.5 -38t-0.5 -50v-24v-29t0.5 -28.5t0.5 -21.5q19 -8 41.5 -11.5t53.5 -3.5zM119 867l52 61l134 -97l121 95l12 -13l-162 -166z" />
<glyph unicode="&#x164;" horiz-adv-x="634" d="M158 868l52 61l134 -97l121 95l12 -13l-162 -166zM571 700q24 0 44 5q1 -12 1.5 -29t1 -37.5t0.5 -42v-41.5v-41t-1 -31q-8 -2 -26 -3.5t-33 -1.5q-18 0 -34.5 1.5t-24.5 3.5q1 15 1.5 41.5t0.5 55.5v23v26.5t-0.5 26t-0.5 20.5h-111v-652l108 -5v-19h-359v19l109 5v653 h-115v-17t-0.5 -23t-0.5 -24v-21q0 -32 1 -62t3 -47q-8 -2 -25 -3.5t-34 -1.5q-15 0 -33 1.5t-26 3.5q-1 14 -1 35v45q0 39 0.5 79.5t2.5 62.5q12 -3 31.5 -4t37.5 -1h483z" />
<glyph unicode="&#xda;" horiz-adv-x="751" d="M352 761l121 185l72 -71l-182 -124zM654 642l3 -396q0 -74 -23.5 -123t-61 -78.5t-84.5 -42t-95 -12.5q-25 0 -57 2t-65.5 10t-65.5 23.5t-57.5 42t-41 66t-15.5 95.5v447l-75 5v19h302v-19l-85 -5v-406q0 -67 9 -114.5t30 -77.5t56 -44t86 -14q104 0 160 61t54 179 l-5 381l-134 40v19h255v-19z" />
<glyph unicode="&#xdc;" horiz-adv-x="751" d="M241 842q0 25 18.5 43.5t47.5 18.5q26 0 45.5 -17.5t19.5 -44.5q0 -28 -19 -45.5t-46 -17.5q-29 0 -47.5 17.5t-18.5 45.5zM437 842q0 25 18 43.5t47 18.5q26 0 45.5 -17.5t19.5 -44.5q0 -28 -19 -45.5t-46 -17.5q-29 0 -47 17.5t-18 45.5zM654 642l3 -396 q0 -74 -23.5 -123t-61 -78.5t-84.5 -42t-95 -12.5q-25 0 -57 2t-65.5 10t-65.5 23.5t-57.5 42t-41 66t-15.5 95.5v447l-75 5v19h302v-19l-85 -5v-406q0 -67 9 -114.5t30 -77.5t56 -44t86 -14q104 0 160 61t54 179l-5 381l-134 40v19h255v-19z" />
<glyph unicode="&#x170;" horiz-adv-x="751" d="M654 642l3 -396q0 -74 -23.5 -123t-61 -78.5t-84.5 -42t-95 -12.5q-25 0 -57 2t-65.5 10t-65.5 23.5t-57.5 42t-41 66t-15.5 95.5v447l-75 5v19h302v-19l-85 -5v-406q0 -67 9 -114.5t30 -77.5t56 -44t86 -14q104 0 160 61t54 179l-5 381l-134 40v19h255v-19zM260 764 l150 192l69 -73l-208 -132zM458 763l146 163l63 -82l-200 -93z" />
<glyph unicode="&#x16e;" horiz-adv-x="751" d="M654 642l3 -396q0 -74 -23.5 -123t-61 -78.5t-84.5 -42t-95 -12.5q-25 0 -57 2t-65.5 10t-65.5 23.5t-57.5 42t-41 66t-15.5 95.5v447l-75 5v19h302v-19l-85 -5v-406q0 -67 9 -114.5t30 -77.5t56 -44t86 -14q104 0 160 61t54 179l-5 381l-134 40v19h255v-19zM395 752 q-47 0 -79 28t-32 76q0 23 9 42t24 33t35 21.5t43 7.5q46 0 78 -28.5t32 -75.5q0 -23 -9 -42t-24 -33t-35 -21.5t-42 -7.5zM395 779q35 0 53.5 22t18.5 55q0 38 -21.5 57t-50.5 19q-30 0 -52.5 -18t-22.5 -58q0 -38 21.5 -57.5t53.5 -19.5z" />
<glyph unicode="&#xdd;" horiz-adv-x="592" d="M541 640l-172 -334v-282l107 -5v-19h-353v19l105 5v266l-202 387l-57 4v19h300v-19l-87 -5l176 -334l152 298l-119 41v19h230v-19zM273 762l121 185l72 -71l-182 -124z" />
<glyph unicode="&#x179;" horiz-adv-x="608" d="M557 700q2 -13 5 -25t8 -24l-413 -627h297v19.5t0.5 26t0.5 26v20.5q0 28 -0.5 52.5t-1.5 39.5q8 2 29 3.5t39 1.5q32 0 50 -5q1 -12 1 -30.5v-39.5v-40.5t-0.5 -40t-1 -36t-1.5 -28.5q-12 3 -27.5 4.5t-32.5 2.5h-476q-2 14 -4.5 26.5t-7.5 24.5l409 625h-266 q0 -8 -0.5 -19.5t-0.5 -24.5v-25.5v-20.5q0 -26 0.5 -49t2.5 -38q-8 -2 -29.5 -3.5t-38.5 -1.5q-33 0 -51 5q-1 14 -1 33.5v42.5q0 35 0.5 72.5t2.5 59.5q13 -3 30 -5t36 -2h442zM270 762l121 185l72 -71l-182 -124z" />
<glyph unicode="&#x17d;" horiz-adv-x="608" d="M167 869l52 61l134 -97l121 95l12 -13l-162 -166zM557 700q2 -13 5 -25t8 -24l-413 -627h297v19.5t0.5 26t0.5 26v20.5q0 28 -0.5 52.5t-1.5 39.5q8 2 29 3.5t39 1.5q32 0 50 -5q1 -12 1 -30.5v-39.5v-40.5t-0.5 -40t-1 -36t-1.5 -28.5q-12 3 -27.5 4.5t-32.5 2.5h-476 q-2 14 -4.5 26.5t-7.5 24.5l409 625h-266q0 -8 -0.5 -19.5t-0.5 -24.5v-25.5v-20.5q0 -26 0.5 -49t2.5 -38q-8 -2 -29.5 -3.5t-38.5 -1.5q-33 0 -51 5q-1 14 -1 33.5v42.5q0 35 0.5 72.5t2.5 59.5q13 -3 30 -5t36 -2h442z" />
<glyph unicode="&#x17b;" horiz-adv-x="608" d="M250 843q0 26 19 45.5t50 19.5q27 0 48 -18t21 -47q0 -30 -20 -49t-49 -19q-31 0 -50 19.5t-19 48.5zM557 700q2 -13 5 -25t8 -24l-413 -627h297v19.5t0.5 26t0.5 26v20.5q0 28 -0.5 52.5t-1.5 39.5q8 2 29 3.5t39 1.5q32 0 50 -5q1 -12 1 -30.5v-39.5v-40.5t-0.5 -40 t-1 -36t-1.5 -28.5q-12 3 -27.5 4.5t-32.5 2.5h-476q-2 14 -4.5 26.5t-7.5 24.5l409 625h-266q0 -8 -0.5 -19.5t-0.5 -24.5v-25.5v-20.5q0 -26 0.5 -49t2.5 -38q-8 -2 -29.5 -3.5t-38.5 -1.5q-33 0 -51 5q-1 14 -1 33.5v42.5q0 35 0.5 72.5t2.5 59.5q13 -3 30 -5t36 -2h442z " />
<glyph unicode="&#xe1;" horiz-adv-x="535" d="M540 54q-42 -64 -123 -64q-19 0 -37 4.5t-31.5 15t-22.5 27.5t-10 43q-7 -17 -19.5 -33t-30.5 -29t-42 -20.5t-53 -7.5q-36 0 -62 10t-43 27t-25 39.5t-8 47.5q0 40 20 67.5t51.5 44t71 24t78.5 7.5q16 0 30 -1t28 -3l1 115q0 40 -3 67.5t-11.5 43.5t-23 23t-37.5 7 q-46 0 -76 -16q0 -6 -0.5 -17t-0.5 -22.5v-22.5v-17q0 -23 0.5 -47t2.5 -42q-8 -2 -24.5 -3.5t-32.5 -1.5q-14 0 -27 1.5t-21 3.5q-1 19 -1.5 46.5t-0.5 54.5q0 22 0.5 42t1.5 37q18 -2 42.5 0.5t47.5 8.5q26 7 58 11t64 4q48 0 81.5 -11t55.5 -30t32 -45t10 -57 q0 -7 -0.5 -25.5t-1 -43t-1 -52.5t-1 -52.5t-0.5 -43v-25.5v-54q1 -25 9 -40t25 -15q11 0 23.5 7t24.5 22zM241 46q24 0 42.5 16t29.5 39l-1 133q-18 3 -35 3q-54 0 -79 -27.5t-25 -72.5q0 -48 18 -69.5t50 -21.5zM218 608l120 212l72 -68l-182 -153z" />
<glyph unicode="&#xe4;" horiz-adv-x="535" d="M540 54q-42 -64 -123 -64q-19 0 -37 4.5t-31.5 15t-22.5 27.5t-10 43q-7 -17 -19.5 -33t-30.5 -29t-42 -20.5t-53 -7.5q-36 0 -62 10t-43 27t-25 39.5t-8 47.5q0 40 20 67.5t51.5 44t71 24t78.5 7.5q16 0 30 -1t28 -3l1 115q0 40 -3 67.5t-11.5 43.5t-23 23t-37.5 7 q-46 0 -76 -16q0 -6 -0.5 -17t-0.5 -22.5v-22.5v-17q0 -23 0.5 -47t2.5 -42q-8 -2 -24.5 -3.5t-32.5 -1.5q-14 0 -27 1.5t-21 3.5q-1 19 -1.5 46.5t-0.5 54.5q0 22 0.5 42t1.5 37q18 -2 42.5 0.5t47.5 8.5q26 7 58 11t64 4q48 0 81.5 -11t55.5 -30t32 -45t10 -57 q0 -7 -0.5 -25.5t-1 -43t-1 -52.5t-1 -52.5t-0.5 -43v-25.5v-54q1 -25 9 -40t25 -15q11 0 23.5 7t24.5 22zM241 46q24 0 42.5 16t29.5 39l-1 133q-18 3 -35 3q-54 0 -79 -27.5t-25 -72.5q0 -48 18 -69.5t50 -21.5zM95 696q0 25 18.5 43.5t47.5 18.5q26 0 45.5 -17.5 t19.5 -44.5q0 -28 -19 -46t-46 -18q-29 0 -47.5 18t-18.5 46zM292 696q0 25 18 43.5t47 18.5q26 0 45.5 -17.5t19.5 -44.5q0 -28 -19 -46t-46 -18q-29 0 -47 18t-18 46z" />
<glyph unicode="&#x105;" horiz-adv-x="535" d="M547 -192q-24 -16 -53 -25.5t-60 -9.5q-51 0 -77.5 24t-26.5 64q0 37 25 70t60 59q-19 0 -36.5 4.5t-31 15t-22 27.5t-9.5 43q-7 -17 -19.5 -33t-30.5 -29t-42 -20.5t-53 -7.5q-36 0 -62 10t-43 27t-25 39.5t-8 47.5q0 40 20 67.5t51.5 44t71 24t78.5 7.5q16 0 30 -1 t28 -3l1 115q0 40 -3 67.5t-11.5 43.5t-23 23t-37.5 7q-46 0 -76 -16q0 -6 -0.5 -17t-0.5 -22.5v-22.5v-17q0 -23 0.5 -47t2.5 -42q-8 -2 -24.5 -3.5t-32.5 -1.5q-14 0 -27 1.5t-21 3.5q-1 19 -1.5 46.5t-0.5 54.5q0 22 0.5 42t1.5 37q18 -2 42.5 0.5t47.5 8.5q26 7 58 11 t64 4q48 0 81.5 -11t55.5 -30t32 -45t10 -57q0 -7 -0.5 -25.5t-1 -43t-1 -52.5t-1 -52.5t-0.5 -43v-25.5v-54q1 -25 9 -40t25 -15q11 0 23.5 7t24.5 22l12 -10q-29 -45 -80 -59q-23 -26 -31.5 -57.5t-8.5 -55.5q0 -15 3.5 -29t10 -25t17.5 -17.5t26 -6.5q33 0 67 17zM241 46 q24 0 42.5 16t29.5 39l-1 133q-18 3 -35 3q-54 0 -79 -27.5t-25 -72.5q0 -48 18 -69.5t50 -21.5z" />
<glyph unicode="&#x107;" horiz-adv-x="510" d="M232 610l120 212l72 -68l-182 -153zM291 529q29 0 46 -2.5t40 -7.5q14 -2 27.5 -4t27.5 -2h16t18 1q1 -20 1.5 -49.5t0.5 -58.5v-41.5t-1 -33.5q-18 -5 -46 -5q-16 0 -34.5 1.5t-26.5 3.5q3 33 3 79v19.5v25t-0.5 24.5t-0.5 20q-17 5 -32 8t-34 3q-65 0 -91.5 -59 t-26.5 -188q0 -62 10 -107t29 -73.5t45 -42t58 -13.5q43 0 77 14.5t71 42.5l10 -12q-35 -32 -84.5 -57t-113.5 -25q-47 0 -91 14.5t-78.5 46t-55.5 80.5t-21 117q0 72 20 125t55 87.5t82 51.5t100 17z" />
<glyph unicode="&#x10d;" horiz-adv-x="510" d="M124 741l56 56l126 -121l130 118l12 -14l-164 -184zM291 529q29 0 46 -2.5t40 -7.5q14 -2 27.5 -4t27.5 -2h16t18 1q1 -20 1.5 -49.5t0.5 -58.5v-41.5t-1 -33.5q-18 -5 -46 -5q-16 0 -34.5 1.5t-26.5 3.5q3 33 3 79v19.5v25t-0.5 24.5t-0.5 20q-17 5 -32 8t-34 3 q-65 0 -91.5 -59t-26.5 -188q0 -62 10 -107t29 -73.5t45 -42t58 -13.5q43 0 77 14.5t71 42.5l10 -12q-35 -32 -84.5 -57t-113.5 -25q-47 0 -91 14.5t-78.5 46t-55.5 80.5t-21 117q0 72 20 125t55 87.5t82 51.5t100 17z" />
<glyph unicode="&#x10f;" horiz-adv-x="613" d="M580 771h95l-72 -217h-23v217zM282 723v19l243 28l-2 -218v-520l78 -7v-18l-211 -16l-3 79q-28 -34 -68 -57t-89 -23q-98 0 -146 69.5t-48 193.5q0 72 20 124.5t54 86t79.5 49.5t97.5 16q55 0 99 -19l-2 97v112zM300 510q-63 0 -91.5 -66.5t-28.5 -181.5 q0 -123 24.5 -179t77.5 -56q28 0 53.5 17t48.5 46v399q-23 12 -42 16.5t-42 4.5z" />
<glyph unicode="&#xe9;" horiz-adv-x="533" d="M177 279v-9q0 -125 34.5 -183.5t115.5 -58.5q42 0 80.5 16t73.5 45l10 -12q-33 -35 -82 -61t-120 -26q-47 0 -93 14.5t-82 45.5t-58.5 80.5t-22.5 120.5q0 68 21 120t56 87t80 53t92 18q62 0 104.5 -20.5t68 -53.5t36.5 -75t11 -85v-16h-325zM278 510q-24 0 -42 -10.5 t-31 -35t-20 -64.5t-8 -98h191v32q0 40 -3.5 72.5t-13.5 55.5t-27.5 35.5t-45.5 12.5zM247 608l120 212l72 -68l-182 -153z" />
<glyph unicode="&#x11b;" horiz-adv-x="533" d="M177 279v-9q0 -125 34.5 -183.5t115.5 -58.5q42 0 80.5 16t73.5 45l10 -12q-33 -35 -82 -61t-120 -26q-47 0 -93 14.5t-82 45.5t-58.5 80.5t-22.5 120.5q0 68 21 120t56 87t80 53t92 18q62 0 104.5 -20.5t68 -53.5t36.5 -75t11 -85v-16h-325zM278 510q-24 0 -42 -10.5 t-31 -35t-20 -64.5t-8 -98h191v32q0 40 -3.5 72.5t-13.5 55.5t-27.5 35.5t-45.5 12.5zM118 750l56 56l126 -121l130 118l12 -14l-164 -184z" />
<glyph unicode="&#x119;" horiz-adv-x="534" d="M464 -189q-24 -16 -53 -25.5t-60 -9.5q-51 0 -77.5 24t-26.5 64q0 37 25 70t60 59q-20 -3 -43 -3q-47 0 -93 14.5t-82 45.5t-58.5 80.5t-22.5 120.5q0 68 21 120t56 87t80 53t92 18q62 0 104.5 -20.5t68 -53.5t36.5 -75t11 -85v-16h-325v-9q0 -125 34.5 -183.5 t115.5 -58.5q42 0 80.5 16t73.5 45l10 -12q-20 -21 -46 -40t-60 -31q-28 -26 -38 -60.5t-10 -60.5q0 -15 3.5 -29t10 -25t17.5 -17.5t26 -6.5q33 0 67 17zM278 510q-24 0 -42 -10.5t-31 -35t-20 -64.5t-8 -98h191v32q0 40 -3.5 72.5t-13.5 55.5t-27.5 35.5t-45.5 12.5z" />
<glyph unicode="&#xed;" horiz-adv-x="325" d="M97 605l120 212l72 -68l-182 -153zM15 478v19l219 28v-504l80 -4v-17h-289v17l70 4v452z" />
<glyph unicode="&#x13a;" horiz-adv-x="317" d="M80 798l121 185l72 -71l-182 -124zM7 723v18l220 29l-1 -234v-515l80 -4v-17h-288v17l70 4v697z" />
<glyph unicode="&#x13e;" horiz-adv-x="317" d="M272 766h95l-72 -217h-23v217zM7 723v18l220 29l-1 -234v-515l80 -4v-17h-288v17l70 4v697z" />
<glyph unicode="&#x142;" horiz-adv-x="320" d="M8 723v18l220 29l-1 -234v-135l78 52l11 -17l-89 -59v-356l80 -4v-17h-288v17l70 4v264l-72 -47l-12 16l84 55v409z" />
<glyph unicode="&#x144;" d="M296 608l120 212l72 -68l-182 -153zM15 476v19l216 29v-111q36 49 85.5 82.5t112.5 33.5q73 0 107.5 -43.5t34.5 -124.5v-82t-0.5 -87t-1.5 -87.5t-2 -82.5l84 -5v-17h-289v17l66 4q1 35 2 75.5t2 81.5t1 80.5v72.5q0 83 -13 118t-52 35q-35 0 -70.5 -27.5t-63.5 -64.5 v-371l80 -4v-17h-289v17l70 4v450z" />
<glyph unicode="&#x148;" d="M173 750l56 56l126 -121l130 118l12 -14l-164 -184zM15 476v19l216 29v-111q36 49 85.5 82.5t112.5 33.5q73 0 107.5 -43.5t34.5 -124.5v-82t-0.5 -87t-1.5 -87.5t-2 -82.5l84 -5v-17h-289v17l66 4q1 35 2 75.5t2 81.5t1 80.5v72.5q0 83 -13 118t-52 35 q-35 0 -70.5 -27.5t-63.5 -64.5v-371l80 -4v-17h-289v17l70 4v450z" />
<glyph unicode="&#xf3;" horiz-adv-x="583" d="M249 608l120 212l72 -68l-182 -153zM284 -10q-54 0 -100 16t-79 48t-52 81t-19 114q0 66 19.5 118t54.5 88t82.5 55t104.5 19q51 0 97.5 -15t81 -46.5t55 -81t20.5 -117.5q0 -63 -17 -114.5t-50.5 -88t-83 -56.5t-114.5 -20zM288 8q32 0 54 14.5t36 45.5t20 79.5t6 116.5 q0 72 -6.5 119t-20 75.5t-34.5 40t-51 11.5q-29 0 -50.5 -12t-36 -41t-22 -77t-7.5 -120t6.5 -120.5t20.5 -77.5t35 -41.5t50 -12.5z" />
<glyph unicode="&#xf4;" horiz-adv-x="583" d="M462 664l-53 -59l-126 129l-130 -128l-11 11l158 193zM284 -10q-54 0 -100 16t-79 48t-52 81t-19 114q0 66 19.5 118t54.5 88t82.5 55t104.5 19q51 0 97.5 -15t81 -46.5t55 -81t20.5 -117.5q0 -63 -17 -114.5t-50.5 -88t-83 -56.5t-114.5 -20zM288 8q32 0 54 14.5 t36 45.5t20 79.5t6 116.5q0 72 -6.5 119t-20 75.5t-34.5 40t-51 11.5q-29 0 -50.5 -12t-36 -41t-22 -77t-7.5 -120t6.5 -120.5t20.5 -77.5t35 -41.5t50 -12.5z" />
<glyph unicode="&#xf6;" horiz-adv-x="583" d="M129 696q0 25 18.5 43.5t47.5 18.5q26 0 45.5 -17.5t19.5 -44.5q0 -28 -19 -46t-46 -18q-29 0 -47.5 18t-18.5 46zM326 696q0 25 18 43.5t47 18.5q26 0 45.5 -17.5t19.5 -44.5q0 -28 -19 -46t-46 -18q-29 0 -47 18t-18 46zM284 -10q-54 0 -100 16t-79 48t-52 81t-19 114 q0 66 19.5 118t54.5 88t82.5 55t104.5 19q51 0 97.5 -15t81 -46.5t55 -81t20.5 -117.5q0 -63 -17 -114.5t-50.5 -88t-83 -56.5t-114.5 -20zM288 8q32 0 54 14.5t36 45.5t20 79.5t6 116.5q0 72 -6.5 119t-20 75.5t-34.5 40t-51 11.5q-29 0 -50.5 -12t-36 -41t-22 -77 t-7.5 -120t6.5 -120.5t20.5 -77.5t35 -41.5t50 -12.5z" />
<glyph unicode="&#x151;" horiz-adv-x="583" d="M130 610l120 212l73 -68l-182 -153zM333 611l120 211l73 -68l-182 -153zM284 -10q-54 0 -100 16t-79 48t-52 81t-19 114q0 66 19.5 118t54.5 88t82.5 55t104.5 19q51 0 97.5 -15t81 -46.5t55 -81t20.5 -117.5q0 -63 -17 -114.5t-50.5 -88t-83 -56.5t-114.5 -20zM288 8 q32 0 54 14.5t36 45.5t20 79.5t6 116.5q0 72 -6.5 119t-20 75.5t-34.5 40t-51 11.5q-29 0 -50.5 -12t-36 -41t-22 -77t-7.5 -120t6.5 -120.5t20.5 -77.5t35 -41.5t50 -12.5z" />
<glyph unicode="&#x155;" horiz-adv-x="470" d="M322 484q-13 -1 -25 -8t-23 -18t-21 -24.5t-19 -28.5v-383l96 -5v-17h-305v17l70 4v450l-80 5v19l216 29v-99q25 48 63 76t95 28q14 0 28 -1.5t29 -6.5q2 -20 2.5 -50.5t0.5 -60.5q0 -21 -0.5 -42.5t-1.5 -36.5q-18 -5 -45 -5q-8 0 -18.5 0.5l-21 1t-19.5 1.5t-13 2 q2 17 2.5 36t0.5 36v16.5v22.5t-0.5 23t-1.5 19h-9zM206 612l120 212l72 -68l-182 -153z" />
<glyph unicode="&#x159;" horiz-adv-x="470" d="M322 484q-13 -1 -25 -8t-23 -18t-21 -24.5t-19 -28.5v-383l96 -5v-17h-305v17l70 4v450l-80 5v19l216 29v-99q25 48 63 76t95 28q14 0 28 -1.5t29 -6.5q2 -20 2.5 -50.5t0.5 -60.5q0 -21 -0.5 -42.5t-1.5 -36.5q-18 -5 -45 -5q-8 0 -18.5 0.5l-21 1t-19.5 1.5t-13 2 q2 17 2.5 36t0.5 36v16.5v22.5t-0.5 23t-1.5 19h-9zM90 753l56 56l126 -121l130 118l12 -14l-164 -184z" />
<glyph unicode="&#x15b;" horiz-adv-x="473" d="M185 608l120 212l72 -68l-182 -153zM151 18q16 -5 36 -7.5t33 -2.5q58 0 84 22t26 57q0 24 -13 43.5t-35 36t-49.5 32t-57.5 31.5q-25 13 -49.5 28t-43.5 33t-31 40.5t-12 52.5q0 37 15.5 64.5t42.5 45.5t63 26.5t77 8.5q31 0 67.5 -4.5t65.5 -10.5q11 0 20.5 1t19.5 2 q2 -25 2 -44.5v-45.5q0 -13 0.5 -33t0.5 -31q-18 -5 -45 -5q-15 0 -31.5 1.5t-25.5 3.5q1 14 1.5 32.5t0.5 33.5v13.5t-0.5 20t-0.5 21v16.5q-17 5 -36.5 7.5t-33.5 2.5q-53 0 -74.5 -21.5t-21.5 -51.5q0 -21 14.5 -39t36 -34t45 -28.5t41.5 -22.5q33 -17 61 -33t49 -35.5 t33 -44.5t12 -61q0 -40 -16.5 -68t-45 -46t-67 -26.5t-83.5 -8.5q-40 0 -77 5t-60 10q-16 1 -37 -2q-1 22 -2 48t-1 52q-1 14 -1 34v30q18 5 46 5q15 0 31.5 -1.5t24.5 -3.5q-1 -13 -1 -33.5v-36.5q0 -17 0.5 -39t1.5 -40z" />
<glyph unicode="&#x161;" horiz-adv-x="473" d="M70 744l56 56l126 -121l130 118l12 -14l-164 -184zM151 18q16 -5 36 -7.5t33 -2.5q58 0 84 22t26 57q0 24 -13 43.5t-35 36t-49.5 32t-57.5 31.5q-25 13 -49.5 28t-43.5 33t-31 40.5t-12 52.5q0 37 15.5 64.5t42.5 45.5t63 26.5t77 8.5q31 0 67.5 -4.5t65.5 -10.5 q11 0 20.5 1t19.5 2q2 -25 2 -44.5v-45.5q0 -13 0.5 -33t0.5 -31q-18 -5 -45 -5q-15 0 -31.5 1.5t-25.5 3.5q1 14 1.5 32.5t0.5 33.5v13.5t-0.5 20t-0.5 21v16.5q-17 5 -36.5 7.5t-33.5 2.5q-53 0 -74.5 -21.5t-21.5 -51.5q0 -21 14.5 -39t36 -34t45 -28.5t41.5 -22.5 q33 -17 61 -33t49 -35.5t33 -44.5t12 -61q0 -40 -16.5 -68t-45 -46t-67 -26.5t-83.5 -8.5q-40 0 -77 5t-60 10q-16 1 -37 -2q-1 22 -2 48t-1 52q-1 14 -1 34v30q18 5 46 5q15 0 31.5 -1.5t24.5 -3.5q-1 -13 -1 -33.5v-36.5q0 -17 0.5 -39t1.5 -40z" />
<glyph unicode="&#xdf;" horiz-adv-x="725" d="M356 775q118 0 179.5 -37.5t61.5 -100.5q0 -31 -12.5 -51.5t-32 -35t-41.5 -25t-41.5 -21.5t-32 -25.5t-12.5 -35.5q0 -23 12.5 -42t32.5 -35t44.5 -29.5t48.5 -26.5q31 -17 58 -34t47.5 -37t32 -44.5t11.5 -55.5q0 -39 -16 -67.5t-45 -46.5t-70 -26.5t-91 -8.5 q-40 0 -71 5t-54 10q-17 1 -39 -2q-2 27 -3 61t-1 64v39q8 2 22.5 3.5t28.5 1.5q15 0 29 -1.5t22 -3.5q-1 -13 -1 -33.5v-36.5q0 -17 0.5 -39t1.5 -40q28 -10 70 -10q21 0 40.5 5t34.5 15t24 25t9 36q0 23 -11.5 41.5t-32 35t-48 32t-58.5 32.5q-68 36 -98.5 71t-30.5 81 q0 29 11.5 50t28.5 39t36.5 34.5t36.5 36.5t28.5 44.5t11.5 58.5q0 19 -5 38.5t-18 35t-36 25t-60 9.5q-36 0 -60 -16t-38.5 -42t-21 -60.5t-6.5 -71.5v-563h-208v18l70 5v470h-72v18l72 8v22q0 57 20.5 101t56 73.5t83 44.5t102.5 15z" />
<glyph unicode="&#x165;" horiz-adv-x="397" d="M301 773h91l-69 -206h-22v206zM399 55q-10 -9 -27 -20t-38.5 -21t-47.5 -17t-54 -7q-34 0 -60.5 5.5t-45.5 21.5t-28.5 43.5t-9.5 72.5l3 359h-75v23l76 4l18 127h116v-129h157v-25h-157v-367q0 -28 5 -45.5t13.5 -27.5t19.5 -13.5t24 -3.5q29 0 56 10.5t47 24.5z" />
<glyph unicode="&#xfa;" horiz-adv-x="651" d="M641 26v-18l-214 -15l-1 114q-38 -49 -87 -83t-112 -34q-73 0 -107.5 43.5t-34.5 124.5v154v38.5v44t0.5 43.5t0.5 38l-76 5v19l216 29q-2 -37 -2.5 -82.5t-0.5 -90.5v-168q0 -75 12 -113.5t51 -38.5q18 0 36 7.5t35.5 20t34 29.5t30.5 35v348l-94 5v19l232 29v-498z M268 605l120 212l72 -68l-182 -153z" />
<glyph unicode="&#xfc;" horiz-adv-x="651" d="M641 26v-18l-214 -15l-1 114q-38 -49 -87 -83t-112 -34q-73 0 -107.5 43.5t-34.5 124.5v154v38.5v44t0.5 43.5t0.5 38l-76 5v19l216 29q-2 -37 -2.5 -82.5t-0.5 -90.5v-168q0 -75 12 -113.5t51 -38.5q18 0 36 7.5t35.5 20t34 29.5t30.5 35v348l-94 5v19l232 29v-498z M158 692q0 25 18.5 43.5t47.5 18.5q26 0 45.5 -17.5t19.5 -44.5q0 -28 -19 -46t-46 -18q-29 0 -47.5 18t-18.5 46zM355 692q0 25 18 43.5t47 18.5q26 0 45.5 -17.5t19.5 -44.5q0 -28 -19 -46t-46 -18q-29 0 -47 18t-18 46z" />
<glyph unicode="&#x171;" horiz-adv-x="651" d="M641 26v-18l-214 -15l-1 114q-38 -49 -87 -83t-112 -34q-73 0 -107.5 43.5t-34.5 124.5v154v38.5v44t0.5 43.5t0.5 38l-76 5v19l216 29q-2 -37 -2.5 -82.5t-0.5 -90.5v-168q0 -75 12 -113.5t51 -38.5q18 0 36 7.5t35.5 20t34 29.5t30.5 35v348l-94 5v19l232 29v-498z M376 612l120 211l73 -68l-182 -153zM173 611l120 212l73 -68l-182 -153z" />
<glyph unicode="&#x16f;" horiz-adv-x="651" d="M641 26v-18l-214 -15l-1 114q-38 -49 -87 -83t-112 -34q-73 0 -107.5 43.5t-34.5 124.5v154v38.5v44t0.5 43.5t0.5 38l-76 5v19l216 29q-2 -37 -2.5 -82.5t-0.5 -90.5v-168q0 -75 12 -113.5t51 -38.5q18 0 36 7.5t35.5 20t34 29.5t30.5 35v348l-94 5v19l232 29v-498z M320 596q-47 0 -79 28.5t-32 76.5q0 22 9 41.5t24 33t35 21.5t43 8q46 0 78 -28.5t32 -75.5q0 -23 -9 -42t-24 -33t-35 -22t-42 -8zM320 624q35 0 53.5 22t18.5 55q0 38 -21.5 57t-50.5 19q-30 0 -52.5 -18.5t-22.5 -57.5q0 -38 21.5 -57.5t53.5 -19.5z" />
<glyph unicode="&#xfd;" horiz-adv-x="530" d="M23 497l-37 4v17h252v-17l-72 -5l167 -373l114 341l-105 37v17h201v-17l-70 -37l-160 -472l-61 -189l100 -36v-17h-245v17l119 37l45 138zM251 613l120 212l72 -68l-182 -153z" />
<glyph unicode="&#x17a;" horiz-adv-x="509" d="M454 518q1 -10 3.5 -18.5t6.5 -16.5l-299 -461h210q0 4 0.5 14.5t0.5 21.5v21.5v14.5q0 23 -0.5 45t-2.5 39q8 2 22.5 3.5t30.5 1.5q28 0 46 -5q1 -14 1 -31v-36q0 -30 -0.5 -61t-2.5 -53q-17 3 -35 3h-394q-1 10 -2.5 18.5t-5.5 17.5l294 460h-186v-61q0 -24 0.5 -51 t2.5 -44q-8 -2 -22.5 -3.5t-30.5 -1.5q-28 0 -46 5q-1 14 -1 31v36q0 30 0.5 60.5t2.5 53.5q16 -3 35 -3h372zM223 611l120 212l72 -68l-182 -153z" />
<glyph unicode="&#x17e;" horiz-adv-x="509" d="M454 518q1 -10 3.5 -18.5t6.5 -16.5l-299 -461h210q0 4 0.5 14.5t0.5 21.5v21.5v14.5q0 23 -0.5 45t-2.5 39q8 2 22.5 3.5t30.5 1.5q28 0 46 -5q1 -14 1 -31v-36q0 -30 -0.5 -61t-2.5 -53q-17 3 -35 3h-394q-1 10 -2.5 18.5t-5.5 17.5l294 460h-186v-61q0 -24 0.5 -51 t2.5 -44q-8 -2 -22.5 -3.5t-30.5 -1.5q-28 0 -46 5q-1 14 -1 31v36q0 30 0.5 60.5t2.5 53.5q16 -3 35 -3h372zM106 743l56 56l126 -121l130 118l12 -14l-164 -184z" />
<glyph unicode="&#x17c;" horiz-adv-x="509" d="M454 518q1 -10 3.5 -18.5t6.5 -16.5l-299 -461h210q0 4 0.5 14.5t0.5 21.5v21.5v14.5q0 23 -0.5 45t-2.5 39q8 2 22.5 3.5t30.5 1.5q28 0 46 -5q1 -14 1 -31v-36q0 -30 -0.5 -61t-2.5 -53q-17 3 -35 3h-394q-1 10 -2.5 18.5t-5.5 17.5l294 460h-186v-61q0 -24 0.5 -51 t2.5 -44q-8 -2 -22.5 -3.5t-30.5 -1.5q-28 0 -46 5q-1 14 -1 31v36q0 30 0.5 60.5t2.5 53.5q16 -3 35 -3h372zM196 706q0 26 19.5 45.5t50.5 19.5q27 0 48 -18t21 -47q0 -30 -20 -49t-49 -19q-31 0 -50.5 19.5t-19.5 48.5z" />
<glyph unicode="," horiz-adv-x="259" d="M26 -165q17 5 39 19t41.5 35t33 48t15.5 60q-7 -3 -19 -5t-20 -2q-29 0 -48.5 19.5t-19.5 59.5q0 32 21 53.5t53 21.5q37 0 64 -25.5t27 -83.5q0 -41 -17 -77.5t-43.5 -65t-58 -48t-60.5 -26.5z" />
<glyph unicode="." horiz-adv-x="255" d="M47 73q0 16 6.5 30.5t17.5 25t25.5 17t31.5 6.5q34 0 57 -22.5t23 -56.5q0 -35 -22 -58.5t-58 -23.5q-37 0 -59 23t-22 59z" />
<glyph unicode=":" horiz-adv-x="286" d="M62 73q0 16 6.5 30.5t17.5 25t25.5 17t31.5 6.5q34 0 57 -22.5t23 -56.5q0 -35 -22 -58.5t-58 -23.5q-37 0 -59 23t-22 59zM62 439q0 16 6.5 30.5t17.5 25t25.5 17t31.5 6.5q34 0 57 -22.5t23 -56.5q0 -35 -22 -58.5t-58 -23.5q-37 0 -59 23t-22 59z" />
<glyph unicode=";" horiz-adv-x="285" d="M45 -165q17 5 39 19t41.5 35t33 48t15.5 60q-7 -3 -19 -5t-20 -2q-29 0 -48.5 19.5t-19.5 59.5q0 32 21 53.5t53 21.5q37 0 64 -25.5t27 -83.5q0 -41 -17 -77.5t-43.5 -65t-58 -48t-60.5 -26.5zM57 439q0 16 6.5 30.5t17.5 25t25.5 17t31.5 6.5q34 0 57 -22.5t23 -56.5 q0 -35 -22 -58.5t-58 -23.5q-37 0 -59 23t-22 59z" />
<glyph unicode="?" horiz-adv-x="437" d="M104 310q0 22 14 45t34.5 47t45 49t45 50t34.5 50t14 50q0 42 -23.5 65t-64.5 23q-21 0 -42 -8.5t-39 -24.5t-31.5 -37.5t-19.5 -46.5l-38 17q25 57 72.5 88.5t110.5 31.5q40 0 73.5 -10t57.5 -28t37.5 -44t13.5 -59q0 -32 -14 -61.5t-35 -55.5t-45 -49t-45 -44 t-35 -40.5t-14 -36.5t7 -32t28 -24l-8 -17q-60 10 -96.5 37t-36.5 65zM121 70q0 32 23.5 55t57.5 23t57 -22.5t23 -55.5q0 -35 -22 -58.5t-58 -23.5q-37 0 -59 22.5t-22 59.5z" />
<glyph unicode="&#xbf;" horiz-adv-x="433" d="M332 201q0 -22 -14 -45t-34.5 -47t-45 -49t-45 -50t-34.5 -50t-14 -50q0 -42 23.5 -65t64.5 -23q21 0 42 8.5t39 24.5t31.5 37t19.5 47l38 -17q-25 -57 -72.5 -88.5t-110.5 -31.5q-40 0 -73.5 10t-57.5 28t-37.5 44t-13.5 59q0 32 14 61.5t35 55.5t45 49t45 44t35 40 t14 37q0 17 -7 32t-28 24l8 17q60 -10 96.5 -37t36.5 -65zM315 441q0 -32 -23.5 -55t-57.5 -23t-57 22.5t-23 55.5q0 35 22 58.5t58 23.5q37 0 59 -22.5t22 -59.5z" />
<glyph unicode="!" horiz-adv-x="282" d="M131 238l-62 444l32 18h81l31 -17l-63 -445h-19zM62 71q0 32 23.5 54.5t57.5 22.5t57 -22t23 -55q0 -36 -22 -59t-58 -23q-37 0 -59 22t-22 60z" />
<glyph unicode="&#xa1;" horiz-adv-x="273" d="M147 280l62 -444l-32 -18h-81l-31 17l63 445h19zM216 447q0 -32 -23.5 -54.5t-57.5 -22.5t-57 22t-23 55q0 36 22 59t58 23q37 0 59 -22t22 -60z" />
<glyph unicode="-" horiz-adv-x="399" d="M76 336h263l-15 -94h-263z" />
<glyph unicode="&#xad;" horiz-adv-x="399" d="M76 336h263l-15 -94h-263z" />
<glyph unicode="&#x2013;" horiz-adv-x="622" d="M62 304h500v-32h-500v32z" />
<glyph unicode="&#x2014;" horiz-adv-x="1122" d="M62 304h1000v-32h-1000v32z" />
<glyph unicode="_" horiz-adv-x="510" d="M0 -48h510v-28h-510v28z" />
<glyph unicode="@" horiz-adv-x="940" d="M894 305q0 -66 -16 -124.5t-47.5 -102.5t-78.5 -70t-108 -26q-19 0 -38 4.5t-34 15t-24.5 27.5t-10.5 43q-7 -17 -19.5 -33t-30.5 -28.5t-41.5 -20.5t-53.5 -8q-36 0 -62 10t-43 27t-25 39.5t-8 47.5q0 40 20 67.5t51.5 44t71 24t78.5 7.5q31 0 58 -3l1 115q0 40 -3 67 t-11.5 43t-23 23t-37.5 7q-46 0 -76 -16q0 -6 -0.5 -16.5t-0.5 -22v-22.5v-18q0 -23 0.5 -47t2.5 -42q-8 -2 -24.5 -3.5t-32.5 -1.5q-13 0 -26.5 1.5t-21.5 3.5q-1 19 -1.5 47t-0.5 54q0 22 0.5 42.5t1.5 37.5q18 -3 42.5 -0.5t47.5 8.5q27 7 58.5 11.5t63.5 4.5 q48 0 81.5 -11t55.5 -30t32 -45.5t10 -56.5q0 -7 -0.5 -25.5t-1 -43t-1 -52.5t-1 -52.5t-0.5 -43.5v-26v-53q1 -26 8 -44.5t27 -18.5q27 0 56 18t53.5 54t40 90.5t15.5 127.5q0 77 -31.5 140t-83.5 108t-119.5 69.5t-140.5 24.5q-93 0 -171.5 -31t-135.5 -85.5t-89 -129 t-32 -162.5q0 -90 34.5 -164t92.5 -126.5t134.5 -81t160.5 -28.5q66 0 120.5 18.5t100.5 47.5l12 -17q-51 -34 -107 -53t-136 -19q-89 0 -168.5 31t-140 87.5t-96 134t-35.5 170.5q0 96 35.5 175.5t97 136.5t143 89t173.5 32q80 0 154 -25.5t130.5 -73.5t90.5 -117t34 -156z M462 38q25 0 43 16.5t29 39.5l-1 133q-18 3 -35 3q-54 0 -79 -28t-25 -72q0 -49 18 -70.5t50 -21.5z" />
<glyph unicode="&#x26;" horiz-adv-x="836" d="M517 295q-5 20 -5 45q0 11 1 20.5t4 16.5q33 -2 72.5 -3.5t81.5 -1.5q41 0 79 1.5t69 3.5q4 -16 4 -41q0 -11 -1 -22t-3 -19q-17 -2 -38.5 -2.5t-45.5 -1.5t-49 -1h-48q-23 -40 -54 -78t-67 -77q18 -17 40 -33.5t46 -29.5t49 -21t49 -8q74 0 123 64l11 -10 q-40 -59 -95.5 -83t-114.5 -24q-51 0 -101.5 19t-89.5 51q-34 -29 -76.5 -49.5t-102.5 -20.5q-37 0 -72.5 9.5t-63.5 29t-45 50.5t-17 74q0 38 13.5 68t37.5 54t57.5 43t73.5 35q-16 46 -24.5 87t-8.5 88q0 38 13.5 71t37.5 57.5t56 38.5t68 14q38 0 68 -11t50.5 -30.5 t31 -45t10.5 -54.5q0 -33 -18.5 -63t-46.5 -54t-60 -42.5t-60 -28.5q23 -62 61.5 -123.5t86.5 -109.5q30 33 53.5 71t35.5 73q-18 1 -39 1.5t-37 2.5zM420 72q-27 24 -53 54.5t-48.5 65t-41.5 71.5t-32 73q-29 -29 -44.5 -65t-15.5 -85q0 -29 6.5 -57t21.5 -50.5t38.5 -36 t57.5 -13.5q37 0 64.5 14.5t46.5 28.5zM312 581q0 -47 10.5 -93.5t27.5 -93.5q43 28 63.5 76t20.5 104q0 50 -16.5 84t-47.5 34t-44.5 -30t-13.5 -81z" />
<glyph unicode="/" horiz-adv-x="568" d="M18 -51l510 780l22 -15l-508 -780z" />
<glyph unicode="\" horiz-adv-x="577" d="M535 -67l-509 780l23 16l509 -781z" />
<glyph unicode="|" horiz-adv-x="204" d="M87 747h30v-769h-30v769z" />
<glyph unicode="(" horiz-adv-x="264" d="M261 773q-48 -45 -83 -97.5t-58.5 -110.5t-34.5 -119t-11 -123q0 -72 13 -140.5t38 -130t60 -114t80 -92.5l-24 -27q-56 48 -95 107.5t-63.5 124t-36 131.5t-11.5 130q0 67 11.5 133t36.5 128.5t63 119t91 103.5z" />
<glyph unicode=")" horiz-adv-x="266" d="M4 -159q48 45 83 97.5t58.5 110t34.5 119t11 123.5q0 72 -13 140.5t-38 130t-60 114t-80 92.5l24 27q55 -48 94.5 -107.5t64 -124t36 -131.5t11.5 -130q0 -67 -11.5 -133t-36.5 -128.5t-63 -119t-91 -103.5z" />
<glyph unicode="[" horiz-adv-x="304" d="M85 760h212v-35h-169v-861h169v-35h-212v931z" />
<glyph unicode="]" horiz-adv-x="304" d="M219 -171h-212v35h169v861h-169v35h212v-931z" />
<glyph unicode="{" horiz-adv-x="310" d="M275 -174q-50 0 -83.5 9.5t-53.5 30t-28.5 52.5t-7.5 77l11 204q1 26 -7.5 43.5t-22.5 27.5t-30.5 14t-30.5 4h-11v25h11q14 0 30.5 4.5t30 15t22 27.5t8.5 42l-11 191q-3 88 36 129t137 41h30v-26h-20q-43 0 -70.5 -8.5t-43 -26.5t-21 -45t-3.5 -64l9 -130 q2 -39 -2.5 -67t-14.5 -47t-26.5 -30t-38.5 -17q47 -8 67.5 -45.5t15.5 -116.5l-11 -146q-1 -37 4 -63.5t20 -44t42.5 -26t72.5 -8.5h20v-26h-30v0z" />
<glyph unicode="}" horiz-adv-x="310" d="M4 -174v26h20q45 0 72.5 8.5t42.5 26t20 44t4 63.5l-11 146q-5 79 15.5 116.5t67.5 45.5q-22 6 -38.5 17t-26.5 30t-14.5 47t-2.5 67l9 130q2 37 -3.5 64t-21 45t-43 26.5t-70.5 8.5h-20v26h30q98 0 137 -41t36 -129l-11 -191q0 -25 8.5 -42t22 -27.5t30 -15t30.5 -4.5 h11v-25h-11q-14 0 -30.5 -4t-30.5 -14t-22.5 -27.5t-7.5 -43.5l11 -204q1 -45 -7.5 -77t-28.5 -52.5t-54 -30t-83 -9.5h-30z" />
<glyph unicode="&#xa7;" horiz-adv-x="556" d="M425 152q0 23 -16.5 57t-41.5 73.5t-54 82.5t-54 83.5t-41.5 75.5t-16.5 59q0 19 7 41.5t24 40.5q-56 -20 -77.5 -49.5t-21.5 -68.5q0 -18 17 -49.5t42 -69.5t54.5 -80.5t54.5 -83.5t42 -78t17 -64t-13.5 -54.5t-31.5 -43.5q23 8 43 19t35 26.5t23.5 35.5t8.5 47zM62 96 q28 -33 64.5 -59t88.5 -26q33 0 48.5 22.5t15.5 63.5q0 24 -16.5 57t-41.5 70.5t-54.5 77t-54.5 76t-41.5 68.5t-16.5 54q0 43 24 80t64.5 64.5t93.5 43.5t111 16q47 0 93 -17.5t78 -49.5l-33 -36q-37 47 -71 64.5t-73 17.5q-34 0 -46.5 -22.5t-12.5 -58.5q0 -25 16.5 -57 t41.5 -68.5t54.5 -74.5t54.5 -74.5t41.5 -70t16.5 -59.5q0 -45 -23 -83t-62.5 -65.5t-91.5 -43.5t-110 -16t-104.5 18.5t-81.5 50.5z" />
<glyph unicode="&#x2022;" horiz-adv-x="353" d="M176 123q-29 0 -53.5 10.5t-42 28.5t-27 42t-9.5 52t10 52.5t27.5 43t41.5 29t53 10.5q28 0 52.5 -10.5t42.5 -29t28 -43t10 -52.5t-10 -52t-27.5 -42t-42 -28.5t-53.5 -10.5z" />
<glyph unicode="#" horiz-adv-x="597" d="M361 193h-174l-32 -193h-37l32 193h-115l6 33h115l26 154h-124l7 33h122l31 180h37l-31 -180h174l31 180h37l-31 -180h127l-6 -33h-127l-26 -154h134l-6 -33h-133l-33 -193h-36zM193 226h173l26 154h-173z" />
<glyph unicode="%" horiz-adv-x="784" d="M188 362q-30 0 -57.5 9t-48.5 28t-34 48.5t-13 70.5q0 40 13 70.5t35.5 51.5t52.5 32t64 11q29 0 57 -9.5t49.5 -28.5t34.5 -47.5t13 -66.5q0 -76 -44.5 -122.5t-121.5 -46.5zM193 381q20 0 33 11.5t21 30.5t11.5 44.5t3.5 53.5q0 31 -3.5 57t-11 45t-21 29.5t-32.5 10.5 q-40 0 -54 -37t-14 -99q0 -31 3.5 -58t11 -46.5t20.5 -30.5t32 -11zM638 651l23 -21l-534 -628l-25 19zM584 -9q-30 0 -57.5 9t-48.5 28t-34 48.5t-13 70.5q0 40 13 70.5t35.5 51.5t52.5 31.5t63 10.5q30 0 58 -9.5t49.5 -28.5t34.5 -47.5t13 -66.5q0 -76 -44.5 -122 t-121.5 -46zM590 9q20 0 33.5 11.5t21 31t10.5 45t3 53.5q0 62 -16 100.5t-53 38.5t-52.5 -36t-15.5 -97q0 -31 3.5 -58t12 -46.5t21.5 -31t32 -11.5z" />
<glyph unicode="&#x2030;" horiz-adv-x="1134" d="M191 362q-30 0 -57.5 9t-48.5 28t-33.5 48.5t-12.5 70.5q0 40 13 70.5t35.5 51.5t52.5 32t63 11q30 0 57.5 -9.5t49 -28.5t34.5 -47.5t13 -66.5q0 -76 -44.5 -122.5t-121.5 -46.5zM197 381q20 0 33 11.5t21 30.5t11.5 44.5t3.5 53.5q0 31 -3.5 57t-11.5 45t-21.5 29.5 t-32.5 10.5q-39 0 -53.5 -37t-14.5 -99q0 -31 3.5 -58t11 -46.5t20.5 -30.5t33 -11zM641 651l24 -21l-535 -628l-25 19zM587 -9q-30 0 -57.5 9t-48.5 28t-34 48.5t-13 70.5q0 40 13.5 70.5t36 51.5t52.5 31.5t63 10.5q30 0 57.5 -9.5t49 -28.5t34.5 -47.5t13 -66.5 q0 -76 -44 -122t-122 -46zM593 9q20 0 33.5 11.5t21.5 31t11 45t3 53.5q0 62 -16.5 100.5t-53.5 38.5t-52 -36t-15 -97q0 -31 3.5 -58t12 -46.5t21.5 -31t31 -11.5zM937 -9q-30 0 -57.5 9t-48.5 28t-34 48.5t-13 70.5q0 40 13 70.5t35.5 51.5t52.5 31.5t63 10.5 q30 0 57.5 -9.5t49 -28.5t34.5 -47.5t13 -66.5q0 -76 -44 -122t-121 -46zM942 9q20 0 33.5 11.5t21.5 31t11 45t3 53.5q0 62 -16 100.5t-53 38.5t-52.5 -36t-15.5 -97q0 -31 3.5 -58t12 -46.5t21.5 -31t31 -11.5z" />
<glyph unicode="&#x2020;" horiz-adv-x="601" d="M267 700h70l-16 -293l253 11v-65l-254 14l17 -617h-70l13 617l-252 -14v64l252 -11z" />
<glyph unicode="'" horiz-adv-x="181" d="M73 451l-40 266h115l-41 -266h-34z" />
<glyph unicode="&#x22;" horiz-adv-x="351" d="M73 451l-40 266h115l-41 -266h-34zM243 451l-40 266h116l-42 -266h-34z" />
<glyph unicode="&#x201c;" horiz-adv-x="453" d="M224 799q-17 -5 -39 -19t-41.5 -35t-33.5 -48t-15 -60q7 3 19 5t20 2q29 0 48.5 -19.5t19.5 -59.5q0 -32 -21 -53.5t-53 -21.5q-37 0 -64 25.5t-27 83.5q0 41 17 77.5t43.5 65t58 48t60.5 26.5zM441 799q-17 -5 -39 -19t-41.5 -35t-33.5 -48t-15 -60q7 3 19 5t20 2 q29 0 48.5 -19.5t19.5 -59.5q0 -32 -21 -53.5t-53 -21.5q-37 0 -64 25.5t-27 83.5q0 41 17 77.5t43.5 65t58 48t60.5 26.5z" />
<glyph unicode="&#x201d;" horiz-adv-x="455" d="M34 506q17 5 39 19t41.5 35t33 48t15.5 60q-7 -3 -19 -5t-20 -2q-29 0 -48.5 19.5t-19.5 59.5q0 32 21 53.5t53 21.5q37 0 64 -25.5t27 -83.5q0 -41 -17 -77.5t-43.5 -65t-58 -48t-60.5 -26.5zM251 506q17 5 39 19t41.5 35t33 48t15.5 60q-7 -3 -19 -5t-20 -2 q-29 0 -48.5 19.5t-19.5 59.5q0 32 21 53.5t53 21.5q37 0 64 -25.5t27 -83.5q0 -41 -17 -77.5t-43.5 -65t-58 -48t-60.5 -26.5z" />
<glyph unicode="&#x2018;" horiz-adv-x="236" d="M224 799q-17 -5 -39 -19t-41.5 -35t-33.5 -48t-15 -60q7 3 19 5t20 2q29 0 48.5 -19.5t19.5 -59.5q0 -32 -21 -53.5t-53 -21.5q-37 0 -64 25.5t-27 83.5q0 41 17 77.5t43.5 65t58 48t60.5 26.5z" />
<glyph unicode="&#x2019;" horiz-adv-x="239" d="M34 500q17 5 39 19t41.5 35t33 48t15.5 60q-7 -3 -19 -5t-20 -2q-29 0 -48.5 19.5t-19.5 59.5q0 32 21 53.5t53 21.5q37 0 64 -25.5t27 -83.5q0 -41 -17 -77.5t-43.5 -65t-58 -48t-60.5 -26.5z" />
<glyph unicode="&#x201a;" horiz-adv-x="259" d="M26 -165q17 5 39 19t41.5 35t33 48t15.5 60q-7 -3 -19 -5t-20 -2q-29 0 -48.5 19.5t-19.5 59.5q0 32 21 53.5t53 21.5q37 0 64 -25.5t27 -83.5q0 -41 -17 -77.5t-43.5 -65t-58 -48t-60.5 -26.5z" />
<glyph unicode="&#x201e;" horiz-adv-x="487" d="M26 -165q17 5 39 19t41.5 35t33 48t15.5 60q-7 -3 -19 -5t-20 -2q-29 0 -48.5 19.5t-19.5 59.5q0 32 21 53.5t53 21.5q37 0 64 -25.5t27 -83.5q0 -41 -17 -77.5t-43.5 -65t-58 -48t-60.5 -26.5zM254 -165q17 5 39 19t41.5 35t33 48t15.5 60q-7 -3 -19 -5t-20 -2 q-29 0 -48.5 19.5t-19.5 59.5q0 32 21 53.5t53 21.5q37 0 64 -25.5t27 -83.5q0 -41 -17 -77.5t-43.5 -65t-58 -48t-60.5 -26.5z" />
<glyph unicode="&#x2039;" horiz-adv-x="252" d="M176 25l-155 246l156 240h39l-114 -240l116 -246h-42z" />
<glyph unicode="&#x203a;" horiz-adv-x="252" d="M34 25l115 246l-114 240h40l156 -240l-156 -246h-41z" />
<glyph unicode="&#xab;" horiz-adv-x="458" d="M383 25l-156 246l156 240h40l-114 -240l115 -246h-41zM176 25l-155 246l156 240h39l-114 -240l116 -246h-42z" />
<glyph unicode="&#xbb;" horiz-adv-x="458" d="M34 25l115 246l-114 240h40l156 -240l-156 -246h-41zM240 25l115 246l-113 240h39l156 -240l-156 -246h-41z" />
<glyph unicode="*" horiz-adv-x="395" d="M220 398h-43l5 138l-122 -81l-21 34l125 69l-126 69l23 38l121 -82l-4 135h41l-4 -134l120 81l22 -36l-125 -70l125 -67l-22 -36l-120 80z" />
<glyph unicode="+" horiz-adv-x="458" d="M211 247h-176v37h176v169h39v-169h173v-37h-173v-173h-39v173z" />
<glyph unicode="&#x3c;" horiz-adv-x="403" d="M29 256v9l298 260l29 -32l-269 -232l270 -235l-29 -30z" />
<glyph unicode="=" horiz-adv-x="569" d="M61 164v38h447v-38h-447zM61 346v38h447v-38h-447z" />
<glyph unicode="&#x3e;" horiz-adv-x="403" d="M75 -4l-28 32l270 232l-271 236l29 29l299 -261v-9z" />
<glyph unicode="&#x2122;" horiz-adv-x="1096" d="M513 288l4 393l-53 6v13h155l151 -353l123 353h149v-13l-49 -5v-416l53 -2v-13h-203v13l53 2v389l-140 -407l-44 -5l-177 408l-4 -363l93 -24v-13h-160v13zM408 701q8 0 15 1t13 3q1 -14 1.5 -37.5t0.5 -47.5v-33t-1 -25q-5 -2 -14.5 -2.5t-19.5 -0.5q-11 0 -21 0.5 t-15 2.5q1 10 1.5 30.5t0.5 40.5v11.5t-0.5 16t-0.5 16v10.5h-73v-420l68 -3v-14h-239v14l69 3v421h-75q0 -10 -0.5 -27t-0.5 -29q0 -19 0.5 -39.5t1.5 -30.5q-5 -2 -15 -2.5t-21 -0.5t-20 0.5t-14 2.5q0 9 -0.5 24t-0.5 32q0 24 0.5 48.5t1.5 38.5q8 -2 17.5 -3t21.5 -1 h319z" />
<glyph unicode="&#xae;" horiz-adv-x="623" d="M312 158q-62 0 -115 21.5t-91.5 58.5t-60.5 87t-22 107t22.5 106.5t62 86.5t92 58.5t112.5 21.5q59 0 111.5 -21.5t91.5 -58.5t62 -86.5t23 -106.5t-22 -107t-60.5 -87t-91 -58.5t-114.5 -21.5zM312 181q55 0 103 19t82.5 52.5t54.5 79.5t20 100q0 50 -20 95.5t-54.5 80 t-82.5 55t-103 20.5q-56 0 -103.5 -19.5t-83 -53.5t-55.5 -80t-20 -98q0 -51 20 -97t55.5 -80t83 -54t103.5 -20zM284 290l40 -2v-11h-156v11l37 2v294l-37 3v10h146q26 0 49 -5t40 -16t27 -28t10 -40q0 -20 -7.5 -35t-20 -26t-28.5 -17.5t-32 -7.5q23 -5 38 -17.5t26 -31.5 q8 -14 12.5 -29.5t9 -29t11 -22t18.5 -8.5q5 0 8 0.5l9 1.5v-11q-9 -4 -22 -6t-20 -2q-24 0 -42.5 9.5t-31.5 25t-22 35t-15 39.5l-12 42q-2 -1 -9 -1h-9h-17v-127zM284 585v-157h21q26 0 39 20.5t13 52.5q0 36 -14 60t-44 24h-15z" />
<glyph unicode="&#xa9;" horiz-adv-x="623" d="M312 -6q-63 0 -116 21.5t-91.5 58.5t-60 87t-21.5 107t22.5 106.5t62 86.5t92 58.5t112.5 21.5q59 0 111.5 -21.5t91.5 -58.5t62 -86.5t23 -106.5t-22 -107t-60.5 -87t-91 -58.5t-114.5 -21.5zM312 16q56 0 103.5 19.5t82.5 53t55 79.5t20 100q0 49 -19.5 94.5 t-54.5 80.5t-82.5 55.5t-104.5 20.5q-55 0 -103 -19.5t-83.5 -53t-56 -79.5t-20.5 -99t20 -98.5t55 -80t83 -54t105 -19.5zM448 101q-1 0 -6.5 1t-11.5 1.5t-11.5 1.5t-6.5 1t-6 -1t-7 -1q-17 -3 -39.5 -6t-47.5 -3q-40 0 -74 11t-59 33t-39 53t-14 72q0 42 15.5 75t41.5 56 t61.5 35t74.5 12q29 0 52 -4.5t38 -8.5q5 0 13 1t25 5q0 -5 0.5 -14t1 -19.5t0.5 -21v-19.5q0 -10 -0.5 -18.5t-0.5 -14.5q-8 -2 -17.5 -3t-17.5 -1q-11 0 -18.5 1t-15.5 3q1 8 1.5 19.5t0.5 24.5v23.5t-1 22.5q-13 5 -25.5 8t-29.5 3q-49 0 -72.5 -43.5t-23.5 -114.5 q0 -78 26.5 -121t71.5 -43q30 0 53 11v88q8 2 15 3t17 1q9 0 19 -1t18 -3v-35v-16.5v-21t-0.5 -19.5t-0.5 -13z" />
<glyph unicode="&#x20ac;" horiz-adv-x="686" d="M35 444h79q14 57 43.5 105.5t73 84t100.5 56t125 20.5q65 0 107.5 -10.5t81.5 -28.5v-31q-38 25 -77 36.5t-82 11.5q-96 0 -154 -64.5t-75 -179.5h218v-25h-221q-3 -35 -3 -71q0 -18 1 -34.5t3 -33.5h220v-25h-217q8 -53 26.5 -97.5t47 -76.5t66 -49.5t84.5 -17.5 q38 0 78.5 11t84.5 36v-31q-49 -20 -92 -30t-93 -10q-66 0 -124.5 15.5t-104.5 48t-78 82.5t-44 119h-74v25h70q-3 28 -3 61q0 20 1.5 39t5.5 39h-74v25z" />
<glyph unicode="$" horiz-adv-x="542" d="M262 -9q-2 -1 -8 -1h-8q-40 0 -69 6t-62 10q-17 -2 -35.5 -5.5t-28.5 -5.5q-1 13 -1.5 32t-1 41.5t-1 46.5t-0.5 45v34.5t1 26.5q18 5 50 5q18 0 33.5 -1.5t23.5 -3.5q-1 -14 -1.5 -38t-0.5 -51v-23.5v-29.5t0.5 -28.5t0.5 -21.5q19 -8 44.5 -11t56.5 -3h7v263l-26 17 q-45 29 -80 52t-59 46.5t-36 51.5t-12 67q0 37 15 68.5t42.5 55t67 38t88.5 17.5v79h24v-78q36 -1 65 -5.5t58 -13.5q4 0 14.5 1.5t22 3t21.5 3.5t13 3q1 -12 1.5 -30t1 -38.5t0.5 -42.5v-42v-39t-1 -30q-8 -2 -19 -3.5t-26 -1.5q-18 0 -36.5 1.5t-26.5 3.5q2 16 2 42.5 v55.5v90q-21 9 -41.5 13t-48.5 4v-243l34 -22q51 -33 85.5 -61t55.5 -54.5t30 -52.5t9 -54q0 -84 -55.5 -132t-158.5 -56v-62h-24v61zM381 122q0 44 -22 74t-73 65v-245q43 5 69 28.5t26 77.5zM160 569q0 -35 25 -64t77 -65v226q-51 -5 -76.5 -31t-25.5 -66z" />
<glyph unicode="&#xa2;" horiz-adv-x="525" d="M282 -10q-47 0 -91 15t-78.5 46t-55 80t-20.5 117q0 70 19 122t52 86.5t78 52.5t96 20v73h21v-73q24 -1 39.5 -3.5t37.5 -6.5q14 -2 27.5 -4t27.5 -2h16t18 1q1 -20 1.5 -49.5t0.5 -58.5v-41.5t-1 -33.5q-18 -5 -46 -5q-16 0 -34.5 1.5t-26.5 3.5q3 33 3 79v19.5v25 t-0.5 24.5t-0.5 20q-17 5 -31 7.5t-31 3.5v-482q5 -1 10 -1h10q43 0 77 14.5t71 42.5l10 -12q-32 -30 -76.5 -53.5t-101.5 -27.5v-61h-21v60zM181 263q0 -104 27 -159.5t74 -70.5v475q-55 -7 -78 -65.5t-23 -179.5z" />
<glyph unicode="&#xa3;" horiz-adv-x="646" d="M282 347l-2 -63q-2 -67 -36 -114t-107 -76h309q56 0 90.5 13.5t51.5 47.5l18 -9q-6 -22 -17 -47.5t-30.5 -47.5t-48.5 -36.5t-71 -14.5h-408v26q27 1 46 23t31 55t18 71t8 73q0 4 0.5 15t1 25.5t1.5 30.5t1 28h-80v24h80v38q0 80 23 135.5t60.5 90t86 49.5t99.5 15 q52 0 97 -17t80 -55l-40 -40q-24 38 -57 64t-78 26q-60 0 -91.5 -57.5t-32.5 -182.5l-2 -66h194v-24h-195z" />
<glyph unicode="&#xa5;" horiz-adv-x="705" d="M597 640l-159 -309h137v-23h-149l-1 -2v-123h150v-23h-150v-136l107 -5v-19h-353v19l105 5v136h-149v23h149v107l-10 18h-139v23h127l-180 346l-57 4v19h300v-19l-87 -5l176 -334l152 298l-119 41v19h230v-19z" />
<glyph unicode="&#xa4;" horiz-adv-x="506" d="M433 495l24 -25l-89 -92q14 -18 22.5 -40.5t8.5 -47.5q0 -52 -32 -90l90 -91l-24 -26l-92 92q-37 -28 -89 -28t-89 28l-92 -91l-24 26l90 90q-31 37 -31 89q0 26 8.5 48.5t23.5 41.5l-89 90l24 25l91 -90q18 13 39.5 20.5t47.5 7.5t49 -7.5t42 -21.5zM252 400 q-51 0 -80 -32.5t-29 -77.5q0 -22 8 -42t22 -35.5t34.5 -25t45.5 -9.5q54 0 81 32t27 80q0 46 -30 78t-79 32z" />
</font>
</defs>
</svg>
