<svg id="Layer_1" data-name="Layer 1" xmlns="http://www.w3.org/2000/svg" viewBox="0 0 36 36">
  <defs>
    <style>
      .cls-1 {
        fill: #bebebe;
      }
    </style>
  </defs>
  <title>i-restart</title>
  <g>
    <path class="cls-1" d="M12,12.2A8.15,8.15,0,0,0,9.6,18v.57L7.71,16.68,6.29,18.09,10.6,22.4l4.31-4.31-1.42-1.41L11.6,18.57V18a6.11,6.11,0,0,1,1.82-4.38,6.19,6.19,0,1,1,0,8.76L12,23.8a8.2,8.2,0,1,0,0-11.6Z"/>
    <path class="cls-1" d="M18,2A16,16,0,1,0,34,18,16,16,0,0,0,18,2Zm0,30A14,14,0,1,1,32,18,14,14,0,0,1,18,32Z"/>
  </g>
</svg>
