<svg id="Layer_1" data-name="Layer 1" xmlns="http://www.w3.org/2000/svg" viewBox="0 0 36 36">
  <defs>
    <style>
      .cls-1 {
        fill: #bebebe;
      }
    </style>
  </defs>
  <title>i-undo</title>
  <g>
    <path class="cls-1" d="M20.15,8.66a6.56,6.56,0,0,0-6.54,6.54v8.09l-2-2-1.42,1.42,4.4,4.4L19,22.68l-1.42-1.42-1.95,1.95v-8a4.55,4.55,0,0,1,9.09,0v4.69h2V15.2A6.56,6.56,0,0,0,20.15,8.66Z"/>
    <path class="cls-1" d="M18,2A16,16,0,1,0,34,18,16,16,0,0,0,18,2Zm0,30A14,14,0,1,1,32,18,14,14,0,0,1,18,32Z"/>
  </g>
</svg>
