<svg viewBox="0 0 128 106" xmlns="http://www.w3.org/2000/svg"><g fill="#e6e1dc"><path d="m42.87 76.72c-.18-4.3-.31-8.59-.42-12.88l-.35-12.84-.26-12.88-.19-12.92v-1.21h1.24l21-.21 21-.07h1.5v1.5 14l-.07 14c-.07 9.33-.16 18.66-.32 28v1.1h-1.07l-10.5-.19-10.5-.24-10.5-.3c-3.5-.08-7-.22-10.5-.35 3.5-.14 7-.27 10.5-.36l10.5-.3 10.5-.24 10.5-.19-1.14 1.06c-.16-9.34-.25-18.67-.32-28l-.07-14v-14l1.49 1.49-21-.07-21-.2 1.22-1.22-.21 12.88-.26 12.92-.35 12.88c-.11 4.25-.24 8.54-.42 12.84z"/><path d="m51.15 35.45 25.35-1.5v3z"/><path d="m51.15 45.68 25.35-1v2z"/><path d="m51.15 49.65 25.35-1v2z"/><path d="m51.15 53.61 25.35-1v2z"/><path d="m48.61 71.09a35.39 35.39 0 0 1 6.69-5.85 43.21 43.21 0 0 1 8-4.11l.91 2.87a41.05 41.05 0 0 0 -8.21 2.55 35.09 35.09 0 0 0 -7.39 4.54z"/><path d="m52.29 60.71a35.68 35.68 0 0 0 9.71 10.75 33.28 33.28 0 0 0 13.48 6 34 34 0 0 1 -14.31-4.7 38.1 38.1 0 0 1 -11.39-10.4z"/></g></svg>