<svg xmlns="http://www.w3.org/2000/svg" viewBox="0 0 128 106">
  <defs>
    <style>
      .cls-1 {
        fill: #e6e1dc;
      }
    </style>
  </defs>
  <title>i-certificate</title>
  <g id="Layer_1" data-name="Layer 1">
    <g>
      <path class="cls-1" d="M42.87,76.72c-.18-4.3-.31-8.59-.42-12.88L42.1,51l-.26-12.88L41.65,25.2l0-1.21h1.24l21-.21,21-.07h1.5v1.5l0,14-.07,14c-.07,9.33-.16,18.66-.32,28v1.1l-1.07,0-10.5-.19-10.5-.24-10.5-.3c-3.5-.08-7-.22-10.5-.35,3.5-.14,7-.27,10.5-.36l10.5-.3,10.5-.24,10.5-.19L83.79,81.2c-.16-9.34-.25-18.67-.32-28l-.07-14,0-14,1.49,1.49-21-.07-21-.2,1.22-1.22L43.9,38.08,43.64,51l-.35,12.88C43.18,68.13,43.05,72.42,42.87,76.72Z"/>
      <polygon class="cls-1" points="51.15 35.45 76.5 33.95 76.5 36.95 51.15 35.45"/>
      <polygon class="cls-1" points="51.15 45.68 76.5 44.68 76.5 46.68 51.15 45.68"/>
      <polygon class="cls-1" points="51.15 49.65 76.5 48.65 76.5 50.65 51.15 49.65"/>
      <polygon class="cls-1" points="51.15 53.61 76.5 52.61 76.5 54.61 51.15 53.61"/>
      <path class="cls-1" d="M48.61,71.09a35.39,35.39,0,0,1,6.69-5.85,43.21,43.21,0,0,1,8-4.11L64.21,64A41.05,41.05,0,0,0,56,66.55,35.09,35.09,0,0,0,48.61,71.09Z"/>
      <path class="cls-1" d="M52.29,60.71A35.68,35.68,0,0,0,62,71.46a33.28,33.28,0,0,0,13.48,6,34,34,0,0,1-14.31-4.7A38.1,38.1,0,0,1,49.78,62.36Z"/>
    </g>
  </g>
</svg>
