<svg xmlns="http://www.w3.org/2000/svg" viewBox="0 0 182 182">
  <defs>
    <style>
      .cls-1 {
        fill: #e6e1dc;
      }
    </style>
  </defs>
  <title>i-certificate-popup</title>
  <g id="dialog">
    <g>
      <rect class="cls-1" x="39.4" y="22.6" width="103.2" height="136.8"/>
      <g>
        <polygon points="119.91 44.2 59.05 48.4 119.91 52.6 119.91 44.2"/>
        <polygon points="119.91 75.97 119.91 69.97 59.05 72.97 119.91 75.97"/>
        <polygon points="119.91 85.48 119.91 79.48 59.05 82.48 119.91 85.48"/>
        <polygon points="119.91 94.99 119.91 88.99 59.05 91.99 119.91 94.99"/>
        <path d="M70.75,122.86a90.22,90.22,0,0,0,16.59,12.67,81.66,81.66,0,0,0,34.33,11.27,79.73,79.73,0,0,1-32.34-14.27A85.42,85.42,0,0,1,76,120.37a98.59,98.59,0,0,1,18.7-5.74l-2.09-6.89a104,104,0,0,0-19.09,9.73,86.31,86.31,0,0,1-7.43-10.74l-6,4a92.16,92.16,0,0,0,8.66,10.23,90.62,90.62,0,0,0-11.48,10.73A87.85,87.85,0,0,1,70.75,122.86Z"/>
        <polygon points="133.47 29.52 48.53 28.8 48.53 33.6 131.81 32.89 132.81 151.21 56.94 151.86 133.47 152.51 134.11 152.51 134.12 151.86 135.15 31.2 135.16 29.53 133.47 29.52"/>
        <polygon points="46.13 151.86 50.93 151.86 48.53 48.63 46.13 151.86"/>
      </g>
    </g>
  </g>
</svg>
