<svg viewBox="0 0 128 106" xmlns="http://www.w3.org/2000/svg"><path d="m42.96 24.95h43v57h-43z" fill="#e6e1dc"/><path d="m76.5 33.95-25.35 1.75 25.35 1.75z"/><path d="m76.5 47.18v-2.5l-25.35 1.25z"/><path d="m76.5 51.15v-2.5l-25.35 1.25z"/><path d="m76.5 55.11v-2.5l-25.35 1.25z"/><path d="m50.41 70.38a37 37 0 0 1 5.59-3.66 37.5 37.5 0 0 0 6.94 5.28 34.15 34.15 0 0 0 14.3 4.7 33.34 33.34 0 0 1 -13.48-6 35.56 35.56 0 0 1 -5.54-5.07 42.5 42.5 0 0 1 7.78-2.34l-.87-2.87a43.15 43.15 0 0 0 -8 4.06 35.77 35.77 0 0 1 -3.04-4.48l-2.51 1.65a38.69 38.69 0 0 0 3.61 4.26 36.87 36.87 0 0 0 -4.78 4.47z"/><path d="m82.15 27.83-35.39-.3v2l34.7-.3.42 49.3-31.61.27 31.88.28h.27l.01-.28.42-50.27.01-.69z"/><path d="m45.76 78.8h2l-1-43z"/></svg>