<svg xmlns="http://www.w3.org/2000/svg" viewBox="0 0 128 106">
  <defs>
    <style>
      .cls-1 {
        fill: #e6e1dc;
      }
    </style>
  </defs>
  <title>i-certificate-active</title>
  <g id="solid">
    <g>
      <rect class="cls-1" x="42.96" y="24.95" width="43" height="57"/>
      <g>
        <polygon points="76.5 33.95 51.15 35.7 76.5 37.45 76.5 33.95"/>
        <polygon points="76.5 47.18 76.5 44.68 51.15 45.93 76.5 47.18"/>
        <polygon points="76.5 51.15 76.5 48.65 51.15 49.9 76.5 51.15"/>
        <polygon points="76.5 55.11 76.5 52.61 51.15 53.86 76.5 55.11"/>
        <path d="M50.41,70.38A37,37,0,0,1,56,66.72,37.5,37.5,0,0,0,62.94,72a34.15,34.15,0,0,0,14.3,4.7,33.34,33.34,0,0,1-13.48-6,35.56,35.56,0,0,1-5.54-5.07A42.5,42.5,0,0,1,66,63.29l-.87-2.87a43.15,43.15,0,0,0-8,4.06A35.77,35.77,0,0,1,54.09,60l-2.51,1.65a38.69,38.69,0,0,0,3.61,4.26A36.87,36.87,0,0,0,50.41,70.38Z"/>
        <polygon points="82.15 27.83 46.76 27.53 46.76 29.53 81.46 29.23 81.88 78.53 50.27 78.8 82.15 79.08 82.42 79.08 82.43 78.8 82.85 28.53 82.86 27.84 82.15 27.83"/>
        <polygon points="45.76 78.8 47.76 78.8 46.76 35.8 45.76 78.8"/>
      </g>
    </g>
  </g>
</svg>
