<svg xmlns="http://www.w3.org/2000/svg" viewBox="0 0 128 98">
  <defs>
    <style>
      .cls-1 {
        fill: none;
      }

      .cls-2 {
        fill: #e6e1dc;
      }
    </style>
  </defs>
  <title>fistumulator7</title>
  <g id="Layer_1" data-name="Layer 1">
    <g>
      <path class="cls-1" d="M89.61,31.4l.48-.87,1.53.87h2.79l.06-.76c0-.5,0-1,0-1.48a8.36,8.36,0,0,0,0-.92,14.15,14.15,0,0,0-3.69-3.15,30.75,30.75,0,0,0-4.9-2.46l-.14-.05a13,13,0,0,0-3.61-.51,2.56,2.56,0,0,0-.82.14c-.25.1-.22.17-.52.43-.46.42-.89.89-1.32,1.35a49.34,49.34,0,0,0-4.57,6l-.24,1.42h15Z"/>
      <path class="cls-1" d="M49.18,31.4l1-2.61c1,.51,1.94,1,2.89,1.58.56.33,1.1.68,1.65,1H70c-.08-.7-.17-1.4-.25-2.09a38.65,38.65,0,0,0-7-4.6,30.29,30.29,0,0,0-3.75-1.65,24.15,24.15,0,0,0-3.85-1L56,19.12A28.25,28.25,0,0,1,60,21a33.27,33.27,0,0,1,3.6,2.42,39.34,39.34,0,0,1,6.15,5.87c.15.69.28,1.39.43,2.09h3.05l.32-1.8,0-.14.07-.11a56,56,0,0,1,3.86-5.07l.14-1.56a3.45,3.45,0,0,0-1.17-1.26A14,14,0,0,0,75,20.57a33.64,33.64,0,0,0-3.18-1.44c-2.16-.85-4.4-1.6-6.61-2.23l1.12-2.79c2.14,1.16,4.19,2.36,6.19,3.7a31.76,31.76,0,0,1,2.9,2.13,15.48,15.48,0,0,1,1.32,1.24,3.65,3.65,0,0,1,.92,1.54l.33,1,.54-.6c.46-.48.92-1,1.42-1.4l.18-.17.1-.09.16-.11a1.9,1.9,0,0,1,.66-.22,3.74,3.74,0,0,1,1.12.05,11.9,11.9,0,0,1,2.77.94l0-.91a5.76,5.76,0,0,0-.12-1,10.52,10.52,0,0,0-.25-1.08,12.51,12.51,0,0,0-.7-1.81,39.26,39.26,0,0,0-10.5-6,47.25,47.25,0,0,0-6-1.9,57.14,57.14,0,0,0-5.83-1.13l-.28.17c-.26.17-.52.36-.79.56-.54.4-1.08.83-1.61,1.27-1.08.88-2.14,1.79-3.19,2.72-2.1,1.86-4.17,3.77-6.22,5.7s-4.06,3.9-6,5.9c-1,1-2,2-2.91,3s-1.77,2-2.51,2.91l-.24.77H49.18Z"/>
      <path class="cls-2" d="M63.63,23.44A33.27,33.27,0,0,0,60,21a28.25,28.25,0,0,0-4-1.9L55.22,22a24.15,24.15,0,0,1,3.85,1,30.29,30.29,0,0,1,3.75,1.65,38.65,38.65,0,0,1,7,4.6A39.34,39.34,0,0,0,63.63,23.44Z"/>
      <path class="cls-2" d="M75.44,19.94a31.76,31.76,0,0,0-2.9-2.13c-2-1.34-4.05-2.54-6.19-3.7L65.23,16.9c2.21.63,4.45,1.38,6.61,2.23A33.64,33.64,0,0,1,75,20.57a14,14,0,0,1,1.49.89,3.45,3.45,0,0,1,1.17,1.26,3.65,3.65,0,0,0-.92-1.54A15.48,15.48,0,0,0,75.44,19.94Z"/>
      <path class="cls-2" d="M53,30.37c-.95-.55-1.89-1.07-2.89-1.58l-1,2.61h5.51C54.14,31.05,53.6,30.7,53,30.37Z"/>
      <path class="cls-2" d="M44,68.45c.35.27.7.54,1.07.79l.52,18.28-.52-18.28C44.69,69,44.34,68.72,44,68.45Z"/>
      <polygon class="cls-2" points="84.54 92.63 86.23 92.64 84.54 92.63 84.54 92.63"/>
      <path class="cls-2" d="M32.19,41.11A101.3,101.3,0,0,0,30.52,53l0,.46.24.4a50.59,50.59,0,0,0,5.75,7.7A45.29,45.29,0,0,0,43,67.69a45.29,45.29,0,0,1-6.52-6.09,51.26,51.26,0,0,1-5.75-7.7l-.24-.4,0-.46a101.3,101.3,0,0,1,1.67-11.93,96.36,96.36,0,0,1,2.43-9.71h3.14l.24-.77c.74-1,1.63-1.95,2.51-2.91s1.93-2,2.91-3c2-2,4-4,6-5.9s4.12-3.84,6.22-5.7c1-.93,2.11-1.84,3.19-2.72.53-.44,1.07-.87,1.61-1.27.27-.2.53-.39.79-.56l.28-.17a57.14,57.14,0,0,1,5.83,1.13,47.25,47.25,0,0,1,6,1.9,39.26,39.26,0,0,1,10.5,6,12.51,12.51,0,0,1,.7,1.81,10.52,10.52,0,0,1,.25,1.08,5.76,5.76,0,0,1,.12,1l0,.91a11.9,11.9,0,0,0-2.77-.94,3.74,3.74,0,0,0-1.12-.05,1.9,1.9,0,0,0-.66.22l-.16.11-.1.09-.18.17c-.5.44-1,.92-1.42,1.4l-.54.6-.33-1-.14,1.56a56,56,0,0,0-3.86,5.07l-.07.11,0,.14-.32,1.8H70.21c.55,2.69,1.09,5.39,1.56,8.11l1.49-8.11h1.4L74.9,30a49.34,49.34,0,0,1,4.57-6c.43-.46.86-.93,1.32-1.35.3-.26.27-.33.52-.43a2.56,2.56,0,0,1,.82-.14,13,13,0,0,1,3.61.51l.14.05a30.75,30.75,0,0,1,4.9,2.46,14.15,14.15,0,0,1,3.69,3.15,8.36,8.36,0,0,1,0,.92c0,.48,0,1,0,1.48l-.06.76H91.62l.21.12-2.75,4.79,3.26-1.71.38.92-3.88,1.21-.47.83a26.68,26.68,0,0,1-1.93,4.94,15.16,15.16,0,0,1-3.28,4.35,14.42,14.42,0,0,0,2.39-4.72,25.88,25.88,0,0,0,.64-2.56A21.23,21.23,0,0,0,86.54,37v-.15l.11-.18,3-5.28h2l-1.53-.87-.48.87h-15l-.14.86A34.71,34.71,0,0,0,78,34.14a19.26,19.26,0,0,0,2,.8,8.9,8.9,0,0,0,2,.46l.54,0,0,.47a14.31,14.31,0,0,1-.34,2.35,16,16,0,0,1-.68,2.24A18.36,18.36,0,0,1,80,43.59c-.21.33-.42.65-.65,1a17.37,17.37,0,0,0,1.73-4.22,14.11,14.11,0,0,0,.42-2.21,11.07,11.07,0,0,0,.08-1.72,10.52,10.52,0,0,1-1.87-.25,20.5,20.5,0,0,1-2.24-.61c-1.13-.38-2.22-.82-3.3-1.3l-1.46,8.69a7.9,7.9,0,0,0,1.82,1.83A8.1,8.1,0,0,0,77.13,46a11.06,11.06,0,0,0,5.79-.12l.48,1.94a12.94,12.94,0,0,1-6.79-.11,10,10,0,0,1-3.07-1.61,10.58,10.58,0,0,1-.93-.83c0,.47.09.95.11,1.45a6.52,6.52,0,0,1,0,1,3,3,0,0,1-.36,1.11A5.34,5.34,0,0,1,71,50.37c-.25.2-.51.39-.77.56a14.67,14.67,0,0,1-1.62.93l-.82.4a28.83,28.83,0,0,1-3,1.14c0,.13,0,.26,0,.39a5.23,5.23,0,0,1-.17,1,3.62,3.62,0,0,1-.56,1,10.11,10.11,0,0,1-1.37,1.4,15.74,15.74,0,0,1-3.18,2.09,9.36,9.36,0,0,1-3.83,1.07v-2a7.82,7.82,0,0,0,3.07-.71A14.16,14.16,0,0,0,61.61,56c.22-.17.44-.35.64-.53a7.66,7.66,0,0,0,.57-.57,2.62,2.62,0,0,0,.35-.52,3.82,3.82,0,0,0,.17-.72,22.22,22.22,0,0,0,.09-3.48,63.07,63.07,0,0,0-.67-7.11c-.18-1.18-.38-2.36-.65-3.53a16.79,16.79,0,0,0-.47-1.72,3.3,3.3,0,0,0-.83-1.55,14.62,14.62,0,0,0-2.74-1.62c-1-.45-1.94-.84-2.93-1.21s-2-.69-3-1-2-.6-3-.84l.07-.2H37.76a95.71,95.71,0,0,0-2.63,10.29,99.3,99.3,0,0,0-1.57,11.09,44,44,0,0,0,5.17,6.79c2.1,2.18,4.12,4.48,6.33,6.56a26.09,26.09,0,0,0,2.77,2.29l.18.13a25.13,25.13,0,0,0,4.46,2.55,30.55,30.55,0,0,0,8.76,2.4l6.12-.9-6,1.62h-.09a30.72,30.72,0,0,1-9.34-1.59,26.22,26.22,0,0,1-4.16-1.79l-2,16,0,.84V91l1,0-1.09,0c6.49-.35,13-.63,19.48-.91l9.74-.42c1.62-.06,3.25-.16,4.87-.19,1.06,0,2.12,0,3.18,0L80.06,66.21,80,65.57l.41-.49q2.76-3.34,5.45-6.75c1.73-2.2,3.45-4.43,5-6.68a113,113,0,0,0,2.5-11.84c.33-2,.62-4.09.84-6.13.09-.77.15-1.53.21-2.28h3c0-.2,0-.39,0-.59,0-.54.06-1.09.06-1.65a9,9,0,0,0-.18-1.93l0-.26-.17-.22a16.41,16.41,0,0,0-4.74-4.2,32.49,32.49,0,0,0-4.54-2.34c0-.16,0-.32-.07-.49-.09-.47-.2-.92-.33-1.37a15.81,15.81,0,0,0-1-2.6l-.14-.28L86,15.28A41.6,41.6,0,0,0,74.45,8.61a52.42,52.42,0,0,0-6.34-2A62.8,62.8,0,0,0,61.6,5.35l-.12,0H61.4a2,2,0,0,0-.82.18,2.92,2.92,0,0,0-.39.18L59.63,6c-.34.22-.64.44-.94.66-.6.45-1.17.9-1.73,1.36-1.11.91-2.19,1.85-3.26,2.79-2.14,1.89-4.23,3.82-6.3,5.77s-4.1,3.94-6.11,6q-1.5,1.52-3,3.09A42.4,42.4,0,0,0,35.44,29l-.13.17-.08.22A94.61,94.61,0,0,0,32.19,41.11ZM51.12,58.48c-1-.48-2-1-3-1.61a40,40,0,0,1-5.57-4l-.13-.11-.08-.25a9.77,9.77,0,0,1-.47-2.7,24.86,24.86,0,0,1,0-2.59c0-.86.11-1.71.2-2.55s.18-1.55.31-2.35c-.42-.36-.84-.73-1.26-1.12l1.49-1.34c.66.84,1.42,1.69,2.18,2.5.14.15.3.28.45.43l.09,0v.06c.61.62,1.23,1.23,1.88,1.82a25.93,25.93,0,0,0,5.54,3.83,26,26,0,0,1-6.14-3c-.57-.37-1.13-.76-1.68-1.16l-.21.8c-.19.78-.35,1.57-.49,2.35a21.27,21.27,0,0,0-.3,2.35,9.23,9.23,0,0,0,.05,2,38.51,38.51,0,0,0,4.64,4.27,30.21,30.21,0,0,0,2.7,1.94,8.1,8.1,0,0,0,3,1.31A8.32,8.32,0,0,1,51.12,58.48Zm20.7,11.08a13.38,13.38,0,0,0,3.58-1.09,9.63,9.63,0,0,0,2.94-2l1.42,1.4A11.22,11.22,0,0,1,76,70a14.44,14.44,0,0,1-3.55.77l-.55,12.51-.65-13.07,0-.52Z"/>
      <path class="cls-2" d="M77.47,92.58l-.52,0Z"/>
      <path class="cls-2" d="M61.77,37.76c.24.56.43,1.13.61,1.7.36,1.15.66,2.32.93,3.49a65.36,65.36,0,0,1,1.25,7.14l.12,1.27A17.88,17.88,0,0,0,69.94,49a3.85,3.85,0,0,0,1-1,1.38,1.38,0,0,0,.21-.54,4.44,4.44,0,0,0,.08-.77c0-1.07,0-2.19-.06-3.31l-.08-.15,0-.28v0c-.24-3.84-.65-7.69-1.11-11.53h.18c-.15-.7-.28-1.4-.43-2.09.08.69.17,1.39.25,2.09H54.69c.37.23.76.45,1.13.7A30.63,30.63,0,0,1,58.47,34a14.66,14.66,0,0,1,2.34,2.25A3.35,3.35,0,0,1,61.77,37.76Z"/>
      <path d="M51.33,58.1a30.21,30.21,0,0,1-2.7-1.94A38.51,38.51,0,0,1,44,51.89a9.23,9.23,0,0,1-.05-2,21.27,21.27,0,0,1,.3-2.35c.14-.78.3-1.57.49-2.35l.21-.8c.55.4,1.11.79,1.68,1.16a26,26,0,0,0,6.14,3,25.93,25.93,0,0,1-5.54-3.83c-.65-.59-1.27-1.2-1.88-1.82v-.06l-.09,0c-.15-.15-.31-.28-.45-.43-.76-.81-1.52-1.66-2.18-2.5l-1.49,1.34c.42.39.84.76,1.26,1.12-.13.8-.22,1.56-.31,2.35s-.16,1.69-.2,2.55a24.86,24.86,0,0,0,0,2.59,9.77,9.77,0,0,0,.47,2.7l.08.25.13.11a40,40,0,0,0,5.57,4c1,.58,2,1.13,3,1.61a8.32,8.32,0,0,0,3.24.93A8.1,8.1,0,0,1,51.33,58.1Z"/>
      <path d="M71.91,83.24l.55-12.51A14.44,14.44,0,0,0,76,70a11.22,11.22,0,0,0,3.75-2.13l-1.42-1.4a9.63,9.63,0,0,1-2.94,2,13.38,13.38,0,0,1-3.58,1.09l-.58.09,0,.52Z"/>
      <path d="M89.61,31.4l-3,5.28-.11.18V37a21.23,21.23,0,0,1-.35,2.56,25.88,25.88,0,0,1-.64,2.56,14.42,14.42,0,0,1-2.39,4.72,15.16,15.16,0,0,0,3.28-4.35,26.68,26.68,0,0,0,1.93-4.94l.47-.83,3.88-1.21-.38-.92-3.26,1.71,2.75-4.79-.21-.12h-2Z"/>
      <path d="M58.47,34a30.63,30.63,0,0,0-2.65-1.91c-.37-.25-.76-.47-1.13-.7H49.18l-.07.2c1,.24,2,.53,3,.84s2,.63,3,1,2,.76,2.93,1.21a14.62,14.62,0,0,1,2.74,1.62A14.66,14.66,0,0,0,58.47,34Z"/>
      <path d="M70,31.4c.46,3.84.87,7.69,1.11,11.53v0l0,.28.08.15c.06,1.12.11,2.24.06,3.31a4.44,4.44,0,0,1-.08.77,1.38,1.38,0,0,1-.21.54,3.85,3.85,0,0,1-1,1,17.88,17.88,0,0,1-5.26,2.32l-.12-1.27A65.36,65.36,0,0,0,63.31,43c-.27-1.17-.57-2.34-.93-3.49-.18-.57-.37-1.14-.61-1.7a3.35,3.35,0,0,0-1-1.5,3.3,3.3,0,0,1,.83,1.55,16.79,16.79,0,0,1,.47,1.72c.27,1.17.47,2.35.65,3.53a63.07,63.07,0,0,1,.67,7.11,22.22,22.22,0,0,1-.09,3.48,3.82,3.82,0,0,1-.17.72,2.62,2.62,0,0,1-.35.52,7.66,7.66,0,0,1-.57.57c-.2.18-.42.36-.64.53A14.16,14.16,0,0,1,58.7,57.7a7.82,7.82,0,0,1-3.07.71v2a9.36,9.36,0,0,0,3.83-1.07,15.74,15.74,0,0,0,3.18-2.09A10.11,10.11,0,0,0,64,55.85a3.62,3.62,0,0,0,.56-1,5.23,5.23,0,0,0,.17-1c0-.13,0-.26,0-.39a28.83,28.83,0,0,0,3-1.14l.82-.4a14.67,14.67,0,0,0,1.62-.93c.26-.17.52-.36.77-.56a5.34,5.34,0,0,0,1.36-1.56,3,3,0,0,0,.36-1.11,6.52,6.52,0,0,0,0-1c0-.5-.06-1-.11-1.45a10.58,10.58,0,0,0,.93.83,10,10,0,0,0,3.07,1.61,12.94,12.94,0,0,0,6.79.11l-.48-1.94a11.06,11.06,0,0,1-5.79.12,8.1,8.1,0,0,1-2.58-1.24,7.9,7.9,0,0,1-1.82-1.83l1.46-8.69c1.08.48,2.17.92,3.3,1.3a20.5,20.5,0,0,0,2.24.61,10.52,10.52,0,0,0,1.87.25,11.07,11.07,0,0,1-.08,1.72,14.11,14.11,0,0,1-.42,2.21,17.37,17.37,0,0,1-1.73,4.22c.23-.31.44-.63.65-1a18.36,18.36,0,0,0,1.56-3.1,16,16,0,0,0,.68-2.24,14.31,14.31,0,0,0,.34-2.35l0-.47-.54,0a8.9,8.9,0,0,1-2-.46,19.26,19.26,0,0,1-2-.8,34.71,34.71,0,0,1-3.51-1.88l.14-.86h-1.4l-1.49,8.11c-.47-2.72-1-5.42-1.56-8.11H70Z"/>
      <path d="M47.72,70.84a26.22,26.22,0,0,0,4.16,1.79,30.72,30.72,0,0,0,9.34,1.59h.09l6-1.62-6.12.9a30.55,30.55,0,0,1-8.76-2.4A25.13,25.13,0,0,1,48,68.55l-.18-.13a26.09,26.09,0,0,1-2.77-2.29c-2.21-2.08-4.23-4.38-6.33-6.56a44,44,0,0,1-5.17-6.79,99.3,99.3,0,0,1,1.57-11.09A95.71,95.71,0,0,1,37.76,31.4H34.62a96.36,96.36,0,0,0-2.43,9.71A101.3,101.3,0,0,0,30.52,53l0,.46.24.4a51.26,51.26,0,0,0,5.75,7.7A45.29,45.29,0,0,0,43,67.69l.44.36c.18.14.37.26.56.4.35.27.7.54,1.07.79l.52,18.28.09-.72Z"/>
      <path d="M94.41,31.4c-.06.75-.12,1.51-.21,2.28-.22,2-.51,4.09-.84,6.13a113,113,0,0,1-2.5,11.84c-1.56,2.25-3.28,4.48-5,6.68s-3.61,4.52-5.45,6.75l-.41.49.07.64,2.79,23.41c-1.06,0-2.12,0-3.18,0-1.62,0-3.25.13-4.87.19l-9.74.42c-6.49.28-13,.56-19.48.91,6.49.36,13,.64,19.48.91l9.74.43c.72,0,1.44.06,2.15.09l.52,0,2.2.08c1.62,0,3.25,0,4.87,0h1.69L86,91,83.12,66.48c1.72-2.08,3.41-4.17,5.08-6.29,1.81-2.3,3.59-4.6,5.28-7.06l.14-.2.06-.22a110.47,110.47,0,0,0,2.64-12.43c.34-2.08.64-4.17.87-6.28.09-.86.17-1.73.23-2.6h-3Z"/>
    </g>
  </g>
</svg>
