<svg xmlns="http://www.w3.org/2000/svg" xmlns:xlink="http://www.w3.org/1999/xlink" viewBox="0 0 182 182">
  <defs>
    <style>
      .cls-1 {
        fill: none;
      }

      .cls-2 {
        fill: #e6e1dc;
      }

      .cls-3 {
        clip-path: url(#clip-path);
      }
    </style>
    <clipPath id="clip-path">
      <rect class="cls-1" x="21.92" y="81.13" width="137.35" height="99.8"/>
    </clipPath>
  </defs>
  <title>i-fistmutator</title>
  <g id="dialog">
    <g>
      <g>
        <polygon class="cls-2" points="150.19 63.22 139.42 66.58 149.4 61.31 150.19 63.22"/>
        <path class="cls-2" d="M112,56.09a73.67,73.67,0,0,0,7.94,4.28A41,41,0,0,0,124.08,62a18.35,18.35,0,0,0,4.23.93l1.11.08-.08,1a30.14,30.14,0,0,1-.69,4.85,32.81,32.81,0,0,1-1.42,4.61,36.06,36.06,0,0,1-4.55,8.37,35.27,35.27,0,0,0,3.56-8.69,29.83,29.83,0,0,0,.88-4.56,28.07,28.07,0,0,0,.16-4.58l1,1a20.28,20.28,0,0,1-4.9-.51,43.46,43.46,0,0,1-4.61-1.27A74.45,74.45,0,0,1,110,59.68Z"/>
        <path class="cls-2" d="M71.13,112.46a17.17,17.17,0,0,1-6.67-1.92,67.46,67.46,0,0,1-6.16-3.31A81.82,81.82,0,0,1,46.83,99l-.26-.23-.18-.51a21,21,0,0,1-1-5.57,50.25,50.25,0,0,1,0-5.35c.08-1.76.22-3.52.41-5.26s.41-3.45.71-5.25l6,1.42c-.46,1.52-.89,3.17-1.27,4.76s-.73,3.23-1,4.85a45.27,45.27,0,0,0-.62,4.83,17.44,17.44,0,0,0,.15,4.55l-.44-.74a79.57,79.57,0,0,0,10,9.23,65.83,65.83,0,0,0,5.57,4A16.75,16.75,0,0,0,71.13,112.46Z"/>
        <path class="cls-2" d="M47,72.21c1.36,1.73,2.92,3.48,4.5,5.14s3.25,3.27,5,4.8a53,53,0,0,0,11.42,7.91,54.19,54.19,0,0,1-12.67-6.27c-2-1.3-3.92-2.68-5.8-4.15s-3.68-3-5.49-4.68Z"/>
        <path class="cls-2" d="M102.91,50.41c2,9.46,3.9,18.92,5.31,28.54A72.23,72.23,0,0,1,109,86.3a15.7,15.7,0,0,1,0,2,6.12,6.12,0,0,1-.74,2.28,11.12,11.12,0,0,1-2.8,3.2,31,31,0,0,1-6.63,3.9,57.56,57.56,0,0,1-7,2.64l-1.06-4c4.4-1.18,9-2.78,12.59-5.3a7.92,7.92,0,0,0,2-2.09,3.09,3.09,0,0,0,.44-1.12,12,12,0,0,0,.16-1.58c.11-2.29,0-4.71-.12-7.09C105.19,69.61,104.09,60,102.91,50.41Z"/>
        <polygon class="cls-2" points="119.19 36.84 120.8 41.78 118.75 42.02 119.19 36.84"/>
        <path class="cls-2" d="M123.49,129.81a23.09,23.09,0,0,1-7.73,4.38,29.72,29.72,0,0,1-8.41,1.69l1.14-1.26-1.19,27-1.33-27,0-1.07,1.19-.19a26.59,26.59,0,0,0,7.39-2.25,19.78,19.78,0,0,0,6-4.2Z"/>
        <path class="cls-2" d="M136.16,36.63a28.3,28.3,0,0,0-7.79-1.14,5.48,5.48,0,0,0-1.68.3c-.52.19-.46.34-1.08.88-1,.87-1.85,1.83-2.73,2.79A104.64,104.64,0,0,0,113.31,52l.21-.52-4.63,27.62-.17-1a15.59,15.59,0,0,0,4,4.18,16.86,16.86,0,0,0,5.32,2.55A22.71,22.71,0,0,0,130,84.57l1,4a26.66,26.66,0,0,1-14-.23A20.49,20.49,0,0,1,110.67,85a18.56,18.56,0,0,1-4.79-5.41l-.27-.48.1-.57,5-27.55.06-.3.15-.22a105.64,105.64,0,0,1,10-12.78c.94-1,1.89-2,2.92-2.89l.38-.35.2-.18.34-.23a3.67,3.67,0,0,1,1.35-.44,7.3,7.3,0,0,1,2.31.09A28.73,28.73,0,0,1,136.16,36.63Z"/>
        <path class="cls-2" d="M84.42,64.74a7,7,0,0,1,2,3.09c.48,1.15.88,2.33,1.26,3.51.74,2.37,1.35,4.78,1.91,7.2a139,139,0,0,1,2.57,14.7,46.69,46.69,0,0,1,.37,7.63,10.68,10.68,0,0,1-.34,2.16A7.51,7.51,0,0,1,91,105.12,20.88,20.88,0,0,1,88.19,108a32,32,0,0,1-6.54,4.31,19.58,19.58,0,0,1-7.91,2.21V110.4a15.94,15.94,0,0,0,6.34-1.48,27.78,27.78,0,0,0,6-3.52,17,17,0,0,0,2.49-2.26,5.39,5.39,0,0,0,.73-1.08,7.94,7.94,0,0,0,.34-1.48,44.69,44.69,0,0,0,.2-7.17,136.85,136.85,0,0,0-1.39-14.66c-.36-2.43-.79-4.86-1.33-7.26-.28-1.2-.59-2.39-1-3.56A6.9,6.9,0,0,0,84.42,64.74Z"/>
        <path class="cls-2" d="M130.48,86.57a29.79,29.79,0,0,0,4.94-9.74,50.51,50.51,0,0,0,1.31-5.26,45.71,45.71,0,0,0,.74-5.29l0-.29.21-.38,7.07-12.67,3.59,2-7.21,12.59.23-.67a50,50,0,0,1-1.79,5.51,52.93,52.93,0,0,1-2.35,5.2A30.47,30.47,0,0,1,130.48,86.57Z"/>
        <path class="cls-2" d="M74.57,29.4a57.43,57.43,0,0,1,8.25,3.94,67.5,67.5,0,0,1,7.41,5,81.21,81.21,0,0,1,12.68,12.09,80,80,0,0,0-14.34-9.48,64.14,64.14,0,0,0-7.72-3.39,52,52,0,0,0-7.94-2.18Z"/>
        <path class="cls-2" d="M95.84,19.09c4.41,2.38,8.63,4.87,12.76,7.62a70.67,70.67,0,0,1,6,4.4,26.22,26.22,0,0,1,2.71,2.56,7.38,7.38,0,0,1,1.9,3.16,7.13,7.13,0,0,0-2.41-2.59,25.7,25.7,0,0,0-3.07-1.84,66.54,66.54,0,0,0-6.55-3c-4.46-1.76-9.08-3.29-13.63-4.61Z"/>
        <path class="cls-2" d="M62.45,49.34c2.07,1,4,2.14,6,3.27s3.86,2.31,5.74,3.55,3.71,2.53,5.46,3.94a30.7,30.7,0,0,1,4.82,4.64,29.52,29.52,0,0,0-5.65-3.33,64.76,64.76,0,0,0-6-2.49c-2-.75-4.11-1.43-6.2-2.06s-4.19-1.23-6.24-1.72Z"/>
        <path class="cls-2" d="M97.9,139.64,85.45,143l-.06,0h-.11A62.66,62.66,0,0,1,66,139.69a56.3,56.3,0,0,1-17.42-9.44A95.64,95.64,0,0,1,34.26,117,105.08,105.08,0,0,1,22.4,101.11l-.48-.82.08-1a209.26,209.26,0,0,1,3.43-24.59,194.84,194.84,0,0,1,6.28-24.06l.15-.45.28-.37a87.74,87.74,0,0,1,5.93-6.92q3-3.24,6.13-6.37c4.13-4.18,8.33-8.26,12.59-12.29s8.57-8,13-11.9C72,10.43,74.2,8.5,76.5,6.62c1.15-1,2.32-1.88,3.55-2.8.62-.46,1.25-.91,1.94-1.37.36-.23.72-.46,1.17-.7a7.3,7.3,0,0,1,.78-.37A4.43,4.43,0,0,1,85.64,1h.17L86,1A127.74,127.74,0,0,1,99.47,3.61a102.24,102.24,0,0,1,13.07,4.15A86.08,86.08,0,0,1,136.43,21.5l.48.4.29.57a32.51,32.51,0,0,1,2.11,5.35,27.07,27.07,0,0,1,.67,2.83,19.51,19.51,0,0,1,.35,3.13l-2-2.87a68.82,68.82,0,0,1,11.12,5.58,34.2,34.2,0,0,1,9.78,8.64l.34.47.11.52a17.91,17.91,0,0,1,.36,4c0,1.17-.05,2.29-.11,3.41-.13,2.22-.34,4.41-.57,6.58-.48,4.35-1.09,8.65-1.78,12.94a232.19,232.19,0,0,1-5.45,25.61l-.13.47-.27.4c-3.49,5.08-7.17,9.81-10.88,14.55s-7.5,9.38-11.33,14l.69-2.34,6.16,51.74.41,3.46h-3.48c-3.35,0-6.69.11-10,0s-6.69-.26-10-.39l-20.07-.87c-13.39-.56-26.77-1.15-40.15-1.88,13.38-.72,26.76-1.31,40.15-1.87l20.07-.87c3.35-.13,6.69-.33,10-.4s6.69.06,10,.05l-3.07,3.46-6.16-51.74-.16-1.31.85-1c3.79-4.58,7.55-9.22,11.23-13.89s7.33-9.4,10.61-14.19l-.4.87a229.6,229.6,0,0,0,5.28-24.87c.67-4.2,1.27-8.42,1.73-12.63.23-2.1.43-4.2.55-6.27,0-1,.1-2.06.1-3a14.25,14.25,0,0,0-.17-2.44l.46,1a28.37,28.37,0,0,0-8-6.93,62.34,62.34,0,0,0-10.1-5.07l-1.9-.75-.06-2.13a15.07,15.07,0,0,0-.24-2,21.5,21.5,0,0,0-.53-2.21,26.28,26.28,0,0,0-1.69-4.3l.76,1a80.1,80.1,0,0,0-22.15-12.7A95.84,95.84,0,0,0,98,9.61,121.84,121.84,0,0,0,85.23,7.16l.41,0c.6,0,.65-.11.64-.09l-.2.1c-.2.11-.45.26-.71.43-.52.34-1.08.74-1.63,1.15-1.11.82-2.22,1.71-3.32,2.62C78.21,13.21,76,15.1,73.86,17Q67.35,22.76,61,28.76c-4.21,4-8.38,8-12.45,12.15-2,2.06-4,4.13-6,6.23a81.55,81.55,0,0,0-5.46,6.36l.43-.82a189.54,189.54,0,0,0-6.07,23.26,204.78,204.78,0,0,0-3.33,23.85L27.75,98a90.23,90.23,0,0,0,11.16,14.77c4.33,4.5,8.49,9.24,13.06,13.53a52.12,52.12,0,0,0,15.27,10.25,63.69,63.69,0,0,0,18.07,4.95h-.16Z"/>
        <polygon class="cls-2" points="53.04 170.38 51.9 130.75 58.08 131.05 53.04 170.38"/>
      </g>
      <g class="cls-3">
        <g>
          <path class="cls-2" d="M158.38,60.31c.28-2.61.46-4.63.57-6.56.05-1,.11-2.16.11-3.38v-.49a15.39,15.39,0,0,0-.34-3.38l-.09-.41-.28-.38a33.65,33.65,0,0,0-9.64-8.52,67.67,67.67,0,0,0-9.27-4.79l-.26-.11,0-.29c0-.32-.11-.65-.16-1-.17-.91-.39-1.85-.66-2.78A32,32,0,0,0,136.23,23L136,22.5l-.39-.33A85,85,0,0,0,111.85,8.51a102.82,102.82,0,0,0-13-4.12A126.89,126.89,0,0,0,85.46,1.82l-.23,0h-.08a4,4,0,0,0-1.39.29l-.15,0a7.87,7.87,0,0,0-.71.35,11.23,11.23,0,0,0-1.13.68c-.69.44-1.31.89-1.92,1.35-1.35,1-2.6,2-3.53,2.78-2,1.63-4.13,3.46-6.72,5.74-4.07,3.6-8.3,7.48-13,11.88S48,33.26,44.06,37.2c-2.42,2.45-4.37,4.47-6.12,6.36l-.15.16A84.84,84.84,0,0,0,32,50.43l-.22.3-.13.38a193.76,193.76,0,0,0-6.26,24A212.69,212.69,0,0,0,22,99.64l-.06.8.4.68a105,105,0,0,0,11.8,15.77,95.5,95.5,0,0,0,14.28,13.23c1,.8,2.09,1.6,3.32,2.44l.22.15V133L53,170.64v7c13.62.73,27.11,1.32,39.66,1.85l20.08.86,3.56.16c2.15.1,4.31.2,6.46.24,2,0,4,0,5.93,0,1.36,0,2.7,0,4.1,0h2.9l-6.37-53.54.14-.17c4.09-5,7.42-9.09,10.47-13,3.77-4.79,7.43-9.51,10.87-14.52l.22-.33.11-.39a233.72,233.72,0,0,0,5.44-25.55C157.37,68.45,158,64.23,158.38,60.31Z"/>
          <g>
            <path d="M45.43,87.37a50.25,50.25,0,0,0,0,5.35,21,21,0,0,0,1,5.57l.18.51.26.23a81.82,81.82,0,0,0,11.47,8.2,67.46,67.46,0,0,0,6.16,3.31,17.17,17.17,0,0,0,6.67,1.92,16.75,16.75,0,0,1-6.25-2.7,65.83,65.83,0,0,1-5.57-4A80.83,80.83,0,0,1,49.77,97a18,18,0,0,1-.12-4.24,45.27,45.27,0,0,1,.62-4.83c.29-1.62.63-3.24,1-4.85.13-.55.28-1.1.42-1.65,1.14.82,2.29,1.63,3.46,2.4a54.19,54.19,0,0,0,12.67,6.27,53,53,0,0,1-11.42-7.91c-1.35-1.2-2.62-2.47-3.89-3.75l0-.12-.19,0c-.3-.31-.63-.58-.92-.89-1.58-1.66-3.14-3.41-4.5-5.14L43.88,75c.87.81,1.73,1.58,2.61,2.32-.27,1.64-.47,3.22-.65,4.83S45.51,85.61,45.43,87.37Z"/>
            <path d="M108.44,135.78a29.39,29.39,0,0,0,7.32-1.59,23.09,23.09,0,0,0,7.73-4.38l-2.94-2.89a19.78,19.78,0,0,1-6,4.2,26.59,26.59,0,0,1-7.39,2.25l-1.19.19,0,1.07,1.33,27Z"/>
            <path d="M90.23,38.32a67.5,67.5,0,0,0-7.41-5,57.43,57.43,0,0,0-8.25-3.94l-1.66,6a52,52,0,0,1,7.94,2.18,64.14,64.14,0,0,1,7.72,3.39,80,80,0,0,1,14.34,9.48A81.21,81.21,0,0,0,90.23,38.32Z"/>
            <path d="M114.58,31.11a70.67,70.67,0,0,0-6-4.4c-4.13-2.75-8.35-5.24-12.76-7.62l-2.31,5.74c4.55,1.32,9.17,2.85,13.63,4.61a66.54,66.54,0,0,1,6.55,3,25.7,25.7,0,0,1,3.07,1.84,7.13,7.13,0,0,1,2.41,2.59,7.38,7.38,0,0,0-1.9-3.16A26.22,26.22,0,0,0,114.58,31.11Z"/>
            <path d="M79.6,60.1c-1.75-1.41-3.59-2.71-5.46-3.94s-3.79-2.42-5.74-3.55-3.88-2.22-6-3.27l-2.15,5.8c2.05.49,4.17,1.1,6.24,1.72s4.15,1.31,6.2,2.06a64.76,64.76,0,0,1,6,2.49,29.52,29.52,0,0,1,5.65,3.33A30.7,30.7,0,0,0,79.6,60.1Z"/>
            <path d="M159.72,46.12l-.11-.52-.34-.47a34.2,34.2,0,0,0-9.78-8.64,68.45,68.45,0,0,0-9.35-4.84c0-.33-.1-.65-.16-1a27.07,27.07,0,0,0-.67-2.83,32.51,32.51,0,0,0-2.11-5.35l-.29-.57-.48-.4A86.08,86.08,0,0,0,112.54,7.76,102.24,102.24,0,0,0,99.47,3.61,127.74,127.74,0,0,0,86,1l-.23,0h-.17a4.43,4.43,0,0,0-1.7.37,7.3,7.3,0,0,0-.78.37c-.45.24-.81.47-1.17.7-.69.46-1.32.91-1.94,1.37-1.23.92-2.4,1.85-3.55,2.8C74.2,8.5,72,10.43,69.77,12.37c-4.41,3.9-8.72,7.87-13,11.9S48.33,32.38,44.2,36.56q-3.11,3.13-6.13,6.37a87.74,87.74,0,0,0-5.93,6.92l-.28.37-.15.45a194.84,194.84,0,0,0-6.28,24.06A209.26,209.26,0,0,0,22,99.32l-.08,1,.48.82A105.08,105.08,0,0,0,34.26,117a95.64,95.64,0,0,0,14.35,13.29c1.07.86,2.2,1.68,3.35,2.46L53,170.39,57.44,136A54.25,54.25,0,0,0,66,139.69,62.66,62.66,0,0,0,85.28,143h.11l.06,0,12.45-3.33L85.28,141.5a63.15,63.15,0,0,1-18-4.94,51.64,51.64,0,0,1-9.19-5.26l0-.25-.4,0A52.19,52.19,0,0,1,52,126.31c-4.57-4.29-8.73-9-13.06-13.53a90.93,90.93,0,0,1-10.65-14,203.12,203.12,0,0,1,3.23-22.86,191.6,191.6,0,0,1,5.92-22.8c1.52-2,3.36-4,5.18-6s4-4.17,6-6.23c4.07-4.12,8.24-8.16,12.45-12.15S69.52,20.84,73.86,17c2.17-1.91,4.35-3.8,6.56-5.61,1.1-.91,2.21-1.8,3.32-2.62.55-.41,1.11-.81,1.63-1.15.21-.14.41-.25.58-.35A113.35,113.35,0,0,1,98,9.61a95.84,95.84,0,0,1,12.32,3.91,80.48,80.48,0,0,1,21.64,12.29,25.75,25.75,0,0,1,1.44,3.74,21.5,21.5,0,0,1,.53,2.21,15.07,15.07,0,0,1,.24,2l.05,1.89a24.4,24.4,0,0,0-5.7-2,7.3,7.3,0,0,0-2.31-.09,3.67,3.67,0,0,0-1.35.44l-.34.23-.2.18-.38.35c-1,.92-2,1.9-2.92,2.89-.38.41-.74.83-1.11,1.25l-.69-2.14-.27,3.23a111,111,0,0,0-8,10.44l-.15.22-.06.3L107,71.43c-1.22-7.05-2.64-14-4.11-21,1.15,9.35,2.22,18.73,2.81,28.08v.08l-.1.57.18.32a67.9,67.9,0,0,1,.11,6.82,12,12,0,0,1-.16,1.58A3.09,3.09,0,0,1,105.3,89a7.92,7.92,0,0,1-2,2.09A36.73,36.73,0,0,1,92.4,95.86c-.07-.88-.16-1.75-.25-2.62a139,139,0,0,0-2.57-14.7c-.56-2.42-1.17-4.83-1.91-7.2-.38-1.18-.78-2.36-1.26-3.51a7,7,0,0,0-2-3.09,6.9,6.9,0,0,1,1.72,3.19c.38,1.17.69,2.36,1,3.56.54,2.4,1,4.83,1.33,7.26a136.85,136.85,0,0,1,1.39,14.66,44.69,44.69,0,0,1-.2,7.17,7.94,7.94,0,0,1-.34,1.48,5.39,5.39,0,0,1-.73,1.08,17,17,0,0,1-2.49,2.26,27.78,27.78,0,0,1-6,3.52,15.94,15.94,0,0,1-6.34,1.48v4.12a19.58,19.58,0,0,0,7.91-2.21A32,32,0,0,0,88.19,108,20.88,20.88,0,0,0,91,105.12,7.51,7.51,0,0,0,92.18,103a10.68,10.68,0,0,0,.34-2.16c0-.27,0-.53,0-.79a59,59,0,0,0,6.22-2.37,31,31,0,0,0,6.63-3.9,11.12,11.12,0,0,0,2.8-3.2,6.12,6.12,0,0,0,.74-2.28,15.7,15.7,0,0,0,0-2c0-1-.14-2-.24-3A22.85,22.85,0,0,0,110.67,85,20.49,20.49,0,0,0,117,88.34a26.66,26.66,0,0,0,14,.23l-.5-2a30.47,30.47,0,0,0,6.76-9,52.93,52.93,0,0,0,2.35-5.2,51.41,51.41,0,0,0,1.63-5l1-1.72,8-2.49-.8-1.91-6.71,3.54L148.36,55l-3.59-2L137.7,65.61l-.21.38,0,.29a45.71,45.71,0,0,1-.74,5.29,50.51,50.51,0,0,1-1.31,5.26,29.79,29.79,0,0,1-4.94,9.74l-.49-2a22.71,22.71,0,0,1-11.93.25,16.86,16.86,0,0,1-5.32-2.55A15.82,15.82,0,0,1,109,78.48l3-17.9c2.23,1,4.47,1.9,6.8,2.67a43.46,43.46,0,0,0,4.61,1.27,22.39,22.39,0,0,0,3.87.5,23.44,23.44,0,0,1-.16,3.55,29.83,29.83,0,0,1-.88,4.56,35.27,35.27,0,0,1-3.56,8.69,36.06,36.06,0,0,0,4.55-8.37,32.81,32.81,0,0,0,1.42-4.61,30.14,30.14,0,0,0,.69-4.85l.08-1L128.31,63a18.35,18.35,0,0,1-4.23-.93,41,41,0,0,1-4.16-1.66,71.79,71.79,0,0,1-7.24-3.88l.79-4.69a102.78,102.78,0,0,1,9.41-12.34c.88-1,1.78-1.92,2.73-2.79.62-.54.56-.69,1.08-.88a5.48,5.48,0,0,1,1.68-.3,27.66,27.66,0,0,1,7.44,1l.29.12a62.34,62.34,0,0,1,10.1,5.07,29.32,29.32,0,0,1,7.61,6.48c.05.52.09,1.24.09,1.9,0,1-.05,2-.1,3-.12,2.07-.32,4.17-.55,6.27-.46,4.21-1.06,8.43-1.73,12.63a231.09,231.09,0,0,1-5.16,24.4c-3.21,4.65-6.77,9.25-10.33,13.79s-7.44,9.31-11.23,13.89l-.85,1,.16,1.31,5.74,48.25c-2.18,0-4.37-.06-6.55,0-3.35.07-6.69.27-10,.4L93.19,176c-13.39.56-26.77,1.15-40.15,1.87,13.38.73,26.76,1.32,40.15,1.88l20.07.87c3.35.13,6.69.33,10,.39s6.69,0,10,0h3.48l-.41-3.46-6-50.44c3.54-4.3,7-8.6,10.49-13,3.71-4.74,7.39-9.47,10.88-14.55l.27-.4.13-.47A232.19,232.19,0,0,0,157.62,73c.69-4.29,1.3-8.59,1.78-12.94.23-2.17.44-4.36.57-6.58.06-1.12.11-2.24.11-3.41A17.91,17.91,0,0,0,159.72,46.12Z"/>
          </g>
        </g>
      </g>
    </g>
  </g>
</svg>
