<svg viewBox="0 0 128 98" xmlns="http://www.w3.org/2000/svg"><path d="m49.77 57.8c-.56-.3-1.1-.61-1.63-.93a40 40 0 0 1 -5.57-4l-.13-.11-.08-.25a9.77 9.77 0 0 1 -.47-2.7 24.86 24.86 0 0 1 0-2.59c0-.86.11-1.71.2-2.55s.18-1.55.31-2.35c-.42-.36-.84-.73-1.26-1.12l1.49-1.34c.66.84 1.42 1.69 2.18 2.5.14.15.3.28.45.43h.09v.06c.61.62 1.23 1.23 1.88 1.82a25.93 25.93 0 0 0 5.54 3.83 26 26 0 0 1 -6.14-3c-.57-.37-1.13-.76-1.68-1.16l-.21.8c-.19.78-.35 1.57-.49 2.35a21.27 21.27 0 0 0 -.3 2.35 9.23 9.23 0 0 0 .05 2 38.51 38.51 0 0 0 4.64 4.27c.72.58 1.47 1.12 2.25 1.64h7.57l.25-.1a14.42 14.42 0 0 0 2.9-1.65c.22-.17.44-.35.64-.53a7.66 7.66 0 0 0 .57-.57 2.62 2.62 0 0 0 .35-.52 3.82 3.82 0 0 0 .17-.72 22.22 22.22 0 0 0 .09-3.48 65.49 65.49 0 0 0 -.67-7.11c-.18-1.18-.38-2.36-.65-3.53a16.79 16.79 0 0 0 -.47-1.72 3.3 3.3 0 0 0 -.83-1.55 14.62 14.62 0 0 0 -2.74-1.62c-1-.45-1.94-.84-2.93-1.21s-2-.69-3-1-2-.6-3-.84l1-2.81c1 .51 1.94 1 2.89 1.58s1.87 1.12 2.78 1.73a30.63 30.63 0 0 1 2.66 1.9 14.66 14.66 0 0 1 2.34 2.25 3.46 3.46 0 0 1 1 1.5c.23.56.42 1.13.6 1.7.36 1.15.66 2.32.93 3.49a65.36 65.36 0 0 1 1.25 7.14l.12 1.27a17.88 17.88 0 0 0 5.23-2.35 3.85 3.85 0 0 0 1-1 1.38 1.38 0 0 0 .21-.54 4.44 4.44 0 0 0 .08-.77c0-1.07 0-2.19-.06-3.31l-.08-.15v-.28c-.28-4.54-.8-9.09-1.36-13.62a38.65 38.65 0 0 0 -7-4.6 30.29 30.29 0 0 0 -3.75-1.65 24.15 24.15 0 0 0 -3.85-1l.87-2.96a28.25 28.25 0 0 1 4 1.88 33.27 33.27 0 0 1 3.6 2.42 39.34 39.34 0 0 1 6.15 5.87c.71 3.38 1.4 6.78 2 10.2l1.81-9.91v-.14l.07-.11a56 56 0 0 1 3.86-5.07l.14-1.56a3.45 3.45 0 0 0 -1.17-1.26 14 14 0 0 0 -1.46-.87 33.64 33.64 0 0 0 -3.18-1.44c-2.16-.85-4.4-1.6-6.61-2.23l1.12-2.79c2.14 1.16 4.19 2.36 6.19 3.7a31.76 31.76 0 0 1 2.9 2.13 15.48 15.48 0 0 1 1.32 1.24 3.65 3.65 0 0 1 .92 1.54l.33 1 .54-.6c.46-.48.92-1 1.42-1.4l.18-.17.1-.09.16-.11a1.9 1.9 0 0 1 .66-.22 3.74 3.74 0 0 1 1.12.05 11.9 11.9 0 0 1 2.77.94v-.91a5.76 5.76 0 0 0 -.12-1 10.52 10.52 0 0 0 -.25-1.08 12.51 12.51 0 0 0 -.7-1.81 39.11 39.11 0 0 0 -10.5-6 47.25 47.25 0 0 0 -6-1.9 57.14 57.14 0 0 0 -5.83-1.13l-.28.17c-.26.17-.52.36-.79.56-.54.4-1.08.83-1.61 1.27-1.07.88-2.14 1.79-3.19 2.72-2.1 1.86-4.17 3.77-6.22 5.7s-4.06 3.9-6 5.9c-1 1-2 2-2.91 3s-1.77 2-2.51 2.91a93.46 93.46 0 0 0 -2.87 11.06 99.3 99.3 0 0 0 -1.57 11.09 41.38 41.38 0 0 0 3.62 5h12.56z" fill="none"/><path d="m93.36 39.81c.33-2 .62-4.09.84-6.13.11-1 .21-2 .27-3 0-.5 0-1 0-1.48a8.36 8.36 0 0 0 0-.92 14.15 14.15 0 0 0 -3.69-3.15 30.75 30.75 0 0 0 -4.9-2.46l-.14-.05a13 13 0 0 0 -3.61-.51 2.56 2.56 0 0 0 -.82.14c-.24.1-.22.17-.52.43-.46.42-.89.89-1.32 1.35a49.34 49.34 0 0 0 -4.57 6l-.38 2.28a34.71 34.71 0 0 0 3.48 1.83 19.26 19.26 0 0 0 2 .8 8.9 8.9 0 0 0 2 .46h.54v.47a14.31 14.31 0 0 1 -.34 2.35 16 16 0 0 1 -.68 2.24 18.36 18.36 0 0 1 -1.52 3.13c-.21.33-.42.65-.65 1a17.37 17.37 0 0 0 1.73-4.22 14.11 14.11 0 0 0 .42-2.21 11.07 11.07 0 0 0 .08-1.72 10.52 10.52 0 0 1 -1.87-.25 20.5 20.5 0 0 1 -2.24-.61c-1.13-.38-2.22-.82-3.3-1.3l-1.46 8.69a7.9 7.9 0 0 0 1.82 1.83 8.1 8.1 0 0 0 2.6 1.2 11 11 0 0 0 5.78-.12l.24 1a14.25 14.25 0 0 0 2.4-4.72 25.88 25.88 0 0 0 .64-2.56 21.23 21.23 0 0 0 .35-2.6v-.15l.11-.18 3.43-6.15 1.74 1-2.75 4.79 3.26-1.71.38.92-3.88 1.21-.47.83a26.68 26.68 0 0 1 -1.93 4.94 15 15 0 0 1 -3.29 4.35l.25 1a12.94 12.94 0 0 1 -6.79-.11 10 10 0 0 1 -3.07-1.61 10.58 10.58 0 0 1 -.93-.83c0 .47.09.95.11 1.45a6.52 6.52 0 0 1 0 1 3 3 0 0 1 -.36 1.11 5.34 5.34 0 0 1 -1.35 1.51c-.25.2-.51.39-.77.56a14.67 14.67 0 0 1 -1.62.93l-.82.4a28.83 28.83 0 0 1 -3 1.14v.39a5.23 5.23 0 0 1 -.17 1 3.62 3.62 0 0 1 -.56 1 10.11 10.11 0 0 1 -1.37 1.4c-.24.2-.49.36-.73.55h24.31c1.58-2 3.16-4.08 4.59-6.15a113 113 0 0 0 2.5-11.78z" fill="none"/><g fill="#e6e1dc"><path d="m86.44 42.5a26.68 26.68 0 0 0 1.93-4.94l.47-.83 3.88-1.21-.38-.92-3.26 1.71 2.75-4.79-1.74-1-3.43 6.15-.11.18v.15a21.23 21.23 0 0 1 -.35 2.56 25.88 25.88 0 0 1 -.64 2.56 14.25 14.25 0 0 1 -2.4 4.72 15 15 0 0 0 3.28-4.34z"/><path d="m63.63 23.44a33.27 33.27 0 0 0 -3.63-2.44 28.25 28.25 0 0 0 -4-1.9l-.78 2.9a24.15 24.15 0 0 1 3.85 1 30.29 30.29 0 0 1 3.75 1.65 38.65 38.65 0 0 1 7 4.6 39.34 39.34 0 0 0 -6.19-5.81z"/><path d="m75.44 19.94a31.76 31.76 0 0 0 -2.9-2.13c-2-1.34-4.05-2.54-6.19-3.7l-1.12 2.79c2.21.63 4.45 1.38 6.61 2.23a33.64 33.64 0 0 1 3.16 1.44 14 14 0 0 1 1.49.89 3.45 3.45 0 0 1 1.17 1.26 3.65 3.65 0 0 0 -.92-1.54 15.48 15.48 0 0 0 -1.3-1.24z"/><path d="m58.47 34a30.63 30.63 0 0 0 -2.65-1.91c-.91-.61-1.84-1.18-2.78-1.73s-1.89-1.07-2.89-1.58l-1 2.81c1 .24 2 .53 3 .84s2 .63 3 1 2 .76 2.93 1.21a14.62 14.62 0 0 1 2.74 1.62 14.66 14.66 0 0 0 -2.35-2.26z"/><path d="m36.47 61.6a45.29 45.29 0 0 0 6.53 6.09 45.29 45.29 0 0 1 -6.52-6.09c-1.08-1.23-2.13-2.49-3.12-3.8h3.83a41.38 41.38 0 0 1 -3.62-5 99.3 99.3 0 0 1 1.57-11.09 93.46 93.46 0 0 1 2.86-11.08c.74-1 1.63-1.95 2.51-2.91s1.93-2 2.91-3c2-2 4-4 6-5.9s4.12-3.84 6.22-5.7c1-.93 2.12-1.84 3.19-2.72.53-.44 1.07-.87 1.61-1.27.27-.2.53-.39.79-.56l.28-.17a57.14 57.14 0 0 1 5.83 1.13 47.25 47.25 0 0 1 6 1.9 39.11 39.11 0 0 1 10.5 6 12.51 12.51 0 0 1 .7 1.81 10.52 10.52 0 0 1 .25 1.08 5.76 5.76 0 0 1 .12 1v.91a11.9 11.9 0 0 0 -2.77-.94 3.74 3.74 0 0 0 -1.12-.05 1.9 1.9 0 0 0 -.66.22l-.16.11-.1.09-.18.17c-.5.44-1 .92-1.42 1.4l-.54.6-.33-1-.14 1.56a56 56 0 0 0 -3.86 5.07l-.07.11v.14l-1.81 9.91c-.59-3.42-1.28-6.82-2-10.2.56 4.53 1.08 9.08 1.36 13.62v.28l.08.15c.06 1.12.11 2.24.06 3.31a4.44 4.44 0 0 1 -.08.77 1.38 1.38 0 0 1 -.21.54 3.85 3.85 0 0 1 -1 1 17.88 17.88 0 0 1 -5.26 2.32l-.12-1.27a65.36 65.36 0 0 0 -1.27-7.14c-.27-1.17-.57-2.34-.93-3.49-.18-.57-.37-1.14-.6-1.7a3.46 3.46 0 0 0 -1-1.5 3.3 3.3 0 0 1 .83 1.55 16.79 16.79 0 0 1 .47 1.72c.27 1.17.47 2.35.65 3.53a65.49 65.49 0 0 1 .67 7.11 22.22 22.22 0 0 1 -.09 3.48 3.82 3.82 0 0 1 -.17.72 2.62 2.62 0 0 1 -.35.52 7.66 7.66 0 0 1 -.57.57c-.2.18-.42.36-.64.53a14.42 14.42 0 0 1 -2.88 1.66l-.25.1h-7.57l.45.3a8.1 8.1 0 0 0 3 1.31 8.32 8.32 0 0 1 -3.24-.93c-.46-.21-.91-.45-1.35-.68h1.11c-.78-.52-1.53-1.06-2.25-1.64a38.51 38.51 0 0 1 -4.6-4.27 9.23 9.23 0 0 1 -.05-2 21.27 21.27 0 0 1 .3-2.35c.14-.78.3-1.57.49-2.35l.21-.8c.55.4 1.11.79 1.68 1.16a26 26 0 0 0 6.14 3 25.93 25.93 0 0 1 -5.54-3.83c-.65-.59-1.27-1.2-1.88-1.82v-.06h-.09c-.15-.15-.31-.28-.45-.43-.76-.81-1.52-1.66-2.18-2.5l-1.49 1.34c.42.39.84.76 1.26 1.12-.13.8-.22 1.56-.31 2.35s-.16 1.69-.2 2.55a24.86 24.86 0 0 0 0 2.59 9.77 9.77 0 0 0 .47 2.7l.08.25.13.11a40 40 0 0 0 5.57 4c.53.32 1.07.63 1.63.93h-12.59c.5.6 1 1.19 1.55 1.77 2.1 2.18 4.12 4.48 6.33 6.56a26.09 26.09 0 0 0 2.77 2.29l.18.13a25.13 25.13 0 0 0 4.46 2.55 30.55 30.55 0 0 0 8.76 2.4l6.12-.9-6 1.62h-.09a30.72 30.72 0 0 1 -9.34-1.59 26.22 26.22 0 0 1 -4.16-1.79l-2 16v.84 3.27h1-1.09c6.49-.35 13-.63 19.48-.91l9.74-.42c1.62-.06 3.25-.16 4.87-.19h3.18l-2.88-23.27-.06-.64.41-.49q2.76-3.34 5.45-6.75l.42-.53h3.79c1.17-1.52 2.32-3.06 3.42-4.67l.14-.2.06-.22a110.47 110.47 0 0 0 2.64-12.43c.34-2.08.64-4.17.87-6.28.11-1 .21-2.11.27-3.19 0-.54.06-1.09.06-1.65a9 9 0 0 0 -.18-1.93v-.26l-.17-.22a16.41 16.41 0 0 0 -4.74-4.2 32.49 32.49 0 0 0 -4.54-2.34c0-.16 0-.32-.07-.49-.09-.47-.2-.92-.33-1.37a15.81 15.81 0 0 0 -1-2.6l-.13-.28-.37-.19a41.6 41.6 0 0 0 -11.55-6.67 52.42 52.42 0 0 0 -6.34-2 62.8 62.8 0 0 0 -6.51-1.26h-.12-.08a2 2 0 0 0 -.82.18 2.28 2.28 0 0 0 -.38.18c-.22.12-.4.23-.57.34-.34.22-.64.44-.94.66-.6.45-1.17.9-1.73 1.36-1.11.91-2.19 1.85-3.26 2.79-2.14 1.89-4.23 3.82-6.3 5.77s-4.1 3.94-6.11 6q-1.5 1.52-3 3.09a42.4 42.4 0 0 0 -2.85 3.28l-.13.17-.08.22a94.61 94.61 0 0 0 -3 11.68 101.3 101.3 0 0 0 -1.71 11.93v.46l.24.4a50.59 50.59 0 0 0 5.71 7.74zm35.35 8a13.38 13.38 0 0 0 3.58-1.09 9.63 9.63 0 0 0 2.94-2l1.42 1.4a11.22 11.22 0 0 1 -3.76 2.09 14.44 14.44 0 0 1 -3.55.77l-.55 12.51-.65-13.07v-.52zm-9.91-11.8a15.08 15.08 0 0 1 -2.45 1.54 9.36 9.36 0 0 1 -3.83 1.07v-2a7.59 7.59 0 0 0 2.82-.61h3.46c.24-.19.49-.35.73-.55a10.11 10.11 0 0 0 1.36-1.4 3.62 3.62 0 0 0 .56-1 5.23 5.23 0 0 0 .17-1c0-.13 0-.26 0-.39a28.83 28.83 0 0 0 3-1.14l.82-.4a14.67 14.67 0 0 0 1.62-.93c.26-.17.52-.36.77-.56a5.34 5.34 0 0 0 1.36-1.56 3 3 0 0 0 .36-1.11 6.52 6.52 0 0 0 0-1c0-.5-.06-1-.11-1.45a10.58 10.58 0 0 0 .93.83 10 10 0 0 0 3.07 1.61 12.94 12.94 0 0 0 6.79.11l-.25-1-.24-1a11 11 0 0 1 -5.78.12 8.1 8.1 0 0 1 -2.58-1.24 7.9 7.9 0 0 1 -1.82-1.83l1.46-8.69c1.08.48 2.17.92 3.3 1.3a20.5 20.5 0 0 0 2.24.61 10.52 10.52 0 0 0 1.87.25 11.07 11.07 0 0 1 -.08 1.72 14.11 14.11 0 0 1 -.42 2.21 17.37 17.37 0 0 1 -1.73 4.22c.23-.31.44-.63.65-1a18.36 18.36 0 0 0 1.56-3.1 16 16 0 0 0 .68-2.24 14.31 14.31 0 0 0 .34-2.35v-.47h-.54a8.9 8.9 0 0 1 -2-.46 19.26 19.26 0 0 1 -2-.8 34.71 34.71 0 0 1 -3.51-1.88l.41-2.23a49.34 49.34 0 0 1 4.57-6c.43-.46.86-.93 1.32-1.35.3-.26.28-.33.52-.43a2.56 2.56 0 0 1 .82-.14 13 13 0 0 1 3.61.51l.14.05a30.75 30.75 0 0 1 4.9 2.46 14.15 14.15 0 0 1 3.69 3.15 8.36 8.36 0 0 1 0 .92v1.48c-.06 1-.16 2-.27 3-.22 2-.51 4.09-.84 6.13a113 113 0 0 1 -2.5 11.84c-1.43 2.07-3 4.12-4.59 6.15z"/><path d="m44 68.45c.35.27.7.54 1.07.79l.52 18.28-.52-18.28c-.38-.24-.73-.52-1.07-.79z"/><path d="m77.47 92.58h-.52z"/><path d="m84.54 92.63 1.69.01z"/></g><path d="m49.77 57.8c.44.23.89.47 1.35.68a8.32 8.32 0 0 0 3.24.93 8.1 8.1 0 0 1 -3-1.31l-.45-.3z"/><path d="m71.91 83.24.55-12.51a14.44 14.44 0 0 0 3.54-.73 11.22 11.22 0 0 0 3.75-2.13l-1.42-1.4a9.63 9.63 0 0 1 -2.94 2 13.38 13.38 0 0 1 -3.58 1.09l-.58.09v.52z"/><path d="m86.27 57.8-.42.53q-2.68 3.41-5.45 6.75l-.41.49.07.64 2.79 23.41c-1.06 0-2.12 0-3.18 0-1.62 0-3.25.13-4.87.19l-9.74.42c-6.49.28-13 .56-19.48.91 6.49.36 13 .64 19.48.91l9.74.43c.72 0 1.44.06 2.15.09h.52l2.2.08h4.87 1.69l-.23-1.65-2.88-24.52c1.72-2.08 3.41-4.17 5.08-6.29.63-.8 1.25-1.59 1.86-2.39z"/><path d="m58.45 57.8a7.59 7.59 0 0 1 -2.82.61v2a9.36 9.36 0 0 0 3.83-1.07 15.08 15.08 0 0 0 2.45-1.54z"/><path d="m47.72 70.84a26.22 26.22 0 0 0 4.16 1.79 30.72 30.72 0 0 0 9.34 1.59h.09l6-1.62-6.12.9a30.55 30.55 0 0 1 -8.76-2.4 25.13 25.13 0 0 1 -4.43-2.55l-.18-.13a26.09 26.09 0 0 1 -2.77-2.29c-2.21-2.08-4.23-4.38-6.33-6.56-.53-.58-1-1.17-1.55-1.77h-3.82c1 1.31 2 2.57 3.12 3.8a45.29 45.29 0 0 0 6.53 6.09l.44.36c.18.14.37.26.56.4.35.27.7.54 1.07.79l.52 18.28.09-.72z"/></svg>