<svg xmlns="http://www.w3.org/2000/svg" viewBox="0 0 182 182">
  <defs>
    <style>
      .cls-1 {
        fill: #e6e1dc;
      }
    </style>
  </defs>
  <title>i-gun-popup</title>
  <g id="dialog">
    <g>
      <g>
        <path class="cls-1" d="M72.31,73.69A41.51,41.51,0,0,1,86,71.3l-1.1-7.11a46.74,46.74,0,0,0-14.32,6.32,28.3,28.3,0,0,0-9.8,11.54A26.39,26.39,0,0,1,72.31,73.69Z"/>
        <path class="cls-1" d="M87.28,75.86c-8.24,0-16.77,1.8-21.75,4.59A53.22,53.22,0,0,0,54.6,88.84c-2.19-2-3.79-3.69-3.81-3.71l-.35-.38H7.1l-.36.51C1.69,92.43-1,107.18,3.27,116.88l.41.93,41.1-10.17,0,.55,9.79,4,.47-1.09c5-11.67,15.13-18.63,27.1-18.63h5.34A9.63,9.63,0,0,1,89,97.6a7.08,7.08,0,0,1-3.24,5.86,12.14,12.14,0,0,1-7.51,1.63,17.43,17.43,0,0,1-7.65-3A17.79,17.79,0,0,0,78,106.27a13.86,13.86,0,0,0,8.88-.69A10.09,10.09,0,0,0,92.59,98a13.07,13.07,0,0,0-.37-5.47h62.1c4.86,0,9.13-2.84,12.71-8.45h13.81V75.86Z"/>
      </g>
      <g>
        <polygon points="6.02 108.42 6.85 113.15 44.33 104.66 44.64 107.67 44.78 107.64 45.3 104.03 45.36 103.44 44.69 103.52 6.02 108.42"/>
        <path d="M51.35,88.9a39.6,39.6,0,0,0-2.23,7.23,39.09,39.09,0,0,1,4.27-6c.6-.68,1.21-1.32,1.21-1.32-.86-.77-1.62-1.5-2.24-2.11C52,87.45,51.65,88.16,51.35,88.9Z"/>
        <path d="M97.47,83.55l68.28,2.32C166.19,85.29,167,84,167,84V81.15Z"/>
      </g>
    </g>
  </g>
</svg>
