<svg viewBox="0 0 128 70" xmlns="http://www.w3.org/2000/svg"><path d="m55.19 26.4a17.27 17.27 0 0 1 5.71-1l-.45-3a19.57 19.57 0 0 0 -6 2.63 11.82 11.82 0 0 0 -4.09 4.81 11 11 0 0 1 4.83-3.44z" fill="#e6e1dc"/><path d="m61.42 27.31a20.33 20.33 0 0 0 -9.06 1.91 22 22 0 0 0 -4.55 3.5c-.91-.82-1.58-1.54-1.59-1.55l-.15-.17h-18.07l-.15.21c-2.11 3-3.22 9.14-1.45 13.18l.17.39 17.13-4.24v.23l4.08 1.67.22-.44a12.15 12.15 0 0 1 11.3-7.76h2.22a3.93 3.93 0 0 1 .64 2.13 2.94 2.94 0 0 1 -1.35 2.44 5.06 5.06 0 0 1 -3.12.68 7.21 7.21 0 0 1 -3.19-1.23 7.33 7.33 0 0 0 3.07 1.74 5.78 5.78 0 0 0 3.7-.29 4.19 4.19 0 0 0 2.37-3.17 5.46 5.46 0 0 0 -.16-2.28h25.88c2 0 3.8-1.19 5.29-3.52h5.76v-3.43z" fill="#e6e1dc"/><path d="m43.5 39.05.03.26.22-.05z"/><path d="m43.96 38.8-.28.03-16.11 2.05.34 1.97 15.62-3.54-.03-.26.25.21-.22.05.13 1.25.06-.01.21-1.5z"/><path d="m45.53 35.76a15.51 15.51 0 0 1 1.77-2.49c.25-.29.51-.55.51-.55-.36-.32-.68-.63-.94-.88-.14.3-.29.6-.42.9a15.89 15.89 0 0 0 -.92 3.02z"/><path d="m65.67 30.51 28.45 1c.18-.24.53-.76.53-.76v-1.24z"/></svg>