<svg viewBox="0 0 128 70" xmlns="http://www.w3.org/2000/svg"><g fill="#e6e1dc"><path d="m59.75 25.78a11.42 11.42 0 0 0 -6.08 2.47 21.07 21.07 0 0 0 -4.67 5.37 21.75 21.75 0 0 1 3.63-6.45 13.79 13.79 0 0 1 6.51-4.33z"/><path d="m46.36 36.65c-.36-.33-.71-.66-1-1s-.67-.67-1-1.06l1.05.47-15.41-.41.92-.56a15.48 15.48 0 0 0 -1.63 5.91 13.67 13.67 0 0 0 .71 6l-.83-.35 13.9-4.34-13.47 5.62-.56.23-.27-.59a15.11 15.11 0 0 1 -1.17-6.71 17.49 17.49 0 0 1 1.5-6.71l.25-.55h.65l15.33-.41h.59l.47.48c.28.29.61.6.93.89s.64.57 1 .84z"/><path d="m45.48 44.76a25 25 0 0 1 3.65-6 13.51 13.51 0 0 1 5.87-4.18 10.87 10.87 0 0 1 3.59-.58h3.41l6.77.15 13.55.31 6.77.15h1.69a5 5 0 0 0 1.64-.13 4.74 4.74 0 0 0 2.46-2.14 4.12 4.12 0 0 1 -4.11 2.66h-1.69l-6.77.15-13.55.3-6.76.21-3.37.08a9.45 9.45 0 0 0 -3 .56 11.62 11.62 0 0 0 -5 3.67 22.56 22.56 0 0 0 -3.28 5.58z"/><path d="m56.3 32.23-2.15-2.1a8.24 8.24 0 0 1 6.77-2.71h39.49v3h-39.49c-2.65 0-3.55.71-4.62 1.81z"/><path d="m54 39.36a7.23 7.23 0 0 0 3 1.21 5.31 5.31 0 0 0 3-.48 3 3 0 0 0 1.6-2.16 4.35 4.35 0 0 0 -.7-2.67l1.87-.71a12.47 12.47 0 0 1 .42 1.77 4.34 4.34 0 0 1 -.2 2 4.21 4.21 0 0 1 -2.63 2.68 5.94 5.94 0 0 1 -3.49.07 7.51 7.51 0 0 1 -2.87-1.71z"/></g></svg>