<svg xmlns="http://www.w3.org/2000/svg" viewBox="0 0 128 70">
  <defs>
    <style>
      .cls-1 {
        fill: #e6e1dc;
      }
    </style>
  </defs>
  <title>i-gun</title>
  <g id="Layer_1" data-name="Layer 1">
    <g>
      <path class="cls-1" d="M59.75,25.78a11.42,11.42,0,0,0-6.08,2.47A21.07,21.07,0,0,0,49,33.62a21.75,21.75,0,0,1,3.63-6.45,13.79,13.79,0,0,1,6.51-4.33Z"/>
      <path class="cls-1" d="M46.36,36.65c-.36-.33-.71-.66-1-1s-.67-.67-1-1.06l1.05.47L30,34.65l.92-.56A15.48,15.48,0,0,0,29.29,40,13.67,13.67,0,0,0,30,46l-.83-.35,13.9-4.34L29.6,46.93l-.56.23-.27-.59a15.11,15.11,0,0,1-1.17-6.71,17.49,17.49,0,0,1,1.5-6.71l.25-.55H30l15.33-.41.59,0,.47.48c.28.29.61.6.93.89s.64.57,1,.84Z"/>
      <path class="cls-1" d="M45.48,44.76a25,25,0,0,1,3.65-6A13.51,13.51,0,0,1,55,34.58,10.87,10.87,0,0,1,58.59,34L62,34l6.77.15,13.55.31,6.77.15,1.69,0a5,5,0,0,0,1.64-.13,4.74,4.74,0,0,0,2.46-2.14A4.12,4.12,0,0,1,90.77,35l-1.69,0-6.77.15-13.55.3L62,35.66l-3.37.08a9.45,9.45,0,0,0-3,.56,11.62,11.62,0,0,0-5,3.67,22.56,22.56,0,0,0-3.28,5.58Z"/>
      <path class="cls-1" d="M56.3,32.23l-2.15-2.1a8.24,8.24,0,0,1,6.77-2.71h39.49v3H60.92C58.27,30.42,57.37,31.13,56.3,32.23Z"/>
      <path class="cls-1" d="M54,39.36a7.23,7.23,0,0,0,3,1.21,5.31,5.31,0,0,0,3-.48,3,3,0,0,0,1.6-2.16,4.35,4.35,0,0,0-.7-2.67l1.87-.71a12.47,12.47,0,0,1,.42,1.77,4.34,4.34,0,0,1-.2,2A4.21,4.21,0,0,1,60.36,41a5.94,5.94,0,0,1-3.49.07A7.51,7.51,0,0,1,54,39.36Z"/>
    </g>
  </g>
</svg>
