<svg xmlns="http://www.w3.org/2000/svg" viewBox="0 0 128 70">
  <defs>
    <style>
      .cls-1 {
        fill: #e6e1dc;
      }
    </style>
  </defs>
  <title>i-gun-active</title>
  <g id="solid">
    <g>
      <g>
        <path class="cls-1" d="M55.19,26.4a17.27,17.27,0,0,1,5.71-1l-.45-3a19.57,19.57,0,0,0-6,2.63,11.82,11.82,0,0,0-4.09,4.81A11,11,0,0,1,55.19,26.4Z"/>
        <path class="cls-1" d="M61.42,27.31a20.33,20.33,0,0,0-9.06,1.91,22,22,0,0,0-4.55,3.5c-.91-.82-1.58-1.54-1.59-1.55L46.07,31H28l-.15.21c-2.11,3-3.22,9.14-1.45,13.18l.17.39,17.13-4.24,0,.23,4.08,1.67L48,42a12.15,12.15,0,0,1,11.3-7.76h2.22a3.93,3.93,0,0,1,.64,2.13,2.94,2.94,0,0,1-1.35,2.44,5.06,5.06,0,0,1-3.12.68,7.21,7.21,0,0,1-3.19-1.23A7.33,7.33,0,0,0,57.57,40a5.78,5.78,0,0,0,3.7-.29,4.19,4.19,0,0,0,2.37-3.17,5.46,5.46,0,0,0-.16-2.28H89.36c2,0,3.8-1.19,5.29-3.52h5.76V27.31Z"/>
      </g>
      <g>
        <polygon points="43.5 39.05 43.53 39.31 43.75 39.26 43.5 39.05"/>
        <polygon points="43.96 38.8 43.68 38.83 27.57 40.88 27.91 42.85 43.53 39.31 43.5 39.05 43.75 39.26 43.53 39.31 43.66 40.56 43.72 40.55 43.72 40.55 43.93 39.05 43.96 38.8"/>
      </g>
      <path d="M45.53,35.76a15.51,15.51,0,0,1,1.77-2.49c.25-.29.51-.55.51-.55-.36-.32-.68-.63-.94-.88-.14.3-.29.6-.42.9A15.89,15.89,0,0,0,45.53,35.76Z"/>
      <path d="M65.67,30.51l28.45,1c.18-.24.53-.76.53-.76V29.51Z"/>
    </g>
  </g>
</svg>
