<svg xmlns="http://www.w3.org/2000/svg" viewBox="0 0 128 78">
  <defs>
    <style>
      .cls-1 {
        fill: #e6e1dc;
      }
    </style>
  </defs>
  <title>i-namecard-active</title>
  <g id="solid">
    <g>
      <rect class="cls-1" x="36.27" y="20.33" width="56" height="35.52"/>
      <g>
        <polygon points="50.58 48.93 60.95 46.9 60.1 47.85 59.8 41.85 62.3 41.85 62 47.85 61.96 48.78 61.15 48.79 50.58 48.93"/>
        <polygon points="55.84 32.42 54.09 47.27 52.34 32.42 55.84 32.42"/>
        <path d="M73.46,37.82,74,34.06l.23.6a2.58,2.58,0,0,0-1-.74A4,4,0,0,0,72,33.56a5.39,5.39,0,0,0-1.49.09,8.26,8.26,0,0,0-1.5.44,8.61,8.61,0,0,1,1.37-.83,5.87,5.87,0,0,1,1.58-.52,5.14,5.14,0,0,1,1.75,0,4.06,4.06,0,0,1,1.77.78l.2.15,0,.45L76,37.9Z"/>
        <path d="M69.85,44.22,69.29,48l-.39-.72a6.36,6.36,0,0,0,1.21.73,7,7,0,0,0,1.42.5,6.85,6.85,0,0,0,3.09,0,7.24,7.24,0,0,1-3.17.78,8.8,8.8,0,0,1-1.7-.14A7.4,7.4,0,0,1,68,48.64l-.35-.15,0-.57-.3-3.79Z"/>
        <path d="M67.49,35.5a3,3,0,0,0,1.69,2.79,14.84,14.84,0,0,0,3.12,1.12l.45.13.58.17a7.15,7.15,0,0,1,1.17.47,5.69,5.69,0,0,1,2.07,1.73c1.15,1.55.94,3.89-.48,4.73a2.92,2.92,0,0,0-.38-1.88,2.82,2.82,0,0,0-1-1.07,5.75,5.75,0,0,0-1.39-.54l-.8-.17-.43-.08-.57-.11a7.36,7.36,0,0,1-4.3-2.46,4,4,0,0,1-.89-2.64A2.82,2.82,0,0,1,67.49,35.5Z"/>
        <polygon points="69.13 26.23 73.15 29.81 72.37 29.82 76.81 27.25 73.17 30.87 72.88 31.16 72.39 30.89 67.68 28.27 69.13 26.23"/>
        <polygon points="60.98 27.69 59.73 33.76 58.48 27.69 60.98 27.69"/>
      </g>
      <polygon points="89.14 23.64 88.14 52.55 87.14 23.64 89.14 23.64"/>
      <polygon points="39.39 52.55 40.18 23.64 40.19 23.43 40.39 23.43 59.28 23.64 40.39 23.84 40.59 23.64 41.39 52.55 39.39 52.55"/>
    </g>
  </g>
</svg>
