<svg xmlns="http://www.w3.org/2000/svg" viewBox="0 0 128 78">
  <defs>
    <style>
      .cls-1 {
        fill: #e6e1dc;
      }
    </style>
  </defs>
  <title>i-namecard</title>
  <g id="Layer_1" data-name="Layer 1">
    <g>
      <path class="cls-1" d="M35.8,48.15c-.29-4.51-.43-9-.63-13.53-.11-2.25-.18-4.51-.24-6.76l-.19-6.77,0-1,1.09,0,14-.21,14-.13,14-.06,14,0h1.49v1.49l-.05,17-.15,17V56.4H91.8l-14-.19-14-.27c-4.67-.08-9.34-.24-14-.37s-9.34-.27-14-.47c4.66-.2,9.33-.34,14-.47s9.33-.29,14-.37l14-.26,14-.2-1.3,1.3-.14-17-.06-17,1.5,1.49-14,0-14-.07-14-.13-14-.21,1.06-1.06-.19,6.77c-.07,2.25-.14,4.51-.24,6.76C36.23,39.13,36.08,43.64,35.8,48.15Z"/>
      <g>
        <polygon class="cls-1" points="50.58 48.93 60.97 47.09 60.29 47.85 60.05 41.85 62.05 41.85 61.81 47.85 61.78 48.58 61.13 48.6 50.58 48.93"/>
        <polygon class="cls-1" points="55.59 32.42 54.09 47.27 52.59 32.42 55.59 32.42"/>
        <path class="cls-1" d="M73.71,37.82l.47-3.75.19.47a3.11,3.11,0,0,0-1-.74A4.28,4.28,0,0,0,72,33.48a5.48,5.48,0,0,0-1.5.13,8.92,8.92,0,0,0-1.49.48,9.86,9.86,0,0,1,1.38-.79,6.49,6.49,0,0,1,1.57-.48,5,5,0,0,1,1.72,0,3.91,3.91,0,0,1,1.69.78l.16.13,0,.34.21,3.79Z"/>
        <path class="cls-1" d="M69.6,44.21,69.13,48l-.32-.58a7.64,7.64,0,0,0,1.27.71,7.11,7.11,0,0,0,1.44.46,6.77,6.77,0,0,0,3.1,0,7.35,7.35,0,0,1-3.17.7A8.7,8.7,0,0,1,69.78,49a8,8,0,0,1-1.66-.53l-.28-.14,0-.45-.21-3.78Z"/>
        <path class="cls-1" d="M67.49,35.5a3.46,3.46,0,0,0,.45,1.88,3.15,3.15,0,0,0,1.1,1,12,12,0,0,0,3.2,1.22l.46.13.57.17a6.68,6.68,0,0,1,1.14.44,5.61,5.61,0,0,1,2,1.65c1.11,1.47,1,3.72-.35,4.6a3,3,0,0,0-1.29-3.08,5.29,5.29,0,0,0-1.43-.62c-.27-.07-.54-.14-.83-.19l-.44-.09-.56-.11a7.28,7.28,0,0,1-4.21-2.37,3.81,3.81,0,0,1-.91-2.52A2.81,2.81,0,0,1,67.49,35.5Z"/>
        <polygon class="cls-1" points="68.98 26.43 73.08 29.91 72.45 29.93 76.81 27.25 73.09 30.77 72.84 31 72.46 30.78 67.83 28.06 68.98 26.43"/>
        <polygon class="cls-1" points="60.73 27.69 59.73 33.76 58.73 27.69 60.73 27.69"/>
      </g>
    </g>
  </g>
</svg>
