<svg viewBox="0 0 128 78" xmlns="http://www.w3.org/2000/svg"><path d="m36.27 20.33h56v35.52h-56z" fill="#e6e1dc"/><path d="m50.58 48.93 10.37-2.03-.85.95-.3-6h2.5l-.3 6-.04.93-.81.01z"/><path d="m55.84 32.42-1.75 14.85-1.75-14.85z"/><path d="m73.46 37.82.54-3.76.23.6a2.58 2.58 0 0 0 -1-.74 4 4 0 0 0 -1.23-.36 5.39 5.39 0 0 0 -1.49.09 8.26 8.26 0 0 0 -1.5.44 8.61 8.61 0 0 1 1.37-.83 5.87 5.87 0 0 1 1.58-.52 5.14 5.14 0 0 1 1.75 0 4.06 4.06 0 0 1 1.77.78l.2.15v.45l.32 3.78z"/><path d="m69.85 44.22-.56 3.78-.39-.72a6.36 6.36 0 0 0 1.21.73 7 7 0 0 0 1.42.5 6.85 6.85 0 0 0 3.09 0 7.24 7.24 0 0 1 -3.17.78 8.8 8.8 0 0 1 -1.7-.14 7.4 7.4 0 0 1 -1.75-.51l-.35-.15v-.57l-.3-3.79z"/><path d="m67.49 35.5a3 3 0 0 0 1.69 2.79 14.84 14.84 0 0 0 3.12 1.12l.45.13.58.17a7.15 7.15 0 0 1 1.17.47 5.69 5.69 0 0 1 2.07 1.73c1.15 1.55.94 3.89-.48 4.73a2.92 2.92 0 0 0 -.38-1.88 2.82 2.82 0 0 0 -1-1.07 5.75 5.75 0 0 0 -1.39-.54l-.8-.17-.43-.08-.57-.11a7.36 7.36 0 0 1 -4.3-2.46 4 4 0 0 1 -.89-2.64 2.82 2.82 0 0 1 1.16-2.19z"/><path d="m69.13 26.23 4.02 3.58-.78.01 4.44-2.57-3.64 3.62-.29.29-.49-.27-4.71-2.62z"/><path d="m60.98 27.69-1.25 6.07-1.25-6.07z"/><path d="m89.14 23.64-1 28.91-1-28.91z"/><path d="m39.39 52.55.79-28.91.01-.21h.2l18.89.21-18.89.2.2-.2.8 28.91z"/></svg>