<svg viewBox="0 0 128 78" xmlns="http://www.w3.org/2000/svg"><g fill="#e6e1dc"><path d="m35.8 48.15c-.29-4.51-.43-9-.63-13.53-.11-2.25-.18-4.51-.24-6.76l-.19-6.77v-1h1.09l14-.21 14-.13 14-.06h14 1.49v1.49l-.05 17-.15 17v1.22h-1.32l-14-.19-14-.27c-4.67-.08-9.34-.24-14-.37s-9.34-.27-14-.47c4.66-.2 9.33-.34 14-.47s9.33-.29 14-.37l14-.26 14-.2-1.3 1.3-.14-17-.06-17 1.5 1.49h-14l-14-.07-14-.13-14-.21 1.06-1.06-.19 6.77c-.07 2.25-.14 4.51-.24 6.76-.2 4.48-.35 8.99-.63 13.5z"/><path d="m50.58 48.93 10.39-1.84-.68.76-.24-6h2l-.24 6-.03.73-.65.02z"/><path d="m55.59 32.42-1.5 14.85-1.5-14.85z"/><path d="m73.71 37.82.47-3.75.19.47a3.11 3.11 0 0 0 -1-.74 4.28 4.28 0 0 0 -1.37-.32 5.48 5.48 0 0 0 -1.5.13 8.92 8.92 0 0 0 -1.49.48 9.86 9.86 0 0 1 1.38-.79 6.49 6.49 0 0 1 1.57-.48 5 5 0 0 1 1.72 0 3.91 3.91 0 0 1 1.69.78l.16.13v.34l.21 3.79z"/><path d="m69.6 44.21-.47 3.79-.32-.58a7.64 7.64 0 0 0 1.27.71 7.11 7.11 0 0 0 1.44.46 6.77 6.77 0 0 0 3.1 0 7.35 7.35 0 0 1 -3.17.7 8.7 8.7 0 0 1 -1.67-.29 8 8 0 0 1 -1.66-.53l-.28-.14v-.45l-.21-3.78z"/><path d="m67.49 35.5a3.46 3.46 0 0 0 .45 1.88 3.15 3.15 0 0 0 1.1 1 12 12 0 0 0 3.2 1.22l.46.13.57.17a6.68 6.68 0 0 1 1.14.44 5.61 5.61 0 0 1 2 1.65c1.11 1.47 1 3.72-.35 4.6a3 3 0 0 0 -1.29-3.08 5.29 5.29 0 0 0 -1.43-.62c-.27-.07-.54-.14-.83-.19l-.44-.09-.56-.11a7.28 7.28 0 0 1 -4.21-2.37 3.81 3.81 0 0 1 -.91-2.52 2.81 2.81 0 0 1 1.1-2.11z"/><path d="m68.98 26.43 4.1 3.48-.63.02 4.36-2.68-3.72 3.52-.25.23-.38-.22-4.63-2.72z"/><path d="m60.73 27.69-1 6.07-1-6.07z"/></g></svg>