<svg xmlns="http://www.w3.org/2000/svg" viewBox="0 0 182 182">
  <defs>
    <style>
      .cls-1 {
        fill: #e6e1dc;
      }
    </style>
  </defs>
  <title>i-namecard-popup</title>
  <g id="dialog">
    <g>
      <rect class="cls-1" x="23.8" y="48.38" width="134.4" height="85.24"/>
      <g>
        <polygon points="80.91 112.56 58.15 117.02 83.52 116.68 85.46 116.66 85.57 114.41 86.29 100.02 80.29 100.02 80.91 112.56"/>
        <polygon points="70.78 77.4 62.38 77.4 66.58 113.03 70.78 77.4"/>
        <path d="M119.06,90.55l-.71-9.08-.08-1.07-.46-.37a9.52,9.52,0,0,0-4.26-1.86,11.91,11.91,0,0,0-4.21,0,15,15,0,0,0-3.79,1.24,22.6,22.6,0,0,0-3.28,2,21.43,21.43,0,0,1,3.6-1.06,13.19,13.19,0,0,1,3.58-.21,9.46,9.46,0,0,1,3.23.86,7.81,7.81,0,0,1,1.62,1.06l-1.24,8.29Z"/>
        <path d="M108.43,115.93a17.49,17.49,0,0,1-5.22-2.19l1.2-8-6-.21.71,9.08.11,1.38.82.37a18,18,0,0,0,4.11,1.23,20,20,0,0,0,4.07.34,17.53,17.53,0,0,0,7.63-1.86A16.47,16.47,0,0,1,108.43,115.93Z"/>
        <path d="M115.56,96a17,17,0,0,0-2.81-1.13l-1.4-.42c-.35-.12-.71-.2-1.06-.3a35.07,35.07,0,0,1-7.5-2.7,7.81,7.81,0,0,1-2.66-2.23,8.35,8.35,0,0,1-1.4-4.46A6.76,6.76,0,0,0,95.86,90,9.57,9.57,0,0,0,98,96.38a17.62,17.62,0,0,0,10.31,5.89c.45.1.91.21,1.36.28l1,.19c.69.11,1.31.25,1.94.41a14.32,14.32,0,0,1,3.33,1.28,6.89,6.89,0,0,1,2.51,2.57,7.11,7.11,0,0,1,.91,4.51c3.39-2,3.9-7.62,1.15-11.34A13.58,13.58,0,0,0,115.56,96Z"/>
        <polygon points="111.68 74.37 112.38 73.67 121.1 64.98 111.61 70.48 102.67 62.53 99.2 67.42 110.49 73.71 111.68 74.37"/>
        <polygon points="80.12 80.6 83.12 66.03 77.12 66.03 80.12 80.6"/>
        <polygon points="145.9 56.31 148.3 125.69 150.7 56.31 145.9 56.31"/>
        <polygon points="79.05 56.31 33.7 55.81 33.22 55.81 33.2 56.31 31.3 125.69 36.1 125.69 34.2 56.8 79.05 56.31"/>
      </g>
    </g>
  </g>
</svg>
