<svg xmlns="http://www.w3.org/2000/svg" viewBox="0 0 128 102">
  <defs>
    <style>
      .cls-1 {
        fill: #e6e1dc;
      }
    </style>
  </defs>
  <title>i-penandletter</title>
  <g id="Layer_1" data-name="Layer 1">
    <g>
      <path class="cls-1" d="M39.84,72.28,37.9,59.87l2-14.08.24-.93.12-.46.06-.23s0,0,0,0L40,36.46l-.17-4-.08-2L39.62,28l2.76.13,2.22.12,4.42.25-4.42.25-2.22.13-.55,0-.39,0-.72.06L41,30.42l.3,1.95.61,3.9,1.25,8-.07.44L43,45l-.06.47-.14,1L39.32,59.94Z"/>
      <polygon class="cls-1" points="87.12 44.36 86.17 28.6 87.05 29.4 64.39 28.51 87.05 27.63 87.81 27.6 87.93 28.43 90.1 44.06 87.12 44.36"/>
      <path class="cls-1" d="M40.17,75.6c7.81-.74,15.63-1,23.44-1.28,3.9-.09,7.81-.18,11.72-.19s7.81,0,11.72,0l-1.44,1.59c-.25-2.62-.42-5.25-.64-7.87s-.34-5.25-.52-7.87v-.2l0-.11c.65-2.59,1.27-5.18,2-7.76s1.4-5.16,2.17-7.73c-.27,2.67-.59,5.32-1,8s-.76,5.29-1.15,7.93l0-.31c.34,2.61.73,5.21,1,7.83s.65,5.21.93,7.83L88.65,77h-1.6c-3.91,0-7.82.07-11.72,0s-7.82-.09-11.72-.18C55.8,76.65,48,76.35,40.17,75.6Z"/>
      <polygon class="cls-1" points="55.39 54.04 62.92 48.57 56.73 55.52 55.39 54.04"/>
      <g>
        <path class="cls-1" d="M55.75,54.78l-6.75-6-.11-.09,0-.17c.29-2.2.45-4.44.54-6.66s.09-4.46,0-6.69A85.85,85.85,0,0,0,48,22l-.45-2.39,2.24,1.14,7.48,3.82-1.45,2.62-7.21-4.32,1.79-1.25A89.63,89.63,0,0,1,51,35.17c-.06,2.26-.23,4.52-.47,6.76s-.55,4.47-1,6.69l-.08-.26Z"/>
        <path class="cls-1" d="M61.43,48.39,62,44.81l.45-3.58c.26-2.4.48-4.8.58-7.21s.13-4.81,0-7.21a30,30,0,0,0-1-7.06l.61.1-6,6L62,19.36l.38-.45.22.55a30.57,30.57,0,0,1,1.67,7.23A72.26,72.26,0,0,1,64.86,34c.08,2.45,0,4.91,0,7.36l-.17,3.68-.26,3.67Z"/>
        <path class="cls-1" d="M56,29c.41,3.06.66,6.14.85,9.23s.28,6.18.29,9.27,0,6.2-.21,9.31-.42,6.2-.74,9.3l-3-.45c.55-3,1.07-6,1.46-9.06s.71-6.09.95-9.15.39-6.13.46-9.21S56.18,32.11,56,29Z"/>
      </g>
      <path class="cls-1" d="M74.61,67.41a5.9,5.9,0,0,1-5.27-3.91,5.56,5.56,0,0,1,1.5-6,5.12,5.12,0,0,1,5.67-.81,4.79,4.79,0,0,1,2.67,4.59,4.4,4.4,0,0,0-3-3.9A4,4,0,0,0,71.9,58.6a3.68,3.68,0,0,0-.48,4,3.26,3.26,0,0,0,3.19,1.77Z"/>
      <polygon class="cls-1" points="63.28 43.76 83.46 45.26 63.28 46.76 63.28 43.76"/>
      <polygon class="cls-1" points="38.61 58.91 52.87 59.91 38.61 60.91 38.61 58.91"/>
    </g>
  </g>
</svg>
