<svg viewBox="0 0 128 102" xmlns="http://www.w3.org/2000/svg"><path d="m90.01 44.85-1.67-16.74h-23.56l-2.04-8.19-6.17 6.98-8.26-6.91.93 8.12h-9.78l1.66 16.64-3.13 15.7 1.67 16.74h48.88l-1.65-16.64z" fill="#e6e1dc"/><path d="m48.22 27.74c.34 2.35.59 4.72.78 7.1a117.58 117.58 0 0 1 .3 14.3v.15l.09.08 5.85 5.2c-.11.88-.2 1.76-.33 2.64-.4 3-.95 6-1.52 9l3.46.53c.3-3.11.56-6.22.67-9.33 0-.49 0-1 0-1.47l5.74-6.81 1.74.21.23-3.68.2-3.66c.06-2.46.07-4.92 0-7.38a72.52 72.52 0 0 0 -.6-7.36 31.08 31.08 0 0 0 -1.75-7.26l-.26-.64-.44.53-4.6 5.28-8.89-5.67-2.42-1.5.53 2.73c.48 2.32.91 4.66 1.22 7.01zm14.25-6.74a32.76 32.76 0 0 1 .82 6.37q.15 3.6-.06 7.2c-.12 2.41-.36 4.8-.63 7.19l-.47 3.58-.56 3.66 1.74.21-5.65 3.79c0-1.64 0-3.27 0-4.91 0-3.1-.15-6.2-.35-9.28s-.48-6.17-.91-9.23c.14 3.08.12 6.17 0 9.24s-.26 6.15-.52 9.21q-.28 3.21-.68 6.41l-5.36-5.42a119.66 119.66 0 0 0 .6-14.29c0-2.41-.13-4.83-.31-7.24-.1-1.47-.26-2.94-.43-4.41l6.35 4.55z"/><path d="m73.76 69.14v-3.5a3 3 0 0 1 -3-1.59 3.53 3.53 0 0 1 .39-3.89 3.93 3.93 0 0 1 4.2-1.16 4.39 4.39 0 0 1 3 3.84 4.81 4.81 0 0 0 -2.65-4.64 5.23 5.23 0 0 0 -5.79.78 5.71 5.71 0 0 0 -1.58 6.12 6.12 6.12 0 0 0 5.43 4.04z"/><path d="m86.85 45.4-18.32-.8v2.5l17.8-.76-1.38 10.52 2.35-10.93.11-.51z"/><path d="m84.22 60.4-1.99.19 1.44 12.76-40.52.76 41.38.78.84.01-.07-.86z"/><path d="m86.96 41.33-.91-9.43-.03-.3-.32-.01-17.63-.64v2l17.33-.64z"/><path d="m43.44 57.83 1.99-12.45v-.03-.07l-1.14-14.1-1.99.23 2.23 13.94z"/><path d="m38.17 59.54-.18.91.1 1.02 15.17-.97z"/></svg>