<svg xmlns="http://www.w3.org/2000/svg" viewBox="0 0 128 102">
  <defs>
    <style>
      .cls-1 {
        fill: #e6e1dc;
      }
    </style>
  </defs>
  <title>i-penandletter-active</title>
  <g id="solid">
    <g>
      <polygon class="cls-1" points="90.01 44.85 88.34 28.11 64.78 28.11 62.74 19.92 56.57 26.9 48.31 19.99 49.24 28.11 39.46 28.11 41.12 44.75 37.99 60.45 39.66 77.19 88.54 77.19 86.89 60.55 90.01 44.85"/>
      <g>
        <path d="M48.22,27.74c.34,2.35.59,4.72.78,7.1a117.58,117.58,0,0,1,.3,14.3v.15l.09.08,5.85,5.2c-.11.88-.2,1.76-.33,2.64-.4,3-.95,6-1.52,9l3.46.53c.3-3.11.56-6.22.67-9.33,0-.49,0-1,0-1.47l5.74-6.81,1.74.21.23-3.68L65.43,42c.06-2.46.07-4.92,0-7.38a72.52,72.52,0,0,0-.6-7.36A31.08,31.08,0,0,0,63.08,20l-.26-.64-.44.53-4.6,5.28-8.89-5.67L46.47,18,47,20.73C47.48,23.05,47.91,25.39,48.22,27.74ZM62.47,21a32.76,32.76,0,0,1,.82,6.37q.15,3.6-.06,7.2c-.12,2.41-.36,4.8-.63,7.19l-.47,3.58L61.57,49l1.74.21L57.66,53c0-1.64,0-3.27,0-4.91,0-3.1-.15-6.2-.35-9.28s-.48-6.17-.91-9.23c.14,3.08.12,6.17,0,9.24s-.26,6.15-.52,9.21q-.28,3.21-.68,6.41l-5.36-5.42a119.66,119.66,0,0,0,.6-14.29c0-2.41-.13-4.83-.31-7.24-.1-1.47-.26-2.94-.43-4.41l6.35,4.55Z"/>
        <path d="M73.76,69.14v-3.5a3,3,0,0,1-3-1.59,3.53,3.53,0,0,1,.39-3.89A3.93,3.93,0,0,1,75.35,59a4.39,4.39,0,0,1,3,3.84,4.81,4.81,0,0,0-2.65-4.64,5.23,5.23,0,0,0-5.79.78,5.71,5.71,0,0,0-1.58,6.12A6.12,6.12,0,0,0,73.76,69.14Z"/>
        <polygon points="86.85 45.4 68.53 44.6 68.53 47.1 86.33 46.34 84.95 56.86 87.3 45.93 87.41 45.42 86.85 45.4"/>
        <polygon points="84.22 60.4 82.23 60.59 83.67 73.35 43.15 74.11 84.53 74.89 85.37 74.9 85.3 74.04 84.22 60.4"/>
        <polygon points="86.96 41.33 86.05 31.9 86.02 31.6 85.7 31.59 68.07 30.95 68.07 32.95 85.4 32.31 86.96 41.33"/>
        <polygon points="43.44 57.83 45.43 45.38 45.43 45.35 45.43 45.28 44.29 31.18 42.3 31.41 44.53 45.35 43.44 57.83"/>
        <polygon points="38.17 59.54 37.99 60.45 38.09 61.47 53.26 60.5 38.17 59.54"/>
      </g>
    </g>
  </g>
</svg>
