<svg viewBox="0 0 128 102" xmlns="http://www.w3.org/2000/svg"><g fill="#e6e1dc"><path d="m39.84 72.28-1.94-12.41 2-14.08.24-.93.12-.46.06-.23s0 0 0 0l-.32-7.71-.17-4-.08-2-.13-2.46 2.76.13 2.22.12 4.42.25-4.42.25-2.22.13h-.55-.39l-.72.06.28 1.48.3 1.95.61 3.9 1.25 8-.07.44-.09.29-.06.47-.14 1-3.48 13.47z"/><path d="m87.12 44.36-.95-15.76.88.8-22.66-.89 22.66-.88.76-.03.12.83 2.17 15.63z"/><path d="m40.17 75.6c7.81-.74 15.63-1 23.44-1.28 3.9-.09 7.81-.18 11.72-.19s7.81 0 11.72 0l-1.44 1.59c-.25-2.62-.42-5.25-.64-7.87s-.34-5.25-.52-7.87v-.2-.11c.65-2.59 1.27-5.18 2-7.76s1.4-5.16 2.17-7.73c-.27 2.67-.59 5.32-1 8s-.76 5.29-1.15 7.93v-.31c.34 2.61.73 5.21 1 7.83s.65 5.21.93 7.83l.25 1.54h-1.6c-3.91 0-7.82.07-11.72 0s-7.82-.09-11.72-.18c-7.81-.17-15.61-.47-23.44-1.22z"/><path d="m55.39 54.04 7.53-5.47-6.19 6.95z"/><path d="m55.75 54.78-6.75-6-.11-.09v-.17c.29-2.2.45-4.44.54-6.66s.09-4.46 0-6.69a85.85 85.85 0 0 0 -1.43-13.17l-.45-2.39 2.24 1.14 7.48 3.82-1.45 2.62-7.21-4.32 1.79-1.25a89.63 89.63 0 0 1 .6 13.55c-.06 2.26-.23 4.52-.47 6.76s-.55 4.47-1 6.69l-.08-.26z"/><path d="m61.43 48.39.57-3.58.45-3.58c.26-2.4.48-4.8.58-7.21s.13-4.81 0-7.21a30 30 0 0 0 -1-7.06l.61.1-6 6 5.36-6.49.38-.45.22.55a30.57 30.57 0 0 1 1.67 7.23 72.26 72.26 0 0 1 .59 7.31c.08 2.45 0 4.91 0 7.36l-.17 3.68-.26 3.67z"/><path d="m56 29c.41 3.06.66 6.14.85 9.23s.28 6.18.29 9.27 0 6.2-.21 9.31-.42 6.2-.74 9.3l-3-.45c.55-3 1.07-6 1.46-9.06s.71-6.09.95-9.15.39-6.13.46-9.21.12-6.13-.06-9.24z"/><path d="m74.61 67.41a5.9 5.9 0 0 1 -5.27-3.91 5.56 5.56 0 0 1 1.5-6 5.12 5.12 0 0 1 5.67-.81 4.79 4.79 0 0 1 2.67 4.59 4.4 4.4 0 0 0 -3-3.9 4 4 0 0 0 -4.28 1.22 3.68 3.68 0 0 0 -.48 4 3.26 3.26 0 0 0 3.19 1.77z"/><path d="m63.28 43.76 20.18 1.5-20.18 1.5z"/><path d="m38.61 58.91 14.26 1-14.26 1z"/></g></svg>