<svg xmlns="http://www.w3.org/2000/svg" viewBox="0 0 182 182">
  <defs>
    <style>
      .cls-1 {
        fill: #e6e1dc;
      }
    </style>
  </defs>
  <title>i-penandletter-popup</title>
  <g id="dialog">
    <g>
      <polygon class="cls-1" points="153.42 84.44 149.42 44.25 92.88 44.25 87.99 24.6 73.16 41.35 53.35 24.78 55.59 44.25 32.1 44.25 36.08 84.21 28.58 121.88 32.58 162.06 149.9 162.06 145.92 122.11 153.42 84.44"/>
      <g>
        <path d="M53.14,43.38c.8,5.64,1.41,11.33,1.85,17a282.74,282.74,0,0,1,.74,34.32l0,.36.23.2,14,12.48c-.26,2.11-.5,4.22-.8,6.32-1,7.28-2.27,14.51-3.64,21.69L73.85,137c.7-7.46,1.33-14.91,1.61-22.38.05-1.18.06-2.36.11-3.54L89.35,94.79,75.78,104.1c.06-3.93.08-7.86,0-11.79C75.76,84.87,75.45,77.44,75,70s-1.15-14.8-2.18-22.14c.33,7.4.29,14.8.08,22.18s-.61,14.75-1.25,22.09c-.43,5.14-1,10.27-1.61,15.38l-12.87-13a288.59,288.59,0,0,0,1.45-34.29c-.08-5.79-.32-11.58-.77-17.36-.24-3.54-.61-7.07-1-10.6L72,43.22,87.32,27.29a78.14,78.14,0,0,1,2,15.29,169,169,0,0,1-.15,17.29c-.29,5.77-.86,11.52-1.51,17.26l-1.13,8.59-1.33,8.57,4.17.5,4.17.5.56-8.83.36-8.84c.13-5.9.17-11.81-.07-17.71a174.63,174.63,0,0,0-1.46-17.67c-.85-5.87-1.81-11.66-4.12-17.38l-.63-1.55L87.1,24.57l-11,12.69L54.73,23.64l-5.81-3.71,1.32,6.63C51.35,32.13,52.39,37.73,53.14,43.38Z"/>
        <path d="M114.43,142.73v-8.4a7.26,7.26,0,0,1-7.23-3.81,8.42,8.42,0,0,1,1-9.33,9.37,9.37,0,0,1,10.09-2.9,10.5,10.5,0,0,1,7.17,9.21,11.56,11.56,0,0,0-6.36-11.15,12.54,12.54,0,0,0-13.88,1.88,13.72,13.72,0,0,0-3.8,14.69A14.67,14.67,0,0,0,114.43,142.73Z"/>
        <polygon points="145.85 85.75 101.88 83.85 101.88 89.85 144.59 88 141.28 113.26 146.93 87.04 147.19 85.81 145.85 85.75"/>
        <polygon points="139.54 121.77 134.76 122.22 138.2 152.85 40.97 154.67 140.27 156.52 142.29 156.56 142.12 154.49 139.54 121.77"/>
        <polygon points="146.11 76 143.93 53.36 143.86 52.65 143.08 52.62 100.78 51.07 100.78 55.87 142.37 54.35 146.11 76"/>
        <polygon points="41.65 115.6 46.42 85.72 46.44 85.63 46.42 85.46 43.69 51.62 38.92 52.19 44.26 85.63 41.65 115.6"/>
        <polygon points="29.01 119.68 28.58 121.88 28.82 124.31 65.23 121.99 29.01 119.68"/>
      </g>
    </g>
  </g>
</svg>
