<svg xmlns="http://www.w3.org/2000/svg" viewBox="0 0 128 80">
  <defs>
    <style>
      .cls-1 {
        fill: #e6e1dc;
      }
    </style>
  </defs>
  <title>i-stamp-active</title>
  <g id="solid">
    <g>
      <path class="cls-1" d="M75.85,54.56h-1c-4.91,0-6.82-1.32-6.82-4.71V48.21a3.5,3.5,0,0,1,.68-2.13,5.94,5.94,0,0,0-.68-8,15,15,0,0,1,3.35-9.54,9.64,9.64,0,0,0-6.3-15.77,9.75,9.75,0,0,0-2.16,0,9.64,9.64,0,0,0-6.3,15.77A15,15,0,0,1,60,38.12a5.94,5.94,0,0,0-.68,8A3.5,3.5,0,0,1,60,48.21v1.64c0,3.39-1.92,4.71-6.82,4.71h-1v7.19h23.7Z"/>
      <path d="M59.28,16.75a7.27,7.27,0,0,0-2.19,5.07,6,6,0,0,0,.59,2.62,16.56,16.56,0,0,0,1.54,2.31L61,29.06a14.6,14.6,0,0,1,1.61,2.66,17.24,17.24,0,0,1,1.53,6.07h-3a14.61,14.61,0,0,0-.59-5.27,11.87,11.87,0,0,0-1.06-2.46L58,27.55a16.28,16.28,0,0,1-1.34-2.71,6.82,6.82,0,0,1-.31-3.06A7.6,7.6,0,0,1,59.28,16.75Z"/>
      <path d="M61.36,39a4,4,0,0,0-.9,2.67,3.56,3.56,0,0,0,1,2.35,2.73,2.73,0,0,0,2.14.62,4.52,4.52,0,0,0,2.17-.81L67,46.53a7.14,7.14,0,0,1-3.63.3,4.32,4.32,0,0,1-3.65-5.23A4.37,4.37,0,0,1,61.36,39Z"/>
      <polygon points="53.84 56.37 72.53 56.45 54.07 59.36 53.84 56.37"/>
      <path d="M63.24,29a32.08,32.08,0,0,0,6.05.16c.58,0,1.17-.09,1.75-.16.12-.14.22-.3.34-.44a9.85,9.85,0,0,0,1.48-2.4A31.48,31.48,0,0,1,69,27.71,31.79,31.79,0,0,1,63.24,29Z"/>
    </g>
  </g>
</svg>
