<svg viewBox="0 0 128 80" xmlns="http://www.w3.org/2000/svg"><path d="m75.85 54.56h-1c-4.91 0-6.82-1.32-6.82-4.71v-1.64a3.5 3.5 0 0 1 .68-2.13 5.94 5.94 0 0 0 -.68-8 15 15 0 0 1 3.35-9.54 9.64 9.64 0 0 0 -6.3-15.77 9.75 9.75 0 0 0 -2.16 0 9.64 9.64 0 0 0 -6.3 15.77 15 15 0 0 1 3.38 9.58 5.94 5.94 0 0 0 -.68 8 3.5 3.5 0 0 1 .68 2.09v1.64c0 3.39-1.92 4.71-6.82 4.71h-1v7.19h23.7z" fill="#e6e1dc"/><path d="m59.28 16.75a7.27 7.27 0 0 0 -2.19 5.07 6 6 0 0 0 .59 2.62 16.56 16.56 0 0 0 1.54 2.31l1.78 2.31a14.6 14.6 0 0 1 1.61 2.66 17.24 17.24 0 0 1 1.53 6.07h-3a14.61 14.61 0 0 0 -.59-5.27 11.87 11.87 0 0 0 -1.06-2.46l-1.49-2.51a16.28 16.28 0 0 1 -1.34-2.71 6.82 6.82 0 0 1 -.31-3.06 7.6 7.6 0 0 1 2.93-5.03z"/><path d="m61.36 39a4 4 0 0 0 -.9 2.67 3.56 3.56 0 0 0 1 2.35 2.73 2.73 0 0 0 2.14.62 4.52 4.52 0 0 0 2.17-.81l1.23 2.7a7.14 7.14 0 0 1 -3.63.3 4.32 4.32 0 0 1 -3.65-5.23 4.37 4.37 0 0 1 1.64-2.6z"/><path d="m53.84 56.37 18.69.08-18.46 2.91z"/><path d="m63.24 29a32.08 32.08 0 0 0 6.05.16c.58 0 1.17-.09 1.75-.16.12-.14.22-.3.34-.44a9.85 9.85 0 0 0 1.48-2.4 31.48 31.48 0 0 1 -3.86 1.55 31.79 31.79 0 0 1 -5.76 1.29z"/></svg>