<svg xmlns="http://www.w3.org/2000/svg" viewBox="0 0 182 182">
  <defs>
    <style>
      .cls-1 {
        fill: #e6e1dc;
      }
    </style>
  </defs>
  <title>i-stamp-popup</title>
  <g id="dialog">
    <g>
      <path class="cls-1" d="M119.44,132.54H117c-11.77,0-16.36-3.17-16.36-11.3v-3.92a8.45,8.45,0,0,1,1.62-5.12,14.25,14.25,0,0,0-1.62-19.12,35.88,35.88,0,0,1,8-22.89A23.14,23.14,0,0,0,93.59,32.35a22.35,22.35,0,0,0-5.17,0A23.14,23.14,0,0,0,73.29,70.19a35.88,35.88,0,0,1,8,22.89A14.25,14.25,0,0,0,79.7,112.2a8.45,8.45,0,0,1,1.62,5.12v3.92c0,8.13-4.59,11.3-16.36,11.3h-2.4V149.8h56.88Z"/>
      <g>
        <path d="M76.64,67.72l3.53,6a28.37,28.37,0,0,1,2.55,5.92,35.45,35.45,0,0,1,1.42,12.65h7.2a41.35,41.35,0,0,0-3.69-14.57,33.28,33.28,0,0,0-3.86-6.41L79.54,65.8a36.68,36.68,0,0,1-3.7-5.55A14,14,0,0,1,74.43,54,17.37,17.37,0,0,1,79.67,41.8a18.23,18.23,0,0,0-7,12.06,16.31,16.31,0,0,0,.73,7.35A40.24,40.24,0,0,0,76.64,67.72Z"/>
        <path d="M80.81,101.45a11.09,11.09,0,0,0,1.4,7.86A11,11,0,0,0,89.58,114a17,17,0,0,0,8.71-.7l-3.07-6.52a10.86,10.86,0,0,1-5.22,2,6.6,6.6,0,0,1-5.11-1.49,8.51,8.51,0,0,1-2.38-5.64,9.63,9.63,0,0,1,2.16-6.41A10.54,10.54,0,0,0,80.81,101.45Z"/>
        <polygon points="67.16 144.07 111.48 137.07 66.61 136.89 67.16 144.07"/>
        <path d="M103.69,71.64c1.4-.09,2.81-.22,4.21-.38.28-.36.53-.73.81-1.07a23.31,23.31,0,0,0,3.55-5.77A75.34,75.34,0,0,1,103,68.1a76,76,0,0,1-13.84,3.15A78.82,78.82,0,0,0,103.69,71.64Z"/>
      </g>
    </g>
  </g>
</svg>
