<svg viewBox="0 0 128 80" xmlns="http://www.w3.org/2000/svg"><g fill="#e6e1dc"><path d="m74.59 62h-1.5v-4.73c-3-.16-7.82-1.17-7.82-7.17v-1.64a6 6 0 0 1 1.19-3.65 3.43 3.43 0 0 0 -.62-4.8l-.57-.45v-1.11a17.46 17.46 0 0 1 3.93-11.22 7.14 7.14 0 0 0 -4.66-11.68 6.59 6.59 0 0 0 -1.6 0 7 7 0 0 0 -4.27 2.08l-2.14-2.11a10.22 10.22 0 0 1 6.07-3 10.76 10.76 0 0 1 2.27 0 10.15 10.15 0 0 1 6.63 16.63 14.38 14.38 0 0 0 -3.23 9 6.43 6.43 0 0 1 .57 8.48 3 3 0 0 0 -.57 1.82v1.65c0 3.07 1.71 4.21 6.32 4.21h1.5v7.69z"/><path d="m61.7 48.46-.09 1.64v.1a6.08 6.08 0 0 1 -1.25 2.89 5.59 5.59 0 0 1 -2.56 1.69 15 15 0 0 1 -5.61.49l.27-.25-.53 5.47v-5.74h.27a14.36 14.36 0 0 0 5.17-1.05 4.28 4.28 0 0 0 1.81-1.5 4.44 4.44 0 0 0 .62-2.2v.1l-.1-1.64z"/><path d="m58.67 17.63a7.29 7.29 0 0 0 -2.27 3.45 7.71 7.71 0 0 0 0 4.34 8.17 8.17 0 0 0 .93 2.07 20.68 20.68 0 0 1 1.32 2.12 15.79 15.79 0 0 1 1.59 4.71 15.44 15.44 0 0 0 -2.24-4.32 17.87 17.87 0 0 0 -1.59-1.84 9.37 9.37 0 0 1 -1.41-2.16 9.61 9.61 0 0 1 -.76-5.34 10 10 0 0 1 2.33-5.09z"/><path d="m61 39.77a3.08 3.08 0 0 0 -2 1.69 3.7 3.7 0 0 0 -.15 2.92 4 4 0 0 0 2.27 2.13 4.1 4.1 0 0 0 3.31 0 4.33 4.33 0 0 1 -3.43.49 4.69 4.69 0 0 1 -3-2.16 5 5 0 0 1 -.37-3.89 4.84 4.84 0 0 1 2.78-3z"/><path d="m51.92 62 24.13-1.5v3z"/><path d="m59.55 27.45a30.46 30.46 0 0 0 5.45-.15 25.69 25.69 0 0 0 5.26-1.08l.46 2a27.28 27.28 0 0 1 -5.7.13 30.82 30.82 0 0 1 -5.47-.9z"/></g></svg>